M48
; DRILL file {KiCad 7.0.5} date Wed 21 Jun 2023 21:21:13 CEST
; FORMAT={-:-/ absolute / metric / decimal}
; #@! TF.CreationDate,2023-06-21T21:21:13+02:00
; #@! TF.GenerationSoftware,Kicad,Pcbnew,7.0.5
; #@! TF.FileFunction,Plated,1,2,PTH
FMAT,2
METRIC
; #@! TA.AperFunction,Plated,PTH,ViaDrill
T1C0.400
; #@! TA.AperFunction,Plated,PTH,ComponentDrill
T2C0.800
; #@! TA.AperFunction,Plated,PTH,ComponentDrill
T3C0.950
; #@! TA.AperFunction,Plated,PTH,ComponentDrill
T4C1.000
; #@! TA.AperFunction,Plated,PTH,ComponentDrill
T5C1.020
; #@! TA.AperFunction,Plated,PTH,ComponentDrill
T6C1.100
; #@! TA.AperFunction,Plated,PTH,ComponentDrill
T7C1.400
%
G90
G05
T1
X104.775Y-127.0
X104.775Y-128.27
X104.775Y-129.54
X106.045Y-129.54
X107.315Y-129.54
X108.585Y-129.54
X108.585Y-130.81
X108.585Y-132.08
X108.585Y-133.35
X108.585Y-134.62
X109.855Y-134.62
X111.125Y-134.62
X112.395Y-134.62
X113.665Y-134.62
X114.935Y-134.62
X116.205Y-129.54
X116.205Y-130.81
X116.205Y-132.08
X116.205Y-133.35
X116.205Y-134.62
X117.475Y-129.54
X118.745Y-129.54
X120.015Y-127.0
X120.015Y-128.27
X120.015Y-129.54
X120.015Y-130.81
X120.015Y-132.08
X121.285Y-132.08
X122.555Y-132.08
X123.825Y-132.08
X125.095Y-132.08
X126.365Y-127.0
X126.365Y-128.27
X126.365Y-129.54
X126.365Y-130.81
X126.365Y-132.08
T2
X93.98Y-73.66
X93.98Y-76.2
X93.98Y-78.74
X93.98Y-81.28
X93.98Y-83.82
X93.98Y-86.36
X93.98Y-88.9
X93.98Y-91.44
X93.98Y-93.98
X93.98Y-97.79
X93.98Y-100.33
X93.98Y-102.87
X93.98Y-105.41
X93.98Y-107.95
X93.98Y-110.49
X93.98Y-113.03
X93.98Y-115.57
X93.98Y-118.11
X101.6Y-73.66
X101.6Y-76.2
X101.6Y-78.74
X101.6Y-81.28
X101.6Y-83.82
X101.6Y-86.36
X101.6Y-88.9
X101.6Y-91.44
X101.6Y-93.98
X101.6Y-97.79
X101.6Y-100.33
X101.6Y-102.87
X101.6Y-105.41
X101.6Y-107.95
X101.6Y-110.49
X101.6Y-113.03
X101.6Y-115.57
X101.6Y-118.11
T3
X72.47Y-132.715
X74.97Y-132.715
X77.47Y-132.715
X83.9Y-132.715
X86.4Y-132.715
X88.9Y-132.715
X107.95Y-73.66
X107.95Y-76.16
X107.95Y-78.66
X107.95Y-81.16
X107.95Y-83.66
X107.95Y-97.79
X107.95Y-100.29
X107.95Y-102.79
X107.95Y-105.29
X107.95Y-107.79
X115.57Y-83.82
X115.57Y-86.32
X115.57Y-88.82
X115.57Y-91.32
X115.57Y-93.82
X115.57Y-107.95
X115.57Y-110.45
X115.57Y-112.95
X115.57Y-115.45
X115.57Y-117.95
T4
X57.15Y-92.282
X57.15Y-94.782
X57.15Y-100.918
X57.15Y-103.418
X57.15Y-109.554
X57.15Y-112.054
X57.15Y-118.15
X57.15Y-120.65
T5
X71.12Y-73.66
X71.12Y-76.2
X71.12Y-78.74
X71.12Y-81.28
X71.12Y-83.82
X71.12Y-86.36
X71.12Y-88.9
X71.12Y-91.44
X71.12Y-93.98
X71.12Y-96.52
X71.12Y-99.06
X71.12Y-101.6
X71.12Y-104.14
X71.12Y-106.68
X71.12Y-109.22
X71.12Y-111.76
X71.12Y-114.3
X71.12Y-116.84
X71.12Y-119.38
X71.12Y-121.92
X88.9Y-73.66
X88.9Y-76.2
X88.9Y-78.74
X88.9Y-81.28
X88.9Y-83.82
X88.9Y-86.36
X88.9Y-88.9
X88.9Y-91.44
X88.9Y-93.98
X88.9Y-96.52
X88.9Y-99.06
X88.9Y-101.6
X88.9Y-104.14
X88.9Y-106.68
X88.9Y-109.22
X88.9Y-111.76
X88.9Y-114.3
X88.9Y-116.84
X88.9Y-119.38
X88.9Y-121.92
T6
X54.61Y-73.66
X54.61Y-78.16
X61.11Y-73.66
X61.11Y-78.16
T7
X121.92Y-94.615
X121.92Y-99.615
X121.92Y-107.95
X121.92Y-112.95
T0
M30
