%TF.GenerationSoftware,KiCad,Pcbnew,7.0.5*%
%TF.CreationDate,2023-06-21T21:20:56+02:00*%
%TF.ProjectId,moduleDriver,6d6f6475-6c65-4447-9269-7665722e6b69,rev?*%
%TF.SameCoordinates,Original*%
%TF.FileFunction,Soldermask,Bot*%
%TF.FilePolarity,Negative*%
%FSLAX46Y46*%
G04 Gerber Fmt 4.6, Leading zero omitted, Abs format (unit mm)*
G04 Created by KiCad (PCBNEW 7.0.5) date 2023-06-21 21:20:56*
%MOMM*%
%LPD*%
G01*
G04 APERTURE LIST*
G04 Aperture macros list*
%AMRoundRect*
0 Rectangle with rounded corners*
0 $1 Rounding radius*
0 $2 $3 $4 $5 $6 $7 $8 $9 X,Y pos of 4 corners*
0 Add a 4 corners polygon primitive as box body*
4,1,4,$2,$3,$4,$5,$6,$7,$8,$9,$2,$3,0*
0 Add four circle primitives for the rounded corners*
1,1,$1+$1,$2,$3*
1,1,$1+$1,$4,$5*
1,1,$1+$1,$6,$7*
1,1,$1+$1,$8,$9*
0 Add four rect primitives between the rounded corners*
20,1,$1+$1,$2,$3,$4,$5,0*
20,1,$1+$1,$4,$5,$6,$7,0*
20,1,$1+$1,$6,$7,$8,$9,0*
20,1,$1+$1,$8,$9,$2,$3,0*%
G04 Aperture macros list end*
%ADD10O,1.700000X1.700000*%
%ADD11R,1.700000X1.700000*%
%ADD12O,3.600000X2.000000*%
%ADD13RoundRect,0.250000X1.550000X-0.750000X1.550000X0.750000X-1.550000X0.750000X-1.550000X-0.750000X0*%
%ADD14O,1.700000X1.950000*%
%ADD15RoundRect,0.250000X-0.600000X-0.725000X0.600000X-0.725000X0.600000X0.725000X-0.600000X0.725000X0*%
%ADD16O,1.950000X1.700000*%
%ADD17RoundRect,0.250000X-0.725000X0.600000X-0.725000X-0.600000X0.725000X-0.600000X0.725000X0.600000X0*%
%ADD18C,3.200000*%
%ADD19O,1.600000X1.600000*%
%ADD20R,1.600000X1.600000*%
%ADD21RoundRect,0.250000X0.750000X-0.600000X0.750000X0.600000X-0.750000X0.600000X-0.750000X-0.600000X0*%
%ADD22O,2.000000X1.700000*%
%ADD23C,2.000000*%
G04 APERTURE END LIST*
D10*
X71120000Y-73660000D03*
X71120000Y-76200000D03*
D11*
X71120000Y-78740000D03*
D10*
X71120000Y-81280000D03*
X71120000Y-83820000D03*
X71120000Y-86360000D03*
X71120000Y-88900000D03*
D11*
X71120000Y-91440000D03*
D10*
X71120000Y-93980000D03*
X71120000Y-96520000D03*
X71120000Y-99060000D03*
X71120000Y-101600000D03*
D11*
X71120000Y-104140000D03*
D10*
X71120000Y-106680000D03*
X71120000Y-109220000D03*
X71120000Y-111760000D03*
X71120000Y-114300000D03*
D11*
X71120000Y-116840000D03*
D10*
X71120000Y-119380000D03*
X71120000Y-121920000D03*
X88900000Y-121920000D03*
X88900000Y-119380000D03*
D11*
X88900000Y-116840000D03*
D10*
X88900000Y-114300000D03*
X88900000Y-111760000D03*
X88900000Y-109220000D03*
X88900000Y-106680000D03*
D11*
X88900000Y-104140000D03*
D10*
X88900000Y-101600000D03*
X88900000Y-99060000D03*
X88900000Y-96520000D03*
X88900000Y-93980000D03*
D11*
X88900000Y-91440000D03*
D10*
X88900000Y-88900000D03*
X88900000Y-86360000D03*
X88900000Y-83820000D03*
X88900000Y-81280000D03*
D11*
X88900000Y-78740000D03*
D10*
X88900000Y-76200000D03*
X88900000Y-73660000D03*
D12*
X121920000Y-107950000D03*
D13*
X121920000Y-112950000D03*
D12*
X121920000Y-94615000D03*
D13*
X121920000Y-99615000D03*
D14*
X77470000Y-132715000D03*
X74970000Y-132715000D03*
D15*
X72470000Y-132715000D03*
D16*
X107950000Y-107790000D03*
X107950000Y-105290000D03*
X107950000Y-102790000D03*
X107950000Y-100290000D03*
D17*
X107950000Y-97790000D03*
D18*
X125000000Y-76000000D03*
D19*
X101600000Y-97790000D03*
X101600000Y-100330000D03*
X101600000Y-102870000D03*
X101600000Y-105410000D03*
X101600000Y-107950000D03*
X101600000Y-110490000D03*
X101600000Y-113030000D03*
X101600000Y-115570000D03*
X101600000Y-118110000D03*
X93980000Y-118110000D03*
X93980000Y-115570000D03*
X93980000Y-113030000D03*
X93980000Y-110490000D03*
X93980000Y-107950000D03*
X93980000Y-105410000D03*
X93980000Y-102870000D03*
X93980000Y-100330000D03*
D20*
X93980000Y-97790000D03*
D21*
X57150000Y-112054000D03*
D22*
X57150000Y-109554000D03*
D19*
X101600000Y-73660000D03*
X101600000Y-76200000D03*
X101600000Y-78740000D03*
X101600000Y-81280000D03*
X101600000Y-83820000D03*
X101600000Y-86360000D03*
X101600000Y-88900000D03*
X101600000Y-91440000D03*
X101600000Y-93980000D03*
X93980000Y-93980000D03*
X93980000Y-91440000D03*
X93980000Y-88900000D03*
X93980000Y-86360000D03*
X93980000Y-83820000D03*
X93980000Y-81280000D03*
X93980000Y-78740000D03*
X93980000Y-76200000D03*
D20*
X93980000Y-73660000D03*
D23*
X54610000Y-73660000D03*
X61110000Y-73660000D03*
X54610000Y-78160000D03*
X61110000Y-78160000D03*
D21*
X57150000Y-94782000D03*
D22*
X57150000Y-92282000D03*
D16*
X115570000Y-117950000D03*
X115570000Y-115450000D03*
X115570000Y-112950000D03*
X115570000Y-110450000D03*
D17*
X115570000Y-107950000D03*
D18*
X61000000Y-131000000D03*
D16*
X115570000Y-93820000D03*
X115570000Y-91320000D03*
X115570000Y-88820000D03*
X115570000Y-86320000D03*
D17*
X115570000Y-83820000D03*
D21*
X57150000Y-120650000D03*
D22*
X57150000Y-118150000D03*
D21*
X57150000Y-103418000D03*
D22*
X57150000Y-100918000D03*
D14*
X88900000Y-132715000D03*
X86400000Y-132715000D03*
D15*
X83900000Y-132715000D03*
D18*
X99000000Y-131000000D03*
D16*
X107950000Y-83660000D03*
X107950000Y-81160000D03*
X107950000Y-78660000D03*
X107950000Y-76160000D03*
D17*
X107950000Y-73660000D03*
M02*
