%TF.GenerationSoftware,KiCad,Pcbnew,7.0.5*%
%TF.CreationDate,2023-06-21T21:20:56+02:00*%
%TF.ProjectId,moduleDriver,6d6f6475-6c65-4447-9269-7665722e6b69,rev?*%
%TF.SameCoordinates,Original*%
%TF.FileFunction,Paste,Top*%
%TF.FilePolarity,Positive*%
%FSLAX46Y46*%
G04 Gerber Fmt 4.6, Leading zero omitted, Abs format (unit mm)*
G04 Created by KiCad (PCBNEW 7.0.5) date 2023-06-21 21:20:56*
%MOMM*%
%LPD*%
G01*
G04 APERTURE LIST*
G04 Aperture macros list*
%AMRoundRect*
0 Rectangle with rounded corners*
0 $1 Rounding radius*
0 $2 $3 $4 $5 $6 $7 $8 $9 X,Y pos of 4 corners*
0 Add a 4 corners polygon primitive as box body*
4,1,4,$2,$3,$4,$5,$6,$7,$8,$9,$2,$3,0*
0 Add four circle primitives for the rounded corners*
1,1,$1+$1,$2,$3*
1,1,$1+$1,$4,$5*
1,1,$1+$1,$6,$7*
1,1,$1+$1,$8,$9*
0 Add four rect primitives between the rounded corners*
20,1,$1+$1,$2,$3,$4,$5,0*
20,1,$1+$1,$4,$5,$6,$7,0*
20,1,$1+$1,$6,$7,$8,$9,0*
20,1,$1+$1,$8,$9,$2,$3,0*%
G04 Aperture macros list end*
%ADD10RoundRect,0.250000X0.625000X-0.312500X0.625000X0.312500X-0.625000X0.312500X-0.625000X-0.312500X0*%
%ADD11RoundRect,0.250000X-0.650000X0.325000X-0.650000X-0.325000X0.650000X-0.325000X0.650000X0.325000X0*%
%ADD12RoundRect,0.250000X-0.312500X-0.625000X0.312500X-0.625000X0.312500X0.625000X-0.312500X0.625000X0*%
%ADD13RoundRect,0.225000X-0.225000X-0.375000X0.225000X-0.375000X0.225000X0.375000X-0.225000X0.375000X0*%
%ADD14RoundRect,0.250000X-0.625000X0.312500X-0.625000X-0.312500X0.625000X-0.312500X0.625000X0.312500X0*%
%ADD15RoundRect,0.250000X-0.350000X0.850000X-0.350000X-0.850000X0.350000X-0.850000X0.350000X0.850000X0*%
%ADD16RoundRect,0.250000X-1.125000X1.275000X-1.125000X-1.275000X1.125000X-1.275000X1.125000X1.275000X0*%
%ADD17RoundRect,0.250000X0.625000X-0.375000X0.625000X0.375000X-0.625000X0.375000X-0.625000X-0.375000X0*%
%ADD18RoundRect,0.250000X-0.375000X-0.625000X0.375000X-0.625000X0.375000X0.625000X-0.375000X0.625000X0*%
%ADD19RoundRect,0.250000X-1.000000X1.500000X-1.000000X-1.500000X1.000000X-1.500000X1.000000X1.500000X0*%
%ADD20RoundRect,0.250000X0.312500X0.625000X-0.312500X0.625000X-0.312500X-0.625000X0.312500X-0.625000X0*%
G04 APERTURE END LIST*
D10*
X107315000Y-118110000D03*
X107315000Y-121035000D03*
X77470000Y-125095000D03*
X77470000Y-128020000D03*
D11*
X107315000Y-127205000D03*
X107315000Y-124255000D03*
D12*
X67310000Y-121920000D03*
X64385000Y-121920000D03*
X67310000Y-81280000D03*
X64385000Y-81280000D03*
D13*
X127000000Y-118110000D03*
X123700000Y-118110000D03*
D14*
X109855000Y-121035000D03*
X109855000Y-118110000D03*
D10*
X88900000Y-125095000D03*
X88900000Y-128020000D03*
D15*
X109855000Y-124460000D03*
D16*
X110610000Y-132435000D03*
X113660000Y-132435000D03*
X110610000Y-129085000D03*
X113660000Y-129085000D03*
D15*
X114415000Y-124460000D03*
D12*
X67310000Y-76200000D03*
X64385000Y-76200000D03*
D17*
X104775000Y-118110000D03*
X104775000Y-120910000D03*
D18*
X62230000Y-83820000D03*
X59430000Y-83820000D03*
D19*
X123444000Y-128980000D03*
X123444000Y-122480000D03*
D10*
X74930000Y-125095000D03*
X74930000Y-128020000D03*
D12*
X67310000Y-119380000D03*
X64385000Y-119380000D03*
D20*
X64385000Y-83820000D03*
X67310000Y-83820000D03*
D11*
X117475000Y-127205000D03*
X117475000Y-124255000D03*
D10*
X86360000Y-125095000D03*
X86360000Y-128020000D03*
M02*
