%TF.GenerationSoftware,KiCad,Pcbnew,7.0.5*%
%TF.CreationDate,2023-06-21T21:20:56+02:00*%
%TF.ProjectId,moduleDriver,6d6f6475-6c65-4447-9269-7665722e6b69,rev?*%
%TF.SameCoordinates,Original*%
%TF.FileFunction,Other,Comment*%
%FSLAX46Y46*%
G04 Gerber Fmt 4.6, Leading zero omitted, Abs format (unit mm)*
G04 Created by KiCad (PCBNEW 7.0.5) date 2023-06-21 21:20:56*
%MOMM*%
%LPD*%
G01*
G04 APERTURE LIST*
%ADD10C,0.150000*%
G04 APERTURE END LIST*
D10*
X107380953Y-145720057D02*
X107428572Y-145672438D01*
X107428572Y-145672438D02*
X107523810Y-145624819D01*
X107523810Y-145624819D02*
X107761905Y-145624819D01*
X107761905Y-145624819D02*
X107857143Y-145672438D01*
X107857143Y-145672438D02*
X107904762Y-145720057D01*
X107904762Y-145720057D02*
X107952381Y-145815295D01*
X107952381Y-145815295D02*
X107952381Y-145910533D01*
X107952381Y-145910533D02*
X107904762Y-146053390D01*
X107904762Y-146053390D02*
X107333334Y-146624819D01*
X107333334Y-146624819D02*
X107952381Y-146624819D01*
X108809524Y-145624819D02*
X108619048Y-145624819D01*
X108619048Y-145624819D02*
X108523810Y-145672438D01*
X108523810Y-145672438D02*
X108476191Y-145720057D01*
X108476191Y-145720057D02*
X108380953Y-145862914D01*
X108380953Y-145862914D02*
X108333334Y-146053390D01*
X108333334Y-146053390D02*
X108333334Y-146434342D01*
X108333334Y-146434342D02*
X108380953Y-146529580D01*
X108380953Y-146529580D02*
X108428572Y-146577200D01*
X108428572Y-146577200D02*
X108523810Y-146624819D01*
X108523810Y-146624819D02*
X108714286Y-146624819D01*
X108714286Y-146624819D02*
X108809524Y-146577200D01*
X108809524Y-146577200D02*
X108857143Y-146529580D01*
X108857143Y-146529580D02*
X108904762Y-146434342D01*
X108904762Y-146434342D02*
X108904762Y-146196247D01*
X108904762Y-146196247D02*
X108857143Y-146101009D01*
X108857143Y-146101009D02*
X108809524Y-146053390D01*
X108809524Y-146053390D02*
X108714286Y-146005771D01*
X108714286Y-146005771D02*
X108523810Y-146005771D01*
X108523810Y-146005771D02*
X108428572Y-146053390D01*
X108428572Y-146053390D02*
X108380953Y-146101009D01*
X108380953Y-146101009D02*
X108333334Y-146196247D01*
X109333334Y-146529580D02*
X109380953Y-146577200D01*
X109380953Y-146577200D02*
X109333334Y-146624819D01*
X109333334Y-146624819D02*
X109285715Y-146577200D01*
X109285715Y-146577200D02*
X109333334Y-146529580D01*
X109333334Y-146529580D02*
X109333334Y-146624819D01*
X110000000Y-145624819D02*
X110095238Y-145624819D01*
X110095238Y-145624819D02*
X110190476Y-145672438D01*
X110190476Y-145672438D02*
X110238095Y-145720057D01*
X110238095Y-145720057D02*
X110285714Y-145815295D01*
X110285714Y-145815295D02*
X110333333Y-146005771D01*
X110333333Y-146005771D02*
X110333333Y-146243866D01*
X110333333Y-146243866D02*
X110285714Y-146434342D01*
X110285714Y-146434342D02*
X110238095Y-146529580D01*
X110238095Y-146529580D02*
X110190476Y-146577200D01*
X110190476Y-146577200D02*
X110095238Y-146624819D01*
X110095238Y-146624819D02*
X110000000Y-146624819D01*
X110000000Y-146624819D02*
X109904762Y-146577200D01*
X109904762Y-146577200D02*
X109857143Y-146529580D01*
X109857143Y-146529580D02*
X109809524Y-146434342D01*
X109809524Y-146434342D02*
X109761905Y-146243866D01*
X109761905Y-146243866D02*
X109761905Y-146005771D01*
X109761905Y-146005771D02*
X109809524Y-145815295D01*
X109809524Y-145815295D02*
X109857143Y-145720057D01*
X109857143Y-145720057D02*
X109904762Y-145672438D01*
X109904762Y-145672438D02*
X110000000Y-145624819D01*
X110952381Y-145624819D02*
X111047619Y-145624819D01*
X111047619Y-145624819D02*
X111142857Y-145672438D01*
X111142857Y-145672438D02*
X111190476Y-145720057D01*
X111190476Y-145720057D02*
X111238095Y-145815295D01*
X111238095Y-145815295D02*
X111285714Y-146005771D01*
X111285714Y-146005771D02*
X111285714Y-146243866D01*
X111285714Y-146243866D02*
X111238095Y-146434342D01*
X111238095Y-146434342D02*
X111190476Y-146529580D01*
X111190476Y-146529580D02*
X111142857Y-146577200D01*
X111142857Y-146577200D02*
X111047619Y-146624819D01*
X111047619Y-146624819D02*
X110952381Y-146624819D01*
X110952381Y-146624819D02*
X110857143Y-146577200D01*
X110857143Y-146577200D02*
X110809524Y-146529580D01*
X110809524Y-146529580D02*
X110761905Y-146434342D01*
X110761905Y-146434342D02*
X110714286Y-146243866D01*
X110714286Y-146243866D02*
X110714286Y-146005771D01*
X110714286Y-146005771D02*
X110761905Y-145815295D01*
X110761905Y-145815295D02*
X110809524Y-145720057D01*
X110809524Y-145720057D02*
X110857143Y-145672438D01*
X110857143Y-145672438D02*
X110952381Y-145624819D01*
X111904762Y-145624819D02*
X112000000Y-145624819D01*
X112000000Y-145624819D02*
X112095238Y-145672438D01*
X112095238Y-145672438D02*
X112142857Y-145720057D01*
X112142857Y-145720057D02*
X112190476Y-145815295D01*
X112190476Y-145815295D02*
X112238095Y-146005771D01*
X112238095Y-146005771D02*
X112238095Y-146243866D01*
X112238095Y-146243866D02*
X112190476Y-146434342D01*
X112190476Y-146434342D02*
X112142857Y-146529580D01*
X112142857Y-146529580D02*
X112095238Y-146577200D01*
X112095238Y-146577200D02*
X112000000Y-146624819D01*
X112000000Y-146624819D02*
X111904762Y-146624819D01*
X111904762Y-146624819D02*
X111809524Y-146577200D01*
X111809524Y-146577200D02*
X111761905Y-146529580D01*
X111761905Y-146529580D02*
X111714286Y-146434342D01*
X111714286Y-146434342D02*
X111666667Y-146243866D01*
X111666667Y-146243866D02*
X111666667Y-146005771D01*
X111666667Y-146005771D02*
X111714286Y-145815295D01*
X111714286Y-145815295D02*
X111761905Y-145720057D01*
X111761905Y-145720057D02*
X111809524Y-145672438D01*
X111809524Y-145672438D02*
X111904762Y-145624819D01*
X112857143Y-145624819D02*
X112952381Y-145624819D01*
X112952381Y-145624819D02*
X113047619Y-145672438D01*
X113047619Y-145672438D02*
X113095238Y-145720057D01*
X113095238Y-145720057D02*
X113142857Y-145815295D01*
X113142857Y-145815295D02*
X113190476Y-146005771D01*
X113190476Y-146005771D02*
X113190476Y-146243866D01*
X113190476Y-146243866D02*
X113142857Y-146434342D01*
X113142857Y-146434342D02*
X113095238Y-146529580D01*
X113095238Y-146529580D02*
X113047619Y-146577200D01*
X113047619Y-146577200D02*
X112952381Y-146624819D01*
X112952381Y-146624819D02*
X112857143Y-146624819D01*
X112857143Y-146624819D02*
X112761905Y-146577200D01*
X112761905Y-146577200D02*
X112714286Y-146529580D01*
X112714286Y-146529580D02*
X112666667Y-146434342D01*
X112666667Y-146434342D02*
X112619048Y-146243866D01*
X112619048Y-146243866D02*
X112619048Y-146005771D01*
X112619048Y-146005771D02*
X112666667Y-145815295D01*
X112666667Y-145815295D02*
X112714286Y-145720057D01*
X112714286Y-145720057D02*
X112761905Y-145672438D01*
X112761905Y-145672438D02*
X112857143Y-145624819D01*
X114380953Y-146624819D02*
X114380953Y-145958152D01*
X114380953Y-146053390D02*
X114428572Y-146005771D01*
X114428572Y-146005771D02*
X114523810Y-145958152D01*
X114523810Y-145958152D02*
X114666667Y-145958152D01*
X114666667Y-145958152D02*
X114761905Y-146005771D01*
X114761905Y-146005771D02*
X114809524Y-146101009D01*
X114809524Y-146101009D02*
X114809524Y-146624819D01*
X114809524Y-146101009D02*
X114857143Y-146005771D01*
X114857143Y-146005771D02*
X114952381Y-145958152D01*
X114952381Y-145958152D02*
X115095238Y-145958152D01*
X115095238Y-145958152D02*
X115190477Y-146005771D01*
X115190477Y-146005771D02*
X115238096Y-146101009D01*
X115238096Y-146101009D02*
X115238096Y-146624819D01*
X115714286Y-146624819D02*
X115714286Y-145958152D01*
X115714286Y-146053390D02*
X115761905Y-146005771D01*
X115761905Y-146005771D02*
X115857143Y-145958152D01*
X115857143Y-145958152D02*
X116000000Y-145958152D01*
X116000000Y-145958152D02*
X116095238Y-146005771D01*
X116095238Y-146005771D02*
X116142857Y-146101009D01*
X116142857Y-146101009D02*
X116142857Y-146624819D01*
X116142857Y-146101009D02*
X116190476Y-146005771D01*
X116190476Y-146005771D02*
X116285714Y-145958152D01*
X116285714Y-145958152D02*
X116428571Y-145958152D01*
X116428571Y-145958152D02*
X116523810Y-146005771D01*
X116523810Y-146005771D02*
X116571429Y-146101009D01*
X116571429Y-146101009D02*
X116571429Y-146624819D01*
X125000000Y-76500000D02*
X125000000Y-147906420D01*
X99000000Y-147906420D02*
X99000000Y-131500000D01*
X125000000Y-147320000D02*
X99000000Y-147320000D01*
X125000000Y-147320000D02*
X99000000Y-147320000D01*
X125000000Y-147320000D02*
X123873496Y-147906421D01*
X125000000Y-147320000D02*
X123873496Y-146733579D01*
X99000000Y-147320000D02*
X100126504Y-146733579D01*
X99000000Y-147320000D02*
X100126504Y-147906421D01*
X159594819Y-107595237D02*
X159594819Y-108071427D01*
X159594819Y-108071427D02*
X160071009Y-108119046D01*
X160071009Y-108119046D02*
X160023390Y-108071427D01*
X160023390Y-108071427D02*
X159975771Y-107976189D01*
X159975771Y-107976189D02*
X159975771Y-107738094D01*
X159975771Y-107738094D02*
X160023390Y-107642856D01*
X160023390Y-107642856D02*
X160071009Y-107595237D01*
X160071009Y-107595237D02*
X160166247Y-107547618D01*
X160166247Y-107547618D02*
X160404342Y-107547618D01*
X160404342Y-107547618D02*
X160499580Y-107595237D01*
X160499580Y-107595237D02*
X160547200Y-107642856D01*
X160547200Y-107642856D02*
X160594819Y-107738094D01*
X160594819Y-107738094D02*
X160594819Y-107976189D01*
X160594819Y-107976189D02*
X160547200Y-108071427D01*
X160547200Y-108071427D02*
X160499580Y-108119046D01*
X159594819Y-106642856D02*
X159594819Y-107119046D01*
X159594819Y-107119046D02*
X160071009Y-107166665D01*
X160071009Y-107166665D02*
X160023390Y-107119046D01*
X160023390Y-107119046D02*
X159975771Y-107023808D01*
X159975771Y-107023808D02*
X159975771Y-106785713D01*
X159975771Y-106785713D02*
X160023390Y-106690475D01*
X160023390Y-106690475D02*
X160071009Y-106642856D01*
X160071009Y-106642856D02*
X160166247Y-106595237D01*
X160166247Y-106595237D02*
X160404342Y-106595237D01*
X160404342Y-106595237D02*
X160499580Y-106642856D01*
X160499580Y-106642856D02*
X160547200Y-106690475D01*
X160547200Y-106690475D02*
X160594819Y-106785713D01*
X160594819Y-106785713D02*
X160594819Y-107023808D01*
X160594819Y-107023808D02*
X160547200Y-107119046D01*
X160547200Y-107119046D02*
X160499580Y-107166665D01*
X160499580Y-106166665D02*
X160547200Y-106119046D01*
X160547200Y-106119046D02*
X160594819Y-106166665D01*
X160594819Y-106166665D02*
X160547200Y-106214284D01*
X160547200Y-106214284D02*
X160499580Y-106166665D01*
X160499580Y-106166665D02*
X160594819Y-106166665D01*
X159594819Y-105499999D02*
X159594819Y-105404761D01*
X159594819Y-105404761D02*
X159642438Y-105309523D01*
X159642438Y-105309523D02*
X159690057Y-105261904D01*
X159690057Y-105261904D02*
X159785295Y-105214285D01*
X159785295Y-105214285D02*
X159975771Y-105166666D01*
X159975771Y-105166666D02*
X160213866Y-105166666D01*
X160213866Y-105166666D02*
X160404342Y-105214285D01*
X160404342Y-105214285D02*
X160499580Y-105261904D01*
X160499580Y-105261904D02*
X160547200Y-105309523D01*
X160547200Y-105309523D02*
X160594819Y-105404761D01*
X160594819Y-105404761D02*
X160594819Y-105499999D01*
X160594819Y-105499999D02*
X160547200Y-105595237D01*
X160547200Y-105595237D02*
X160499580Y-105642856D01*
X160499580Y-105642856D02*
X160404342Y-105690475D01*
X160404342Y-105690475D02*
X160213866Y-105738094D01*
X160213866Y-105738094D02*
X159975771Y-105738094D01*
X159975771Y-105738094D02*
X159785295Y-105690475D01*
X159785295Y-105690475D02*
X159690057Y-105642856D01*
X159690057Y-105642856D02*
X159642438Y-105595237D01*
X159642438Y-105595237D02*
X159594819Y-105499999D01*
X159594819Y-104547618D02*
X159594819Y-104452380D01*
X159594819Y-104452380D02*
X159642438Y-104357142D01*
X159642438Y-104357142D02*
X159690057Y-104309523D01*
X159690057Y-104309523D02*
X159785295Y-104261904D01*
X159785295Y-104261904D02*
X159975771Y-104214285D01*
X159975771Y-104214285D02*
X160213866Y-104214285D01*
X160213866Y-104214285D02*
X160404342Y-104261904D01*
X160404342Y-104261904D02*
X160499580Y-104309523D01*
X160499580Y-104309523D02*
X160547200Y-104357142D01*
X160547200Y-104357142D02*
X160594819Y-104452380D01*
X160594819Y-104452380D02*
X160594819Y-104547618D01*
X160594819Y-104547618D02*
X160547200Y-104642856D01*
X160547200Y-104642856D02*
X160499580Y-104690475D01*
X160499580Y-104690475D02*
X160404342Y-104738094D01*
X160404342Y-104738094D02*
X160213866Y-104785713D01*
X160213866Y-104785713D02*
X159975771Y-104785713D01*
X159975771Y-104785713D02*
X159785295Y-104738094D01*
X159785295Y-104738094D02*
X159690057Y-104690475D01*
X159690057Y-104690475D02*
X159642438Y-104642856D01*
X159642438Y-104642856D02*
X159594819Y-104547618D01*
X159594819Y-103595237D02*
X159594819Y-103499999D01*
X159594819Y-103499999D02*
X159642438Y-103404761D01*
X159642438Y-103404761D02*
X159690057Y-103357142D01*
X159690057Y-103357142D02*
X159785295Y-103309523D01*
X159785295Y-103309523D02*
X159975771Y-103261904D01*
X159975771Y-103261904D02*
X160213866Y-103261904D01*
X160213866Y-103261904D02*
X160404342Y-103309523D01*
X160404342Y-103309523D02*
X160499580Y-103357142D01*
X160499580Y-103357142D02*
X160547200Y-103404761D01*
X160547200Y-103404761D02*
X160594819Y-103499999D01*
X160594819Y-103499999D02*
X160594819Y-103595237D01*
X160594819Y-103595237D02*
X160547200Y-103690475D01*
X160547200Y-103690475D02*
X160499580Y-103738094D01*
X160499580Y-103738094D02*
X160404342Y-103785713D01*
X160404342Y-103785713D02*
X160213866Y-103833332D01*
X160213866Y-103833332D02*
X159975771Y-103833332D01*
X159975771Y-103833332D02*
X159785295Y-103785713D01*
X159785295Y-103785713D02*
X159690057Y-103738094D01*
X159690057Y-103738094D02*
X159642438Y-103690475D01*
X159642438Y-103690475D02*
X159594819Y-103595237D01*
X159594819Y-102642856D02*
X159594819Y-102547618D01*
X159594819Y-102547618D02*
X159642438Y-102452380D01*
X159642438Y-102452380D02*
X159690057Y-102404761D01*
X159690057Y-102404761D02*
X159785295Y-102357142D01*
X159785295Y-102357142D02*
X159975771Y-102309523D01*
X159975771Y-102309523D02*
X160213866Y-102309523D01*
X160213866Y-102309523D02*
X160404342Y-102357142D01*
X160404342Y-102357142D02*
X160499580Y-102404761D01*
X160499580Y-102404761D02*
X160547200Y-102452380D01*
X160547200Y-102452380D02*
X160594819Y-102547618D01*
X160594819Y-102547618D02*
X160594819Y-102642856D01*
X160594819Y-102642856D02*
X160547200Y-102738094D01*
X160547200Y-102738094D02*
X160499580Y-102785713D01*
X160499580Y-102785713D02*
X160404342Y-102833332D01*
X160404342Y-102833332D02*
X160213866Y-102880951D01*
X160213866Y-102880951D02*
X159975771Y-102880951D01*
X159975771Y-102880951D02*
X159785295Y-102833332D01*
X159785295Y-102833332D02*
X159690057Y-102785713D01*
X159690057Y-102785713D02*
X159642438Y-102738094D01*
X159642438Y-102738094D02*
X159594819Y-102642856D01*
X160594819Y-101119046D02*
X159928152Y-101119046D01*
X160023390Y-101119046D02*
X159975771Y-101071427D01*
X159975771Y-101071427D02*
X159928152Y-100976189D01*
X159928152Y-100976189D02*
X159928152Y-100833332D01*
X159928152Y-100833332D02*
X159975771Y-100738094D01*
X159975771Y-100738094D02*
X160071009Y-100690475D01*
X160071009Y-100690475D02*
X160594819Y-100690475D01*
X160071009Y-100690475D02*
X159975771Y-100642856D01*
X159975771Y-100642856D02*
X159928152Y-100547618D01*
X159928152Y-100547618D02*
X159928152Y-100404761D01*
X159928152Y-100404761D02*
X159975771Y-100309522D01*
X159975771Y-100309522D02*
X160071009Y-100261903D01*
X160071009Y-100261903D02*
X160594819Y-100261903D01*
X160594819Y-99785713D02*
X159928152Y-99785713D01*
X160023390Y-99785713D02*
X159975771Y-99738094D01*
X159975771Y-99738094D02*
X159928152Y-99642856D01*
X159928152Y-99642856D02*
X159928152Y-99499999D01*
X159928152Y-99499999D02*
X159975771Y-99404761D01*
X159975771Y-99404761D02*
X160071009Y-99357142D01*
X160071009Y-99357142D02*
X160594819Y-99357142D01*
X160071009Y-99357142D02*
X159975771Y-99309523D01*
X159975771Y-99309523D02*
X159928152Y-99214285D01*
X159928152Y-99214285D02*
X159928152Y-99071428D01*
X159928152Y-99071428D02*
X159975771Y-98976189D01*
X159975771Y-98976189D02*
X160071009Y-98928570D01*
X160071009Y-98928570D02*
X160594819Y-98928570D01*
X99500000Y-131000000D02*
X161876420Y-131000000D01*
X161876420Y-76000000D02*
X125500000Y-76000000D01*
X161290000Y-131000000D02*
X161290000Y-76000000D01*
X161290000Y-131000000D02*
X161290000Y-76000000D01*
X161290000Y-131000000D02*
X160703579Y-129873496D01*
X161290000Y-131000000D02*
X161876421Y-129873496D01*
X161290000Y-76000000D02*
X161876421Y-77126504D01*
X161290000Y-76000000D02*
X160703579Y-77126504D01*
X75333334Y-145624819D02*
X75952381Y-145624819D01*
X75952381Y-145624819D02*
X75619048Y-146005771D01*
X75619048Y-146005771D02*
X75761905Y-146005771D01*
X75761905Y-146005771D02*
X75857143Y-146053390D01*
X75857143Y-146053390D02*
X75904762Y-146101009D01*
X75904762Y-146101009D02*
X75952381Y-146196247D01*
X75952381Y-146196247D02*
X75952381Y-146434342D01*
X75952381Y-146434342D02*
X75904762Y-146529580D01*
X75904762Y-146529580D02*
X75857143Y-146577200D01*
X75857143Y-146577200D02*
X75761905Y-146624819D01*
X75761905Y-146624819D02*
X75476191Y-146624819D01*
X75476191Y-146624819D02*
X75380953Y-146577200D01*
X75380953Y-146577200D02*
X75333334Y-146529580D01*
X76523810Y-146053390D02*
X76428572Y-146005771D01*
X76428572Y-146005771D02*
X76380953Y-145958152D01*
X76380953Y-145958152D02*
X76333334Y-145862914D01*
X76333334Y-145862914D02*
X76333334Y-145815295D01*
X76333334Y-145815295D02*
X76380953Y-145720057D01*
X76380953Y-145720057D02*
X76428572Y-145672438D01*
X76428572Y-145672438D02*
X76523810Y-145624819D01*
X76523810Y-145624819D02*
X76714286Y-145624819D01*
X76714286Y-145624819D02*
X76809524Y-145672438D01*
X76809524Y-145672438D02*
X76857143Y-145720057D01*
X76857143Y-145720057D02*
X76904762Y-145815295D01*
X76904762Y-145815295D02*
X76904762Y-145862914D01*
X76904762Y-145862914D02*
X76857143Y-145958152D01*
X76857143Y-145958152D02*
X76809524Y-146005771D01*
X76809524Y-146005771D02*
X76714286Y-146053390D01*
X76714286Y-146053390D02*
X76523810Y-146053390D01*
X76523810Y-146053390D02*
X76428572Y-146101009D01*
X76428572Y-146101009D02*
X76380953Y-146148628D01*
X76380953Y-146148628D02*
X76333334Y-146243866D01*
X76333334Y-146243866D02*
X76333334Y-146434342D01*
X76333334Y-146434342D02*
X76380953Y-146529580D01*
X76380953Y-146529580D02*
X76428572Y-146577200D01*
X76428572Y-146577200D02*
X76523810Y-146624819D01*
X76523810Y-146624819D02*
X76714286Y-146624819D01*
X76714286Y-146624819D02*
X76809524Y-146577200D01*
X76809524Y-146577200D02*
X76857143Y-146529580D01*
X76857143Y-146529580D02*
X76904762Y-146434342D01*
X76904762Y-146434342D02*
X76904762Y-146243866D01*
X76904762Y-146243866D02*
X76857143Y-146148628D01*
X76857143Y-146148628D02*
X76809524Y-146101009D01*
X76809524Y-146101009D02*
X76714286Y-146053390D01*
X77333334Y-146529580D02*
X77380953Y-146577200D01*
X77380953Y-146577200D02*
X77333334Y-146624819D01*
X77333334Y-146624819D02*
X77285715Y-146577200D01*
X77285715Y-146577200D02*
X77333334Y-146529580D01*
X77333334Y-146529580D02*
X77333334Y-146624819D01*
X78000000Y-145624819D02*
X78095238Y-145624819D01*
X78095238Y-145624819D02*
X78190476Y-145672438D01*
X78190476Y-145672438D02*
X78238095Y-145720057D01*
X78238095Y-145720057D02*
X78285714Y-145815295D01*
X78285714Y-145815295D02*
X78333333Y-146005771D01*
X78333333Y-146005771D02*
X78333333Y-146243866D01*
X78333333Y-146243866D02*
X78285714Y-146434342D01*
X78285714Y-146434342D02*
X78238095Y-146529580D01*
X78238095Y-146529580D02*
X78190476Y-146577200D01*
X78190476Y-146577200D02*
X78095238Y-146624819D01*
X78095238Y-146624819D02*
X78000000Y-146624819D01*
X78000000Y-146624819D02*
X77904762Y-146577200D01*
X77904762Y-146577200D02*
X77857143Y-146529580D01*
X77857143Y-146529580D02*
X77809524Y-146434342D01*
X77809524Y-146434342D02*
X77761905Y-146243866D01*
X77761905Y-146243866D02*
X77761905Y-146005771D01*
X77761905Y-146005771D02*
X77809524Y-145815295D01*
X77809524Y-145815295D02*
X77857143Y-145720057D01*
X77857143Y-145720057D02*
X77904762Y-145672438D01*
X77904762Y-145672438D02*
X78000000Y-145624819D01*
X78952381Y-145624819D02*
X79047619Y-145624819D01*
X79047619Y-145624819D02*
X79142857Y-145672438D01*
X79142857Y-145672438D02*
X79190476Y-145720057D01*
X79190476Y-145720057D02*
X79238095Y-145815295D01*
X79238095Y-145815295D02*
X79285714Y-146005771D01*
X79285714Y-146005771D02*
X79285714Y-146243866D01*
X79285714Y-146243866D02*
X79238095Y-146434342D01*
X79238095Y-146434342D02*
X79190476Y-146529580D01*
X79190476Y-146529580D02*
X79142857Y-146577200D01*
X79142857Y-146577200D02*
X79047619Y-146624819D01*
X79047619Y-146624819D02*
X78952381Y-146624819D01*
X78952381Y-146624819D02*
X78857143Y-146577200D01*
X78857143Y-146577200D02*
X78809524Y-146529580D01*
X78809524Y-146529580D02*
X78761905Y-146434342D01*
X78761905Y-146434342D02*
X78714286Y-146243866D01*
X78714286Y-146243866D02*
X78714286Y-146005771D01*
X78714286Y-146005771D02*
X78761905Y-145815295D01*
X78761905Y-145815295D02*
X78809524Y-145720057D01*
X78809524Y-145720057D02*
X78857143Y-145672438D01*
X78857143Y-145672438D02*
X78952381Y-145624819D01*
X79904762Y-145624819D02*
X80000000Y-145624819D01*
X80000000Y-145624819D02*
X80095238Y-145672438D01*
X80095238Y-145672438D02*
X80142857Y-145720057D01*
X80142857Y-145720057D02*
X80190476Y-145815295D01*
X80190476Y-145815295D02*
X80238095Y-146005771D01*
X80238095Y-146005771D02*
X80238095Y-146243866D01*
X80238095Y-146243866D02*
X80190476Y-146434342D01*
X80190476Y-146434342D02*
X80142857Y-146529580D01*
X80142857Y-146529580D02*
X80095238Y-146577200D01*
X80095238Y-146577200D02*
X80000000Y-146624819D01*
X80000000Y-146624819D02*
X79904762Y-146624819D01*
X79904762Y-146624819D02*
X79809524Y-146577200D01*
X79809524Y-146577200D02*
X79761905Y-146529580D01*
X79761905Y-146529580D02*
X79714286Y-146434342D01*
X79714286Y-146434342D02*
X79666667Y-146243866D01*
X79666667Y-146243866D02*
X79666667Y-146005771D01*
X79666667Y-146005771D02*
X79714286Y-145815295D01*
X79714286Y-145815295D02*
X79761905Y-145720057D01*
X79761905Y-145720057D02*
X79809524Y-145672438D01*
X79809524Y-145672438D02*
X79904762Y-145624819D01*
X80857143Y-145624819D02*
X80952381Y-145624819D01*
X80952381Y-145624819D02*
X81047619Y-145672438D01*
X81047619Y-145672438D02*
X81095238Y-145720057D01*
X81095238Y-145720057D02*
X81142857Y-145815295D01*
X81142857Y-145815295D02*
X81190476Y-146005771D01*
X81190476Y-146005771D02*
X81190476Y-146243866D01*
X81190476Y-146243866D02*
X81142857Y-146434342D01*
X81142857Y-146434342D02*
X81095238Y-146529580D01*
X81095238Y-146529580D02*
X81047619Y-146577200D01*
X81047619Y-146577200D02*
X80952381Y-146624819D01*
X80952381Y-146624819D02*
X80857143Y-146624819D01*
X80857143Y-146624819D02*
X80761905Y-146577200D01*
X80761905Y-146577200D02*
X80714286Y-146529580D01*
X80714286Y-146529580D02*
X80666667Y-146434342D01*
X80666667Y-146434342D02*
X80619048Y-146243866D01*
X80619048Y-146243866D02*
X80619048Y-146005771D01*
X80619048Y-146005771D02*
X80666667Y-145815295D01*
X80666667Y-145815295D02*
X80714286Y-145720057D01*
X80714286Y-145720057D02*
X80761905Y-145672438D01*
X80761905Y-145672438D02*
X80857143Y-145624819D01*
X82380953Y-146624819D02*
X82380953Y-145958152D01*
X82380953Y-146053390D02*
X82428572Y-146005771D01*
X82428572Y-146005771D02*
X82523810Y-145958152D01*
X82523810Y-145958152D02*
X82666667Y-145958152D01*
X82666667Y-145958152D02*
X82761905Y-146005771D01*
X82761905Y-146005771D02*
X82809524Y-146101009D01*
X82809524Y-146101009D02*
X82809524Y-146624819D01*
X82809524Y-146101009D02*
X82857143Y-146005771D01*
X82857143Y-146005771D02*
X82952381Y-145958152D01*
X82952381Y-145958152D02*
X83095238Y-145958152D01*
X83095238Y-145958152D02*
X83190477Y-146005771D01*
X83190477Y-146005771D02*
X83238096Y-146101009D01*
X83238096Y-146101009D02*
X83238096Y-146624819D01*
X83714286Y-146624819D02*
X83714286Y-145958152D01*
X83714286Y-146053390D02*
X83761905Y-146005771D01*
X83761905Y-146005771D02*
X83857143Y-145958152D01*
X83857143Y-145958152D02*
X84000000Y-145958152D01*
X84000000Y-145958152D02*
X84095238Y-146005771D01*
X84095238Y-146005771D02*
X84142857Y-146101009D01*
X84142857Y-146101009D02*
X84142857Y-146624819D01*
X84142857Y-146101009D02*
X84190476Y-146005771D01*
X84190476Y-146005771D02*
X84285714Y-145958152D01*
X84285714Y-145958152D02*
X84428571Y-145958152D01*
X84428571Y-145958152D02*
X84523810Y-146005771D01*
X84523810Y-146005771D02*
X84571429Y-146101009D01*
X84571429Y-146101009D02*
X84571429Y-146624819D01*
X61000000Y-131500000D02*
X61000000Y-147906420D01*
X99000000Y-131500000D02*
X99000000Y-147906420D01*
X61000000Y-147320000D02*
X99000000Y-147320000D01*
X61000000Y-147320000D02*
X99000000Y-147320000D01*
X61000000Y-147320000D02*
X62126504Y-146733579D01*
X61000000Y-147320000D02*
X62126504Y-147906421D01*
X99000000Y-147320000D02*
X97873496Y-147906421D01*
X99000000Y-147320000D02*
X97873496Y-146733579D01*
X87333334Y-58629819D02*
X88000000Y-58629819D01*
X88000000Y-58629819D02*
X87571429Y-59629819D01*
X88523810Y-59058390D02*
X88428572Y-59010771D01*
X88428572Y-59010771D02*
X88380953Y-58963152D01*
X88380953Y-58963152D02*
X88333334Y-58867914D01*
X88333334Y-58867914D02*
X88333334Y-58820295D01*
X88333334Y-58820295D02*
X88380953Y-58725057D01*
X88380953Y-58725057D02*
X88428572Y-58677438D01*
X88428572Y-58677438D02*
X88523810Y-58629819D01*
X88523810Y-58629819D02*
X88714286Y-58629819D01*
X88714286Y-58629819D02*
X88809524Y-58677438D01*
X88809524Y-58677438D02*
X88857143Y-58725057D01*
X88857143Y-58725057D02*
X88904762Y-58820295D01*
X88904762Y-58820295D02*
X88904762Y-58867914D01*
X88904762Y-58867914D02*
X88857143Y-58963152D01*
X88857143Y-58963152D02*
X88809524Y-59010771D01*
X88809524Y-59010771D02*
X88714286Y-59058390D01*
X88714286Y-59058390D02*
X88523810Y-59058390D01*
X88523810Y-59058390D02*
X88428572Y-59106009D01*
X88428572Y-59106009D02*
X88380953Y-59153628D01*
X88380953Y-59153628D02*
X88333334Y-59248866D01*
X88333334Y-59248866D02*
X88333334Y-59439342D01*
X88333334Y-59439342D02*
X88380953Y-59534580D01*
X88380953Y-59534580D02*
X88428572Y-59582200D01*
X88428572Y-59582200D02*
X88523810Y-59629819D01*
X88523810Y-59629819D02*
X88714286Y-59629819D01*
X88714286Y-59629819D02*
X88809524Y-59582200D01*
X88809524Y-59582200D02*
X88857143Y-59534580D01*
X88857143Y-59534580D02*
X88904762Y-59439342D01*
X88904762Y-59439342D02*
X88904762Y-59248866D01*
X88904762Y-59248866D02*
X88857143Y-59153628D01*
X88857143Y-59153628D02*
X88809524Y-59106009D01*
X88809524Y-59106009D02*
X88714286Y-59058390D01*
X89333334Y-59534580D02*
X89380953Y-59582200D01*
X89380953Y-59582200D02*
X89333334Y-59629819D01*
X89333334Y-59629819D02*
X89285715Y-59582200D01*
X89285715Y-59582200D02*
X89333334Y-59534580D01*
X89333334Y-59534580D02*
X89333334Y-59629819D01*
X90000000Y-58629819D02*
X90095238Y-58629819D01*
X90095238Y-58629819D02*
X90190476Y-58677438D01*
X90190476Y-58677438D02*
X90238095Y-58725057D01*
X90238095Y-58725057D02*
X90285714Y-58820295D01*
X90285714Y-58820295D02*
X90333333Y-59010771D01*
X90333333Y-59010771D02*
X90333333Y-59248866D01*
X90333333Y-59248866D02*
X90285714Y-59439342D01*
X90285714Y-59439342D02*
X90238095Y-59534580D01*
X90238095Y-59534580D02*
X90190476Y-59582200D01*
X90190476Y-59582200D02*
X90095238Y-59629819D01*
X90095238Y-59629819D02*
X90000000Y-59629819D01*
X90000000Y-59629819D02*
X89904762Y-59582200D01*
X89904762Y-59582200D02*
X89857143Y-59534580D01*
X89857143Y-59534580D02*
X89809524Y-59439342D01*
X89809524Y-59439342D02*
X89761905Y-59248866D01*
X89761905Y-59248866D02*
X89761905Y-59010771D01*
X89761905Y-59010771D02*
X89809524Y-58820295D01*
X89809524Y-58820295D02*
X89857143Y-58725057D01*
X89857143Y-58725057D02*
X89904762Y-58677438D01*
X89904762Y-58677438D02*
X90000000Y-58629819D01*
X90952381Y-58629819D02*
X91047619Y-58629819D01*
X91047619Y-58629819D02*
X91142857Y-58677438D01*
X91142857Y-58677438D02*
X91190476Y-58725057D01*
X91190476Y-58725057D02*
X91238095Y-58820295D01*
X91238095Y-58820295D02*
X91285714Y-59010771D01*
X91285714Y-59010771D02*
X91285714Y-59248866D01*
X91285714Y-59248866D02*
X91238095Y-59439342D01*
X91238095Y-59439342D02*
X91190476Y-59534580D01*
X91190476Y-59534580D02*
X91142857Y-59582200D01*
X91142857Y-59582200D02*
X91047619Y-59629819D01*
X91047619Y-59629819D02*
X90952381Y-59629819D01*
X90952381Y-59629819D02*
X90857143Y-59582200D01*
X90857143Y-59582200D02*
X90809524Y-59534580D01*
X90809524Y-59534580D02*
X90761905Y-59439342D01*
X90761905Y-59439342D02*
X90714286Y-59248866D01*
X90714286Y-59248866D02*
X90714286Y-59010771D01*
X90714286Y-59010771D02*
X90761905Y-58820295D01*
X90761905Y-58820295D02*
X90809524Y-58725057D01*
X90809524Y-58725057D02*
X90857143Y-58677438D01*
X90857143Y-58677438D02*
X90952381Y-58629819D01*
X91904762Y-58629819D02*
X92000000Y-58629819D01*
X92000000Y-58629819D02*
X92095238Y-58677438D01*
X92095238Y-58677438D02*
X92142857Y-58725057D01*
X92142857Y-58725057D02*
X92190476Y-58820295D01*
X92190476Y-58820295D02*
X92238095Y-59010771D01*
X92238095Y-59010771D02*
X92238095Y-59248866D01*
X92238095Y-59248866D02*
X92190476Y-59439342D01*
X92190476Y-59439342D02*
X92142857Y-59534580D01*
X92142857Y-59534580D02*
X92095238Y-59582200D01*
X92095238Y-59582200D02*
X92000000Y-59629819D01*
X92000000Y-59629819D02*
X91904762Y-59629819D01*
X91904762Y-59629819D02*
X91809524Y-59582200D01*
X91809524Y-59582200D02*
X91761905Y-59534580D01*
X91761905Y-59534580D02*
X91714286Y-59439342D01*
X91714286Y-59439342D02*
X91666667Y-59248866D01*
X91666667Y-59248866D02*
X91666667Y-59010771D01*
X91666667Y-59010771D02*
X91714286Y-58820295D01*
X91714286Y-58820295D02*
X91761905Y-58725057D01*
X91761905Y-58725057D02*
X91809524Y-58677438D01*
X91809524Y-58677438D02*
X91904762Y-58629819D01*
X92857143Y-58629819D02*
X92952381Y-58629819D01*
X92952381Y-58629819D02*
X93047619Y-58677438D01*
X93047619Y-58677438D02*
X93095238Y-58725057D01*
X93095238Y-58725057D02*
X93142857Y-58820295D01*
X93142857Y-58820295D02*
X93190476Y-59010771D01*
X93190476Y-59010771D02*
X93190476Y-59248866D01*
X93190476Y-59248866D02*
X93142857Y-59439342D01*
X93142857Y-59439342D02*
X93095238Y-59534580D01*
X93095238Y-59534580D02*
X93047619Y-59582200D01*
X93047619Y-59582200D02*
X92952381Y-59629819D01*
X92952381Y-59629819D02*
X92857143Y-59629819D01*
X92857143Y-59629819D02*
X92761905Y-59582200D01*
X92761905Y-59582200D02*
X92714286Y-59534580D01*
X92714286Y-59534580D02*
X92666667Y-59439342D01*
X92666667Y-59439342D02*
X92619048Y-59248866D01*
X92619048Y-59248866D02*
X92619048Y-59010771D01*
X92619048Y-59010771D02*
X92666667Y-58820295D01*
X92666667Y-58820295D02*
X92714286Y-58725057D01*
X92714286Y-58725057D02*
X92761905Y-58677438D01*
X92761905Y-58677438D02*
X92857143Y-58629819D01*
X94380953Y-59629819D02*
X94380953Y-58963152D01*
X94380953Y-59058390D02*
X94428572Y-59010771D01*
X94428572Y-59010771D02*
X94523810Y-58963152D01*
X94523810Y-58963152D02*
X94666667Y-58963152D01*
X94666667Y-58963152D02*
X94761905Y-59010771D01*
X94761905Y-59010771D02*
X94809524Y-59106009D01*
X94809524Y-59106009D02*
X94809524Y-59629819D01*
X94809524Y-59106009D02*
X94857143Y-59010771D01*
X94857143Y-59010771D02*
X94952381Y-58963152D01*
X94952381Y-58963152D02*
X95095238Y-58963152D01*
X95095238Y-58963152D02*
X95190477Y-59010771D01*
X95190477Y-59010771D02*
X95238096Y-59106009D01*
X95238096Y-59106009D02*
X95238096Y-59629819D01*
X95714286Y-59629819D02*
X95714286Y-58963152D01*
X95714286Y-59058390D02*
X95761905Y-59010771D01*
X95761905Y-59010771D02*
X95857143Y-58963152D01*
X95857143Y-58963152D02*
X96000000Y-58963152D01*
X96000000Y-58963152D02*
X96095238Y-59010771D01*
X96095238Y-59010771D02*
X96142857Y-59106009D01*
X96142857Y-59106009D02*
X96142857Y-59629819D01*
X96142857Y-59106009D02*
X96190476Y-59010771D01*
X96190476Y-59010771D02*
X96285714Y-58963152D01*
X96285714Y-58963152D02*
X96428571Y-58963152D01*
X96428571Y-58963152D02*
X96523810Y-59010771D01*
X96523810Y-59010771D02*
X96571429Y-59106009D01*
X96571429Y-59106009D02*
X96571429Y-59629819D01*
X53000000Y-69500000D02*
X53000000Y-59738580D01*
X131000000Y-69500000D02*
X131000000Y-59738580D01*
X53000000Y-60325000D02*
X131000000Y-60325000D01*
X53000000Y-60325000D02*
X131000000Y-60325000D01*
X53000000Y-60325000D02*
X54126504Y-59738579D01*
X53000000Y-60325000D02*
X54126504Y-60911421D01*
X131000000Y-60325000D02*
X129873496Y-60911421D01*
X131000000Y-60325000D02*
X129873496Y-59738579D01*
X35769819Y-107642856D02*
X35769819Y-107833332D01*
X35769819Y-107833332D02*
X35817438Y-107928570D01*
X35817438Y-107928570D02*
X35865057Y-107976189D01*
X35865057Y-107976189D02*
X36007914Y-108071427D01*
X36007914Y-108071427D02*
X36198390Y-108119046D01*
X36198390Y-108119046D02*
X36579342Y-108119046D01*
X36579342Y-108119046D02*
X36674580Y-108071427D01*
X36674580Y-108071427D02*
X36722200Y-108023808D01*
X36722200Y-108023808D02*
X36769819Y-107928570D01*
X36769819Y-107928570D02*
X36769819Y-107738094D01*
X36769819Y-107738094D02*
X36722200Y-107642856D01*
X36722200Y-107642856D02*
X36674580Y-107595237D01*
X36674580Y-107595237D02*
X36579342Y-107547618D01*
X36579342Y-107547618D02*
X36341247Y-107547618D01*
X36341247Y-107547618D02*
X36246009Y-107595237D01*
X36246009Y-107595237D02*
X36198390Y-107642856D01*
X36198390Y-107642856D02*
X36150771Y-107738094D01*
X36150771Y-107738094D02*
X36150771Y-107928570D01*
X36150771Y-107928570D02*
X36198390Y-108023808D01*
X36198390Y-108023808D02*
X36246009Y-108071427D01*
X36246009Y-108071427D02*
X36341247Y-108119046D01*
X35769819Y-107214284D02*
X35769819Y-106547618D01*
X35769819Y-106547618D02*
X36769819Y-106976189D01*
X36674580Y-106166665D02*
X36722200Y-106119046D01*
X36722200Y-106119046D02*
X36769819Y-106166665D01*
X36769819Y-106166665D02*
X36722200Y-106214284D01*
X36722200Y-106214284D02*
X36674580Y-106166665D01*
X36674580Y-106166665D02*
X36769819Y-106166665D01*
X35769819Y-105499999D02*
X35769819Y-105404761D01*
X35769819Y-105404761D02*
X35817438Y-105309523D01*
X35817438Y-105309523D02*
X35865057Y-105261904D01*
X35865057Y-105261904D02*
X35960295Y-105214285D01*
X35960295Y-105214285D02*
X36150771Y-105166666D01*
X36150771Y-105166666D02*
X36388866Y-105166666D01*
X36388866Y-105166666D02*
X36579342Y-105214285D01*
X36579342Y-105214285D02*
X36674580Y-105261904D01*
X36674580Y-105261904D02*
X36722200Y-105309523D01*
X36722200Y-105309523D02*
X36769819Y-105404761D01*
X36769819Y-105404761D02*
X36769819Y-105499999D01*
X36769819Y-105499999D02*
X36722200Y-105595237D01*
X36722200Y-105595237D02*
X36674580Y-105642856D01*
X36674580Y-105642856D02*
X36579342Y-105690475D01*
X36579342Y-105690475D02*
X36388866Y-105738094D01*
X36388866Y-105738094D02*
X36150771Y-105738094D01*
X36150771Y-105738094D02*
X35960295Y-105690475D01*
X35960295Y-105690475D02*
X35865057Y-105642856D01*
X35865057Y-105642856D02*
X35817438Y-105595237D01*
X35817438Y-105595237D02*
X35769819Y-105499999D01*
X35769819Y-104547618D02*
X35769819Y-104452380D01*
X35769819Y-104452380D02*
X35817438Y-104357142D01*
X35817438Y-104357142D02*
X35865057Y-104309523D01*
X35865057Y-104309523D02*
X35960295Y-104261904D01*
X35960295Y-104261904D02*
X36150771Y-104214285D01*
X36150771Y-104214285D02*
X36388866Y-104214285D01*
X36388866Y-104214285D02*
X36579342Y-104261904D01*
X36579342Y-104261904D02*
X36674580Y-104309523D01*
X36674580Y-104309523D02*
X36722200Y-104357142D01*
X36722200Y-104357142D02*
X36769819Y-104452380D01*
X36769819Y-104452380D02*
X36769819Y-104547618D01*
X36769819Y-104547618D02*
X36722200Y-104642856D01*
X36722200Y-104642856D02*
X36674580Y-104690475D01*
X36674580Y-104690475D02*
X36579342Y-104738094D01*
X36579342Y-104738094D02*
X36388866Y-104785713D01*
X36388866Y-104785713D02*
X36150771Y-104785713D01*
X36150771Y-104785713D02*
X35960295Y-104738094D01*
X35960295Y-104738094D02*
X35865057Y-104690475D01*
X35865057Y-104690475D02*
X35817438Y-104642856D01*
X35817438Y-104642856D02*
X35769819Y-104547618D01*
X35769819Y-103595237D02*
X35769819Y-103499999D01*
X35769819Y-103499999D02*
X35817438Y-103404761D01*
X35817438Y-103404761D02*
X35865057Y-103357142D01*
X35865057Y-103357142D02*
X35960295Y-103309523D01*
X35960295Y-103309523D02*
X36150771Y-103261904D01*
X36150771Y-103261904D02*
X36388866Y-103261904D01*
X36388866Y-103261904D02*
X36579342Y-103309523D01*
X36579342Y-103309523D02*
X36674580Y-103357142D01*
X36674580Y-103357142D02*
X36722200Y-103404761D01*
X36722200Y-103404761D02*
X36769819Y-103499999D01*
X36769819Y-103499999D02*
X36769819Y-103595237D01*
X36769819Y-103595237D02*
X36722200Y-103690475D01*
X36722200Y-103690475D02*
X36674580Y-103738094D01*
X36674580Y-103738094D02*
X36579342Y-103785713D01*
X36579342Y-103785713D02*
X36388866Y-103833332D01*
X36388866Y-103833332D02*
X36150771Y-103833332D01*
X36150771Y-103833332D02*
X35960295Y-103785713D01*
X35960295Y-103785713D02*
X35865057Y-103738094D01*
X35865057Y-103738094D02*
X35817438Y-103690475D01*
X35817438Y-103690475D02*
X35769819Y-103595237D01*
X35769819Y-102642856D02*
X35769819Y-102547618D01*
X35769819Y-102547618D02*
X35817438Y-102452380D01*
X35817438Y-102452380D02*
X35865057Y-102404761D01*
X35865057Y-102404761D02*
X35960295Y-102357142D01*
X35960295Y-102357142D02*
X36150771Y-102309523D01*
X36150771Y-102309523D02*
X36388866Y-102309523D01*
X36388866Y-102309523D02*
X36579342Y-102357142D01*
X36579342Y-102357142D02*
X36674580Y-102404761D01*
X36674580Y-102404761D02*
X36722200Y-102452380D01*
X36722200Y-102452380D02*
X36769819Y-102547618D01*
X36769819Y-102547618D02*
X36769819Y-102642856D01*
X36769819Y-102642856D02*
X36722200Y-102738094D01*
X36722200Y-102738094D02*
X36674580Y-102785713D01*
X36674580Y-102785713D02*
X36579342Y-102833332D01*
X36579342Y-102833332D02*
X36388866Y-102880951D01*
X36388866Y-102880951D02*
X36150771Y-102880951D01*
X36150771Y-102880951D02*
X35960295Y-102833332D01*
X35960295Y-102833332D02*
X35865057Y-102785713D01*
X35865057Y-102785713D02*
X35817438Y-102738094D01*
X35817438Y-102738094D02*
X35769819Y-102642856D01*
X36769819Y-101119046D02*
X36103152Y-101119046D01*
X36198390Y-101119046D02*
X36150771Y-101071427D01*
X36150771Y-101071427D02*
X36103152Y-100976189D01*
X36103152Y-100976189D02*
X36103152Y-100833332D01*
X36103152Y-100833332D02*
X36150771Y-100738094D01*
X36150771Y-100738094D02*
X36246009Y-100690475D01*
X36246009Y-100690475D02*
X36769819Y-100690475D01*
X36246009Y-100690475D02*
X36150771Y-100642856D01*
X36150771Y-100642856D02*
X36103152Y-100547618D01*
X36103152Y-100547618D02*
X36103152Y-100404761D01*
X36103152Y-100404761D02*
X36150771Y-100309522D01*
X36150771Y-100309522D02*
X36246009Y-100261903D01*
X36246009Y-100261903D02*
X36769819Y-100261903D01*
X36769819Y-99785713D02*
X36103152Y-99785713D01*
X36198390Y-99785713D02*
X36150771Y-99738094D01*
X36150771Y-99738094D02*
X36103152Y-99642856D01*
X36103152Y-99642856D02*
X36103152Y-99499999D01*
X36103152Y-99499999D02*
X36150771Y-99404761D01*
X36150771Y-99404761D02*
X36246009Y-99357142D01*
X36246009Y-99357142D02*
X36769819Y-99357142D01*
X36246009Y-99357142D02*
X36150771Y-99309523D01*
X36150771Y-99309523D02*
X36103152Y-99214285D01*
X36103152Y-99214285D02*
X36103152Y-99071428D01*
X36103152Y-99071428D02*
X36150771Y-98976189D01*
X36150771Y-98976189D02*
X36246009Y-98928570D01*
X36246009Y-98928570D02*
X36769819Y-98928570D01*
X52500000Y-137000000D02*
X36878580Y-137000000D01*
X52500000Y-70000000D02*
X36878580Y-70000000D01*
X37465000Y-137000000D02*
X37465000Y-70000000D01*
X37465000Y-137000000D02*
X37465000Y-70000000D01*
X37465000Y-137000000D02*
X36878579Y-135873496D01*
X37465000Y-137000000D02*
X38051421Y-135873496D01*
X37465000Y-70000000D02*
X38051421Y-71126504D01*
X37465000Y-70000000D02*
X36878579Y-71126504D01*
X127850000Y-76000000D02*
G75*
G03*
X127850000Y-76000000I-2850000J0D01*
G01*
X63850000Y-131000000D02*
G75*
G03*
X63850000Y-131000000I-2850000J0D01*
G01*
X101850000Y-131000000D02*
G75*
G03*
X101850000Y-131000000I-2850000J0D01*
G01*
M02*
