%TF.GenerationSoftware,KiCad,Pcbnew,7.0.5*%
%TF.CreationDate,2023-06-21T21:20:56+02:00*%
%TF.ProjectId,moduleDriver,6d6f6475-6c65-4447-9269-7665722e6b69,rev?*%
%TF.SameCoordinates,Original*%
%TF.FileFunction,Legend,Bot*%
%TF.FilePolarity,Positive*%
%FSLAX46Y46*%
G04 Gerber Fmt 4.6, Leading zero omitted, Abs format (unit mm)*
G04 Created by KiCad (PCBNEW 7.0.5) date 2023-06-21 21:20:56*
%MOMM*%
%LPD*%
G01*
G04 APERTURE LIST*
G04 Aperture macros list*
%AMRoundRect*
0 Rectangle with rounded corners*
0 $1 Rounding radius*
0 $2 $3 $4 $5 $6 $7 $8 $9 X,Y pos of 4 corners*
0 Add a 4 corners polygon primitive as box body*
4,1,4,$2,$3,$4,$5,$6,$7,$8,$9,$2,$3,0*
0 Add four circle primitives for the rounded corners*
1,1,$1+$1,$2,$3*
1,1,$1+$1,$4,$5*
1,1,$1+$1,$6,$7*
1,1,$1+$1,$8,$9*
0 Add four rect primitives between the rounded corners*
20,1,$1+$1,$2,$3,$4,$5,0*
20,1,$1+$1,$4,$5,$6,$7,0*
20,1,$1+$1,$6,$7,$8,$9,0*
20,1,$1+$1,$8,$9,$2,$3,0*%
G04 Aperture macros list end*
%ADD10O,1.700000X1.700000*%
%ADD11R,1.700000X1.700000*%
%ADD12O,3.600000X2.000000*%
%ADD13RoundRect,0.250000X1.550000X-0.750000X1.550000X0.750000X-1.550000X0.750000X-1.550000X-0.750000X0*%
%ADD14O,1.700000X1.950000*%
%ADD15RoundRect,0.250000X-0.600000X-0.725000X0.600000X-0.725000X0.600000X0.725000X-0.600000X0.725000X0*%
%ADD16O,1.950000X1.700000*%
%ADD17RoundRect,0.250000X-0.725000X0.600000X-0.725000X-0.600000X0.725000X-0.600000X0.725000X0.600000X0*%
%ADD18C,3.200000*%
%ADD19O,1.600000X1.600000*%
%ADD20R,1.600000X1.600000*%
%ADD21RoundRect,0.250000X0.750000X-0.600000X0.750000X0.600000X-0.750000X0.600000X-0.750000X-0.600000X0*%
%ADD22O,2.000000X1.700000*%
%ADD23C,2.000000*%
G04 APERTURE END LIST*
G36*
X89722060Y-126458795D02*
G01*
X89722060Y-127989145D01*
X89722060Y-128319874D01*
X89718102Y-128400450D01*
X89706265Y-128480250D01*
X89686663Y-128558506D01*
X89659485Y-128634463D01*
X89624993Y-128707391D01*
X89583518Y-128776586D01*
X89535461Y-128841384D01*
X89481284Y-128901158D01*
X89421510Y-128955335D01*
X89356712Y-129003392D01*
X89287517Y-129044867D01*
X89214589Y-129079359D01*
X89138632Y-129106537D01*
X89060376Y-129126139D01*
X88980576Y-129137976D01*
X88900000Y-129141934D01*
X88819424Y-129137976D01*
X88739624Y-129126139D01*
X88661368Y-129106537D01*
X88585411Y-129079359D01*
X88512483Y-129044867D01*
X88443288Y-129003392D01*
X88378490Y-128955335D01*
X88318716Y-128901158D01*
X88264539Y-128841384D01*
X88216482Y-128776586D01*
X88175007Y-128707391D01*
X88140515Y-128634463D01*
X88113337Y-128558506D01*
X88093735Y-128480250D01*
X88081898Y-128400450D01*
X88077940Y-128319874D01*
X88077940Y-127989145D01*
X88077940Y-127533532D01*
X88408669Y-127533532D01*
X88408669Y-127730382D01*
X89229406Y-127730382D01*
X89229406Y-127989145D01*
X89391331Y-127989145D01*
X89391331Y-127274770D01*
X89229406Y-127274770D01*
X89229406Y-127533532D01*
X88408669Y-127533532D01*
X88077940Y-127533532D01*
X88077940Y-126669932D01*
X88408669Y-126669932D01*
X88493997Y-126703468D01*
X88588056Y-126743751D01*
X88686481Y-126788399D01*
X88784906Y-126835032D01*
X88689458Y-126881070D01*
X88590438Y-126927107D01*
X88494592Y-126969970D01*
X88408669Y-127006482D01*
X88408669Y-127217620D01*
X88511856Y-127170789D01*
X88574562Y-127138245D01*
X88642031Y-127102526D01*
X88712873Y-127064228D01*
X88785700Y-127023945D01*
X88858130Y-126983464D01*
X88927781Y-126944570D01*
X89391331Y-127201745D01*
X89391331Y-126990607D01*
X89077006Y-126835032D01*
X89391331Y-126671520D01*
X89391331Y-126474670D01*
X88932544Y-126725495D01*
X88862694Y-126683029D01*
X88789669Y-126641357D01*
X88716048Y-126601471D01*
X88644412Y-126564364D01*
X88576150Y-126530828D01*
X88512650Y-126501657D01*
X88408669Y-126458795D01*
X88408669Y-126669932D01*
X88077940Y-126669932D01*
X88077940Y-126458795D01*
X88077940Y-126128066D01*
X89722060Y-126128066D01*
X89722060Y-126458795D01*
G37*
G36*
X78292060Y-126458795D02*
G01*
X78292060Y-127989145D01*
X78292060Y-128319874D01*
X78288102Y-128400450D01*
X78276265Y-128480250D01*
X78256663Y-128558506D01*
X78229485Y-128634463D01*
X78194993Y-128707391D01*
X78153518Y-128776586D01*
X78105461Y-128841384D01*
X78051284Y-128901158D01*
X77991510Y-128955335D01*
X77926712Y-129003392D01*
X77857517Y-129044867D01*
X77784589Y-129079359D01*
X77708632Y-129106537D01*
X77630376Y-129126139D01*
X77550576Y-129137976D01*
X77470000Y-129141934D01*
X77389424Y-129137976D01*
X77309624Y-129126139D01*
X77231368Y-129106537D01*
X77155411Y-129079359D01*
X77082483Y-129044867D01*
X77013288Y-129003392D01*
X76948490Y-128955335D01*
X76888716Y-128901158D01*
X76834539Y-128841384D01*
X76786482Y-128776586D01*
X76745007Y-128707391D01*
X76710515Y-128634463D01*
X76683337Y-128558506D01*
X76663735Y-128480250D01*
X76651898Y-128400450D01*
X76647940Y-128319874D01*
X76647940Y-127989145D01*
X76647940Y-127533532D01*
X76978669Y-127533532D01*
X76978669Y-127730382D01*
X77799406Y-127730382D01*
X77799406Y-127989145D01*
X77961331Y-127989145D01*
X77961331Y-127274770D01*
X77799406Y-127274770D01*
X77799406Y-127533532D01*
X76978669Y-127533532D01*
X76647940Y-127533532D01*
X76647940Y-126669932D01*
X76978669Y-126669932D01*
X77063997Y-126703468D01*
X77158056Y-126743751D01*
X77256481Y-126788399D01*
X77354906Y-126835032D01*
X77259458Y-126881070D01*
X77160438Y-126927107D01*
X77064592Y-126969970D01*
X76978669Y-127006482D01*
X76978669Y-127217620D01*
X77081856Y-127170789D01*
X77144562Y-127138245D01*
X77212031Y-127102526D01*
X77282873Y-127064228D01*
X77355700Y-127023945D01*
X77428130Y-126983464D01*
X77497781Y-126944570D01*
X77961331Y-127201745D01*
X77961331Y-126990607D01*
X77647006Y-126835032D01*
X77961331Y-126671520D01*
X77961331Y-126474670D01*
X77502544Y-126725495D01*
X77432694Y-126683029D01*
X77359669Y-126641357D01*
X77286048Y-126601471D01*
X77214412Y-126564364D01*
X77146150Y-126530828D01*
X77082650Y-126501657D01*
X76978669Y-126458795D01*
X76978669Y-126669932D01*
X76647940Y-126669932D01*
X76647940Y-126458795D01*
X76647940Y-126128066D01*
X78292060Y-126128066D01*
X78292060Y-126458795D01*
G37*
G36*
X86603681Y-128375833D02*
G01*
X86650512Y-128411552D01*
X86677897Y-128466718D01*
X86687025Y-128536965D01*
X86686231Y-128563952D01*
X86682263Y-128595702D01*
X86386988Y-128595702D01*
X86386988Y-128552840D01*
X86396711Y-128466718D01*
X86425881Y-128408377D01*
X86536213Y-128363927D01*
X86603681Y-128375833D01*
G37*
G36*
X86441121Y-126152291D02*
G01*
X86521460Y-126164209D01*
X86600244Y-126183943D01*
X86676715Y-126211305D01*
X86750136Y-126246030D01*
X86819799Y-126287785D01*
X86885034Y-126336167D01*
X86945213Y-126390710D01*
X86999756Y-126450888D01*
X87048138Y-126516124D01*
X87089893Y-126585787D01*
X87124618Y-126659208D01*
X87151980Y-126735678D01*
X87171714Y-126814463D01*
X87183631Y-126894802D01*
X87187617Y-126975923D01*
X87187617Y-127306652D01*
X87187617Y-128790965D01*
X87187617Y-129121694D01*
X85532383Y-129121694D01*
X85532383Y-128790965D01*
X85532383Y-128100402D01*
X85863112Y-128100402D01*
X85863112Y-128305190D01*
X85956577Y-128344679D01*
X86046469Y-128390121D01*
X86135170Y-128440326D01*
X86225063Y-128494102D01*
X86225063Y-128595702D01*
X85863112Y-128595702D01*
X85863112Y-128790965D01*
X86831488Y-128790965D01*
X86843394Y-128728258D01*
X86851331Y-128659202D01*
X86855300Y-128592527D01*
X86856888Y-128536965D01*
X86852125Y-128456796D01*
X86837838Y-128384565D01*
X86813628Y-128321065D01*
X86779100Y-128267090D01*
X86678294Y-128191683D01*
X86611817Y-128172038D01*
X86534625Y-128165490D01*
X86452869Y-128174221D01*
X86379050Y-128200415D01*
X86317534Y-128246849D01*
X86272687Y-128316302D01*
X86181406Y-128259152D01*
X86076631Y-128200415D01*
X85967094Y-128145646D01*
X85863112Y-128100402D01*
X85532383Y-128100402D01*
X85532383Y-127517790D01*
X85863112Y-127517790D01*
X85948441Y-127551326D01*
X86042500Y-127591608D01*
X86140925Y-127636257D01*
X86239350Y-127682890D01*
X86143902Y-127728927D01*
X86044881Y-127774965D01*
X85949036Y-127817827D01*
X85863112Y-127854340D01*
X85863112Y-128065477D01*
X85966300Y-128018646D01*
X86029006Y-127986102D01*
X86096475Y-127950383D01*
X86167317Y-127912085D01*
X86240144Y-127871802D01*
X86312573Y-127831321D01*
X86382225Y-127792427D01*
X86845775Y-128049602D01*
X86845775Y-127838465D01*
X86531450Y-127682890D01*
X86845775Y-127519377D01*
X86845775Y-127322527D01*
X86386988Y-127573352D01*
X86317137Y-127530886D01*
X86244112Y-127489215D01*
X86170492Y-127449329D01*
X86098856Y-127412221D01*
X86030594Y-127378685D01*
X85967094Y-127349515D01*
X85863112Y-127306652D01*
X85863112Y-127517790D01*
X85532383Y-127517790D01*
X85532383Y-127306652D01*
X85532383Y-126975923D01*
X85536369Y-126894802D01*
X85548286Y-126814463D01*
X85568020Y-126735678D01*
X85595382Y-126659208D01*
X85630107Y-126585787D01*
X85671862Y-126516124D01*
X85720244Y-126450888D01*
X85774787Y-126390710D01*
X85834966Y-126336167D01*
X85900201Y-126287785D01*
X85969864Y-126246030D01*
X86043285Y-126211305D01*
X86119756Y-126183943D01*
X86198540Y-126164209D01*
X86278879Y-126152291D01*
X86360000Y-126148306D01*
X86441121Y-126152291D01*
G37*
G36*
X75011121Y-126152291D02*
G01*
X75091460Y-126164209D01*
X75170244Y-126183943D01*
X75246715Y-126211305D01*
X75320136Y-126246030D01*
X75389799Y-126287785D01*
X75455034Y-126336167D01*
X75515213Y-126390710D01*
X75569756Y-126450888D01*
X75618138Y-126516124D01*
X75659893Y-126585787D01*
X75694618Y-126659208D01*
X75721980Y-126735678D01*
X75741714Y-126814463D01*
X75753631Y-126894802D01*
X75757617Y-126975923D01*
X75757617Y-127306652D01*
X75757617Y-128790965D01*
X75757617Y-129121694D01*
X74102383Y-129121694D01*
X74102383Y-128790965D01*
X74102383Y-128100402D01*
X74433112Y-128100402D01*
X74433112Y-128305190D01*
X74526577Y-128344679D01*
X74616469Y-128390121D01*
X74705170Y-128440326D01*
X74795063Y-128494102D01*
X74795063Y-128595702D01*
X74433112Y-128595702D01*
X74433112Y-128790965D01*
X75401488Y-128790965D01*
X75413394Y-128728258D01*
X75421331Y-128659202D01*
X75425300Y-128592527D01*
X75426888Y-128536965D01*
X75422125Y-128456796D01*
X75407838Y-128384565D01*
X75383628Y-128321065D01*
X75349100Y-128267090D01*
X75248294Y-128191683D01*
X75181817Y-128172038D01*
X75104625Y-128165490D01*
X75022869Y-128174221D01*
X74949050Y-128200415D01*
X74887534Y-128246849D01*
X74842687Y-128316302D01*
X74751406Y-128259152D01*
X74646631Y-128200415D01*
X74537094Y-128145646D01*
X74433112Y-128100402D01*
X74102383Y-128100402D01*
X74102383Y-127517790D01*
X74433112Y-127517790D01*
X74518441Y-127551326D01*
X74612500Y-127591608D01*
X74710925Y-127636257D01*
X74809350Y-127682890D01*
X74713902Y-127728927D01*
X74614881Y-127774965D01*
X74519036Y-127817827D01*
X74433112Y-127854340D01*
X74433112Y-128065477D01*
X74536300Y-128018646D01*
X74599006Y-127986102D01*
X74666475Y-127950383D01*
X74737317Y-127912085D01*
X74810144Y-127871802D01*
X74882573Y-127831321D01*
X74952225Y-127792427D01*
X75415775Y-128049602D01*
X75415775Y-127838465D01*
X75101450Y-127682890D01*
X75415775Y-127519377D01*
X75415775Y-127322527D01*
X74956988Y-127573352D01*
X74887137Y-127530886D01*
X74814112Y-127489215D01*
X74740492Y-127449329D01*
X74668856Y-127412221D01*
X74600594Y-127378685D01*
X74537094Y-127349515D01*
X74433112Y-127306652D01*
X74433112Y-127517790D01*
X74102383Y-127517790D01*
X74102383Y-127306652D01*
X74102383Y-126975923D01*
X74106369Y-126894802D01*
X74118286Y-126814463D01*
X74138020Y-126735678D01*
X74165382Y-126659208D01*
X74200107Y-126585787D01*
X74241862Y-126516124D01*
X74290244Y-126450888D01*
X74344787Y-126390710D01*
X74404966Y-126336167D01*
X74470201Y-126287785D01*
X74539864Y-126246030D01*
X74613285Y-126211305D01*
X74689756Y-126183943D01*
X74768540Y-126164209D01*
X74848879Y-126152291D01*
X74930000Y-126148306D01*
X75011121Y-126152291D01*
G37*
G36*
X75173681Y-128375833D02*
G01*
X75220512Y-128411552D01*
X75247897Y-128466718D01*
X75257025Y-128536965D01*
X75256231Y-128563952D01*
X75252263Y-128595702D01*
X74956988Y-128595702D01*
X74956988Y-128552840D01*
X74966711Y-128466718D01*
X74995881Y-128408377D01*
X75106213Y-128363927D01*
X75173681Y-128375833D01*
G37*
%LPC*%
D10*
X71120000Y-73660000D03*
X71120000Y-76200000D03*
D11*
X71120000Y-78740000D03*
D10*
X71120000Y-81280000D03*
X71120000Y-83820000D03*
X71120000Y-86360000D03*
X71120000Y-88900000D03*
D11*
X71120000Y-91440000D03*
D10*
X71120000Y-93980000D03*
X71120000Y-96520000D03*
X71120000Y-99060000D03*
X71120000Y-101600000D03*
D11*
X71120000Y-104140000D03*
D10*
X71120000Y-106680000D03*
X71120000Y-109220000D03*
X71120000Y-111760000D03*
X71120000Y-114300000D03*
D11*
X71120000Y-116840000D03*
D10*
X71120000Y-119380000D03*
X71120000Y-121920000D03*
X88900000Y-121920000D03*
X88900000Y-119380000D03*
D11*
X88900000Y-116840000D03*
D10*
X88900000Y-114300000D03*
X88900000Y-111760000D03*
X88900000Y-109220000D03*
X88900000Y-106680000D03*
D11*
X88900000Y-104140000D03*
D10*
X88900000Y-101600000D03*
X88900000Y-99060000D03*
X88900000Y-96520000D03*
X88900000Y-93980000D03*
D11*
X88900000Y-91440000D03*
D10*
X88900000Y-88900000D03*
X88900000Y-86360000D03*
X88900000Y-83820000D03*
X88900000Y-81280000D03*
D11*
X88900000Y-78740000D03*
D10*
X88900000Y-76200000D03*
X88900000Y-73660000D03*
D12*
X121920000Y-107950000D03*
D13*
X121920000Y-112950000D03*
D12*
X121920000Y-94615000D03*
D13*
X121920000Y-99615000D03*
D14*
X77470000Y-132715000D03*
X74970000Y-132715000D03*
D15*
X72470000Y-132715000D03*
D16*
X107950000Y-107790000D03*
X107950000Y-105290000D03*
X107950000Y-102790000D03*
X107950000Y-100290000D03*
D17*
X107950000Y-97790000D03*
D18*
X125000000Y-76000000D03*
D19*
X101600000Y-97790000D03*
X101600000Y-100330000D03*
X101600000Y-102870000D03*
X101600000Y-105410000D03*
X101600000Y-107950000D03*
X101600000Y-110490000D03*
X101600000Y-113030000D03*
X101600000Y-115570000D03*
X101600000Y-118110000D03*
X93980000Y-118110000D03*
X93980000Y-115570000D03*
X93980000Y-113030000D03*
X93980000Y-110490000D03*
X93980000Y-107950000D03*
X93980000Y-105410000D03*
X93980000Y-102870000D03*
X93980000Y-100330000D03*
D20*
X93980000Y-97790000D03*
D21*
X57150000Y-112054000D03*
D22*
X57150000Y-109554000D03*
D19*
X101600000Y-73660000D03*
X101600000Y-76200000D03*
X101600000Y-78740000D03*
X101600000Y-81280000D03*
X101600000Y-83820000D03*
X101600000Y-86360000D03*
X101600000Y-88900000D03*
X101600000Y-91440000D03*
X101600000Y-93980000D03*
X93980000Y-93980000D03*
X93980000Y-91440000D03*
X93980000Y-88900000D03*
X93980000Y-86360000D03*
X93980000Y-83820000D03*
X93980000Y-81280000D03*
X93980000Y-78740000D03*
X93980000Y-76200000D03*
D20*
X93980000Y-73660000D03*
D23*
X54610000Y-73660000D03*
X61110000Y-73660000D03*
X54610000Y-78160000D03*
X61110000Y-78160000D03*
D21*
X57150000Y-94782000D03*
D22*
X57150000Y-92282000D03*
D16*
X115570000Y-117950000D03*
X115570000Y-115450000D03*
X115570000Y-112950000D03*
X115570000Y-110450000D03*
D17*
X115570000Y-107950000D03*
D18*
X61000000Y-131000000D03*
D16*
X115570000Y-93820000D03*
X115570000Y-91320000D03*
X115570000Y-88820000D03*
X115570000Y-86320000D03*
D17*
X115570000Y-83820000D03*
D21*
X57150000Y-120650000D03*
D22*
X57150000Y-118150000D03*
D21*
X57150000Y-103418000D03*
D22*
X57150000Y-100918000D03*
D14*
X88900000Y-132715000D03*
X86400000Y-132715000D03*
D15*
X83900000Y-132715000D03*
D18*
X99000000Y-131000000D03*
D16*
X107950000Y-83660000D03*
X107950000Y-81160000D03*
X107950000Y-78660000D03*
X107950000Y-76160000D03*
D17*
X107950000Y-73660000D03*
%LPD*%
M02*
