%TF.GenerationSoftware,KiCad,Pcbnew,7.0.5*%
%TF.CreationDate,2023-06-21T21:20:56+02:00*%
%TF.ProjectId,moduleDriver,6d6f6475-6c65-4447-9269-7665722e6b69,rev?*%
%TF.SameCoordinates,Original*%
%TF.FileFunction,Legend,Top*%
%TF.FilePolarity,Positive*%
%FSLAX46Y46*%
G04 Gerber Fmt 4.6, Leading zero omitted, Abs format (unit mm)*
G04 Created by KiCad (PCBNEW 7.0.5) date 2023-06-21 21:20:56*
%MOMM*%
%LPD*%
G01*
G04 APERTURE LIST*
G04 Aperture macros list*
%AMRoundRect*
0 Rectangle with rounded corners*
0 $1 Rounding radius*
0 $2 $3 $4 $5 $6 $7 $8 $9 X,Y pos of 4 corners*
0 Add a 4 corners polygon primitive as box body*
4,1,4,$2,$3,$4,$5,$6,$7,$8,$9,$2,$3,0*
0 Add four circle primitives for the rounded corners*
1,1,$1+$1,$2,$3*
1,1,$1+$1,$4,$5*
1,1,$1+$1,$6,$7*
1,1,$1+$1,$8,$9*
0 Add four rect primitives between the rounded corners*
20,1,$1+$1,$2,$3,$4,$5,0*
20,1,$1+$1,$4,$5,$6,$7,0*
20,1,$1+$1,$6,$7,$8,$9,0*
20,1,$1+$1,$8,$9,$2,$3,0*%
G04 Aperture macros list end*
%ADD10C,0.150000*%
%ADD11C,0.120000*%
%ADD12O,1.700000X1.700000*%
%ADD13R,1.700000X1.700000*%
%ADD14O,3.600000X2.000000*%
%ADD15RoundRect,0.250000X1.550000X-0.750000X1.550000X0.750000X-1.550000X0.750000X-1.550000X-0.750000X0*%
%ADD16RoundRect,0.250000X0.625000X-0.312500X0.625000X0.312500X-0.625000X0.312500X-0.625000X-0.312500X0*%
%ADD17O,1.700000X1.950000*%
%ADD18RoundRect,0.250000X-0.600000X-0.725000X0.600000X-0.725000X0.600000X0.725000X-0.600000X0.725000X0*%
%ADD19O,1.950000X1.700000*%
%ADD20RoundRect,0.250000X-0.725000X0.600000X-0.725000X-0.600000X0.725000X-0.600000X0.725000X0.600000X0*%
%ADD21C,3.200000*%
%ADD22O,1.600000X1.600000*%
%ADD23R,1.600000X1.600000*%
%ADD24RoundRect,0.250000X0.750000X-0.600000X0.750000X0.600000X-0.750000X0.600000X-0.750000X-0.600000X0*%
%ADD25O,2.000000X1.700000*%
%ADD26RoundRect,0.250000X-0.650000X0.325000X-0.650000X-0.325000X0.650000X-0.325000X0.650000X0.325000X0*%
%ADD27RoundRect,0.250000X-0.312500X-0.625000X0.312500X-0.625000X0.312500X0.625000X-0.312500X0.625000X0*%
%ADD28C,2.000000*%
%ADD29RoundRect,0.225000X-0.225000X-0.375000X0.225000X-0.375000X0.225000X0.375000X-0.225000X0.375000X0*%
%ADD30RoundRect,0.250000X-0.625000X0.312500X-0.625000X-0.312500X0.625000X-0.312500X0.625000X0.312500X0*%
%ADD31RoundRect,0.250000X-0.350000X0.850000X-0.350000X-0.850000X0.350000X-0.850000X0.350000X0.850000X0*%
%ADD32RoundRect,0.249997X-2.650003X2.950003X-2.650003X-2.950003X2.650003X-2.950003X2.650003X2.950003X0*%
%ADD33RoundRect,0.250000X0.625000X-0.375000X0.625000X0.375000X-0.625000X0.375000X-0.625000X-0.375000X0*%
%ADD34RoundRect,0.250000X-0.375000X-0.625000X0.375000X-0.625000X0.375000X0.625000X-0.375000X0.625000X0*%
%ADD35RoundRect,0.250000X-1.000000X1.500000X-1.000000X-1.500000X1.000000X-1.500000X1.000000X1.500000X0*%
%ADD36RoundRect,0.250000X0.312500X0.625000X-0.312500X0.625000X-0.312500X-0.625000X0.312500X-0.625000X0*%
G04 APERTURE END LIST*
D10*
X79248095Y-97244819D02*
X79248095Y-98054342D01*
X79248095Y-98054342D02*
X79295714Y-98149580D01*
X79295714Y-98149580D02*
X79343333Y-98197200D01*
X79343333Y-98197200D02*
X79438571Y-98244819D01*
X79438571Y-98244819D02*
X79629047Y-98244819D01*
X79629047Y-98244819D02*
X79724285Y-98197200D01*
X79724285Y-98197200D02*
X79771904Y-98149580D01*
X79771904Y-98149580D02*
X79819523Y-98054342D01*
X79819523Y-98054342D02*
X79819523Y-97244819D01*
X80248095Y-97340057D02*
X80295714Y-97292438D01*
X80295714Y-97292438D02*
X80390952Y-97244819D01*
X80390952Y-97244819D02*
X80629047Y-97244819D01*
X80629047Y-97244819D02*
X80724285Y-97292438D01*
X80724285Y-97292438D02*
X80771904Y-97340057D01*
X80771904Y-97340057D02*
X80819523Y-97435295D01*
X80819523Y-97435295D02*
X80819523Y-97530533D01*
X80819523Y-97530533D02*
X80771904Y-97673390D01*
X80771904Y-97673390D02*
X80200476Y-98244819D01*
X80200476Y-98244819D02*
X80819523Y-98244819D01*
X118174819Y-111259523D02*
X118889104Y-111259523D01*
X118889104Y-111259523D02*
X119031961Y-111307142D01*
X119031961Y-111307142D02*
X119127200Y-111402380D01*
X119127200Y-111402380D02*
X119174819Y-111545237D01*
X119174819Y-111545237D02*
X119174819Y-111640475D01*
X119174819Y-110259523D02*
X119174819Y-110830951D01*
X119174819Y-110545237D02*
X118174819Y-110545237D01*
X118174819Y-110545237D02*
X118317676Y-110640475D01*
X118317676Y-110640475D02*
X118412914Y-110735713D01*
X118412914Y-110735713D02*
X118460533Y-110830951D01*
X118270057Y-109878570D02*
X118222438Y-109830951D01*
X118222438Y-109830951D02*
X118174819Y-109735713D01*
X118174819Y-109735713D02*
X118174819Y-109497618D01*
X118174819Y-109497618D02*
X118222438Y-109402380D01*
X118222438Y-109402380D02*
X118270057Y-109354761D01*
X118270057Y-109354761D02*
X118365295Y-109307142D01*
X118365295Y-109307142D02*
X118460533Y-109307142D01*
X118460533Y-109307142D02*
X118603390Y-109354761D01*
X118603390Y-109354761D02*
X119174819Y-109926189D01*
X119174819Y-109926189D02*
X119174819Y-109307142D01*
X118174819Y-97924523D02*
X118889104Y-97924523D01*
X118889104Y-97924523D02*
X119031961Y-97972142D01*
X119031961Y-97972142D02*
X119127200Y-98067380D01*
X119127200Y-98067380D02*
X119174819Y-98210237D01*
X119174819Y-98210237D02*
X119174819Y-98305475D01*
X119174819Y-96924523D02*
X119174819Y-97495951D01*
X119174819Y-97210237D02*
X118174819Y-97210237D01*
X118174819Y-97210237D02*
X118317676Y-97305475D01*
X118317676Y-97305475D02*
X118412914Y-97400713D01*
X118412914Y-97400713D02*
X118460533Y-97495951D01*
X119174819Y-95972142D02*
X119174819Y-96543570D01*
X119174819Y-96257856D02*
X118174819Y-96257856D01*
X118174819Y-96257856D02*
X118317676Y-96353094D01*
X118317676Y-96353094D02*
X118412914Y-96448332D01*
X118412914Y-96448332D02*
X118460533Y-96543570D01*
X107769819Y-115962857D02*
X107293628Y-116296190D01*
X107769819Y-116534285D02*
X106769819Y-116534285D01*
X106769819Y-116534285D02*
X106769819Y-116153333D01*
X106769819Y-116153333D02*
X106817438Y-116058095D01*
X106817438Y-116058095D02*
X106865057Y-116010476D01*
X106865057Y-116010476D02*
X106960295Y-115962857D01*
X106960295Y-115962857D02*
X107103152Y-115962857D01*
X107103152Y-115962857D02*
X107198390Y-116010476D01*
X107198390Y-116010476D02*
X107246009Y-116058095D01*
X107246009Y-116058095D02*
X107293628Y-116153333D01*
X107293628Y-116153333D02*
X107293628Y-116534285D01*
X107769819Y-115010476D02*
X107769819Y-115581904D01*
X107769819Y-115296190D02*
X106769819Y-115296190D01*
X106769819Y-115296190D02*
X106912676Y-115391428D01*
X106912676Y-115391428D02*
X107007914Y-115486666D01*
X107007914Y-115486666D02*
X107055533Y-115581904D01*
X107769819Y-114058095D02*
X107769819Y-114629523D01*
X107769819Y-114343809D02*
X106769819Y-114343809D01*
X106769819Y-114343809D02*
X106912676Y-114439047D01*
X106912676Y-114439047D02*
X107007914Y-114534285D01*
X107007914Y-114534285D02*
X107055533Y-114629523D01*
X70151666Y-128359819D02*
X70151666Y-129074104D01*
X70151666Y-129074104D02*
X70104047Y-129216961D01*
X70104047Y-129216961D02*
X70008809Y-129312200D01*
X70008809Y-129312200D02*
X69865952Y-129359819D01*
X69865952Y-129359819D02*
X69770714Y-129359819D01*
X71151666Y-129359819D02*
X70580238Y-129359819D01*
X70865952Y-129359819D02*
X70865952Y-128359819D01*
X70865952Y-128359819D02*
X70770714Y-128502676D01*
X70770714Y-128502676D02*
X70675476Y-128597914D01*
X70675476Y-128597914D02*
X70580238Y-128645533D01*
X110954819Y-103123333D02*
X111669104Y-103123333D01*
X111669104Y-103123333D02*
X111811961Y-103170952D01*
X111811961Y-103170952D02*
X111907200Y-103266190D01*
X111907200Y-103266190D02*
X111954819Y-103409047D01*
X111954819Y-103409047D02*
X111954819Y-103504285D01*
X110954819Y-102170952D02*
X110954819Y-102647142D01*
X110954819Y-102647142D02*
X111431009Y-102694761D01*
X111431009Y-102694761D02*
X111383390Y-102647142D01*
X111383390Y-102647142D02*
X111335771Y-102551904D01*
X111335771Y-102551904D02*
X111335771Y-102313809D01*
X111335771Y-102313809D02*
X111383390Y-102218571D01*
X111383390Y-102218571D02*
X111431009Y-102170952D01*
X111431009Y-102170952D02*
X111526247Y-102123333D01*
X111526247Y-102123333D02*
X111764342Y-102123333D01*
X111764342Y-102123333D02*
X111859580Y-102170952D01*
X111859580Y-102170952D02*
X111907200Y-102218571D01*
X111907200Y-102218571D02*
X111954819Y-102313809D01*
X111954819Y-102313809D02*
X111954819Y-102551904D01*
X111954819Y-102551904D02*
X111907200Y-102647142D01*
X111907200Y-102647142D02*
X111859580Y-102694761D01*
X79829819Y-126724166D02*
X79353628Y-127057499D01*
X79829819Y-127295594D02*
X78829819Y-127295594D01*
X78829819Y-127295594D02*
X78829819Y-126914642D01*
X78829819Y-126914642D02*
X78877438Y-126819404D01*
X78877438Y-126819404D02*
X78925057Y-126771785D01*
X78925057Y-126771785D02*
X79020295Y-126724166D01*
X79020295Y-126724166D02*
X79163152Y-126724166D01*
X79163152Y-126724166D02*
X79258390Y-126771785D01*
X79258390Y-126771785D02*
X79306009Y-126819404D01*
X79306009Y-126819404D02*
X79353628Y-126914642D01*
X79353628Y-126914642D02*
X79353628Y-127295594D01*
X79829819Y-126247975D02*
X79829819Y-126057499D01*
X79829819Y-126057499D02*
X79782200Y-125962261D01*
X79782200Y-125962261D02*
X79734580Y-125914642D01*
X79734580Y-125914642D02*
X79591723Y-125819404D01*
X79591723Y-125819404D02*
X79401247Y-125771785D01*
X79401247Y-125771785D02*
X79020295Y-125771785D01*
X79020295Y-125771785D02*
X78925057Y-125819404D01*
X78925057Y-125819404D02*
X78877438Y-125867023D01*
X78877438Y-125867023D02*
X78829819Y-125962261D01*
X78829819Y-125962261D02*
X78829819Y-126152737D01*
X78829819Y-126152737D02*
X78877438Y-126247975D01*
X78877438Y-126247975D02*
X78925057Y-126295594D01*
X78925057Y-126295594D02*
X79020295Y-126343213D01*
X79020295Y-126343213D02*
X79258390Y-126343213D01*
X79258390Y-126343213D02*
X79353628Y-126295594D01*
X79353628Y-126295594D02*
X79401247Y-126247975D01*
X79401247Y-126247975D02*
X79448866Y-126152737D01*
X79448866Y-126152737D02*
X79448866Y-125962261D01*
X79448866Y-125962261D02*
X79401247Y-125867023D01*
X79401247Y-125867023D02*
X79353628Y-125819404D01*
X79353628Y-125819404D02*
X79258390Y-125771785D01*
X124238095Y-72604819D02*
X124238095Y-71604819D01*
X124238095Y-72081009D02*
X124809523Y-72081009D01*
X124809523Y-72604819D02*
X124809523Y-71604819D01*
X125809523Y-72604819D02*
X125238095Y-72604819D01*
X125523809Y-72604819D02*
X125523809Y-71604819D01*
X125523809Y-71604819D02*
X125428571Y-71747676D01*
X125428571Y-71747676D02*
X125333333Y-71842914D01*
X125333333Y-71842914D02*
X125238095Y-71890533D01*
X97028095Y-120104819D02*
X97028095Y-120914342D01*
X97028095Y-120914342D02*
X97075714Y-121009580D01*
X97075714Y-121009580D02*
X97123333Y-121057200D01*
X97123333Y-121057200D02*
X97218571Y-121104819D01*
X97218571Y-121104819D02*
X97409047Y-121104819D01*
X97409047Y-121104819D02*
X97504285Y-121057200D01*
X97504285Y-121057200D02*
X97551904Y-121009580D01*
X97551904Y-121009580D02*
X97599523Y-120914342D01*
X97599523Y-120914342D02*
X97599523Y-120104819D01*
X98504285Y-120438152D02*
X98504285Y-121104819D01*
X98266190Y-120057200D02*
X98028095Y-120771485D01*
X98028095Y-120771485D02*
X98647142Y-120771485D01*
X61430819Y-111137333D02*
X62145104Y-111137333D01*
X62145104Y-111137333D02*
X62287961Y-111184952D01*
X62287961Y-111184952D02*
X62383200Y-111280190D01*
X62383200Y-111280190D02*
X62430819Y-111423047D01*
X62430819Y-111423047D02*
X62430819Y-111518285D01*
X62430819Y-110613523D02*
X62430819Y-110423047D01*
X62430819Y-110423047D02*
X62383200Y-110327809D01*
X62383200Y-110327809D02*
X62335580Y-110280190D01*
X62335580Y-110280190D02*
X62192723Y-110184952D01*
X62192723Y-110184952D02*
X62002247Y-110137333D01*
X62002247Y-110137333D02*
X61621295Y-110137333D01*
X61621295Y-110137333D02*
X61526057Y-110184952D01*
X61526057Y-110184952D02*
X61478438Y-110232571D01*
X61478438Y-110232571D02*
X61430819Y-110327809D01*
X61430819Y-110327809D02*
X61430819Y-110518285D01*
X61430819Y-110518285D02*
X61478438Y-110613523D01*
X61478438Y-110613523D02*
X61526057Y-110661142D01*
X61526057Y-110661142D02*
X61621295Y-110708761D01*
X61621295Y-110708761D02*
X61859390Y-110708761D01*
X61859390Y-110708761D02*
X61954628Y-110661142D01*
X61954628Y-110661142D02*
X62002247Y-110613523D01*
X62002247Y-110613523D02*
X62049866Y-110518285D01*
X62049866Y-110518285D02*
X62049866Y-110327809D01*
X62049866Y-110327809D02*
X62002247Y-110232571D01*
X62002247Y-110232571D02*
X61954628Y-110184952D01*
X61954628Y-110184952D02*
X61859390Y-110137333D01*
X107674580Y-129706666D02*
X107722200Y-129754285D01*
X107722200Y-129754285D02*
X107769819Y-129897142D01*
X107769819Y-129897142D02*
X107769819Y-129992380D01*
X107769819Y-129992380D02*
X107722200Y-130135237D01*
X107722200Y-130135237D02*
X107626961Y-130230475D01*
X107626961Y-130230475D02*
X107531723Y-130278094D01*
X107531723Y-130278094D02*
X107341247Y-130325713D01*
X107341247Y-130325713D02*
X107198390Y-130325713D01*
X107198390Y-130325713D02*
X107007914Y-130278094D01*
X107007914Y-130278094D02*
X106912676Y-130230475D01*
X106912676Y-130230475D02*
X106817438Y-130135237D01*
X106817438Y-130135237D02*
X106769819Y-129992380D01*
X106769819Y-129992380D02*
X106769819Y-129897142D01*
X106769819Y-129897142D02*
X106817438Y-129754285D01*
X106817438Y-129754285D02*
X106865057Y-129706666D01*
X106865057Y-129325713D02*
X106817438Y-129278094D01*
X106817438Y-129278094D02*
X106769819Y-129182856D01*
X106769819Y-129182856D02*
X106769819Y-128944761D01*
X106769819Y-128944761D02*
X106817438Y-128849523D01*
X106817438Y-128849523D02*
X106865057Y-128801904D01*
X106865057Y-128801904D02*
X106960295Y-128754285D01*
X106960295Y-128754285D02*
X107055533Y-128754285D01*
X107055533Y-128754285D02*
X107198390Y-128801904D01*
X107198390Y-128801904D02*
X107769819Y-129373332D01*
X107769819Y-129373332D02*
X107769819Y-128754285D01*
X62063333Y-122374819D02*
X61730000Y-121898628D01*
X61491905Y-122374819D02*
X61491905Y-121374819D01*
X61491905Y-121374819D02*
X61872857Y-121374819D01*
X61872857Y-121374819D02*
X61968095Y-121422438D01*
X61968095Y-121422438D02*
X62015714Y-121470057D01*
X62015714Y-121470057D02*
X62063333Y-121565295D01*
X62063333Y-121565295D02*
X62063333Y-121708152D01*
X62063333Y-121708152D02*
X62015714Y-121803390D01*
X62015714Y-121803390D02*
X61968095Y-121851009D01*
X61968095Y-121851009D02*
X61872857Y-121898628D01*
X61872857Y-121898628D02*
X61491905Y-121898628D01*
X62396667Y-121374819D02*
X63015714Y-121374819D01*
X63015714Y-121374819D02*
X62682381Y-121755771D01*
X62682381Y-121755771D02*
X62825238Y-121755771D01*
X62825238Y-121755771D02*
X62920476Y-121803390D01*
X62920476Y-121803390D02*
X62968095Y-121851009D01*
X62968095Y-121851009D02*
X63015714Y-121946247D01*
X63015714Y-121946247D02*
X63015714Y-122184342D01*
X63015714Y-122184342D02*
X62968095Y-122279580D01*
X62968095Y-122279580D02*
X62920476Y-122327200D01*
X62920476Y-122327200D02*
X62825238Y-122374819D01*
X62825238Y-122374819D02*
X62539524Y-122374819D01*
X62539524Y-122374819D02*
X62444286Y-122327200D01*
X62444286Y-122327200D02*
X62396667Y-122279580D01*
X65680833Y-79914819D02*
X65347500Y-79438628D01*
X65109405Y-79914819D02*
X65109405Y-78914819D01*
X65109405Y-78914819D02*
X65490357Y-78914819D01*
X65490357Y-78914819D02*
X65585595Y-78962438D01*
X65585595Y-78962438D02*
X65633214Y-79010057D01*
X65633214Y-79010057D02*
X65680833Y-79105295D01*
X65680833Y-79105295D02*
X65680833Y-79248152D01*
X65680833Y-79248152D02*
X65633214Y-79343390D01*
X65633214Y-79343390D02*
X65585595Y-79391009D01*
X65585595Y-79391009D02*
X65490357Y-79438628D01*
X65490357Y-79438628D02*
X65109405Y-79438628D01*
X66633214Y-79914819D02*
X66061786Y-79914819D01*
X66347500Y-79914819D02*
X66347500Y-78914819D01*
X66347500Y-78914819D02*
X66252262Y-79057676D01*
X66252262Y-79057676D02*
X66157024Y-79152914D01*
X66157024Y-79152914D02*
X66061786Y-79200533D01*
X103378095Y-90894819D02*
X103378095Y-91704342D01*
X103378095Y-91704342D02*
X103425714Y-91799580D01*
X103425714Y-91799580D02*
X103473333Y-91847200D01*
X103473333Y-91847200D02*
X103568571Y-91894819D01*
X103568571Y-91894819D02*
X103759047Y-91894819D01*
X103759047Y-91894819D02*
X103854285Y-91847200D01*
X103854285Y-91847200D02*
X103901904Y-91799580D01*
X103901904Y-91799580D02*
X103949523Y-91704342D01*
X103949523Y-91704342D02*
X103949523Y-90894819D01*
X104330476Y-90894819D02*
X104949523Y-90894819D01*
X104949523Y-90894819D02*
X104616190Y-91275771D01*
X104616190Y-91275771D02*
X104759047Y-91275771D01*
X104759047Y-91275771D02*
X104854285Y-91323390D01*
X104854285Y-91323390D02*
X104901904Y-91371009D01*
X104901904Y-91371009D02*
X104949523Y-91466247D01*
X104949523Y-91466247D02*
X104949523Y-91704342D01*
X104949523Y-91704342D02*
X104901904Y-91799580D01*
X104901904Y-91799580D02*
X104854285Y-91847200D01*
X104854285Y-91847200D02*
X104759047Y-91894819D01*
X104759047Y-91894819D02*
X104473333Y-91894819D01*
X104473333Y-91894819D02*
X104378095Y-91847200D01*
X104378095Y-91847200D02*
X104330476Y-91799580D01*
X56526667Y-80567200D02*
X56669524Y-80614819D01*
X56669524Y-80614819D02*
X56907619Y-80614819D01*
X56907619Y-80614819D02*
X57002857Y-80567200D01*
X57002857Y-80567200D02*
X57050476Y-80519580D01*
X57050476Y-80519580D02*
X57098095Y-80424342D01*
X57098095Y-80424342D02*
X57098095Y-80329104D01*
X57098095Y-80329104D02*
X57050476Y-80233866D01*
X57050476Y-80233866D02*
X57002857Y-80186247D01*
X57002857Y-80186247D02*
X56907619Y-80138628D01*
X56907619Y-80138628D02*
X56717143Y-80091009D01*
X56717143Y-80091009D02*
X56621905Y-80043390D01*
X56621905Y-80043390D02*
X56574286Y-79995771D01*
X56574286Y-79995771D02*
X56526667Y-79900533D01*
X56526667Y-79900533D02*
X56526667Y-79805295D01*
X56526667Y-79805295D02*
X56574286Y-79710057D01*
X56574286Y-79710057D02*
X56621905Y-79662438D01*
X56621905Y-79662438D02*
X56717143Y-79614819D01*
X56717143Y-79614819D02*
X56955238Y-79614819D01*
X56955238Y-79614819D02*
X57098095Y-79662438D01*
X57431429Y-79614819D02*
X57669524Y-80614819D01*
X57669524Y-80614819D02*
X57860000Y-79900533D01*
X57860000Y-79900533D02*
X58050476Y-80614819D01*
X58050476Y-80614819D02*
X58288572Y-79614819D01*
X59193333Y-80614819D02*
X58621905Y-80614819D01*
X58907619Y-80614819D02*
X58907619Y-79614819D01*
X58907619Y-79614819D02*
X58812381Y-79757676D01*
X58812381Y-79757676D02*
X58717143Y-79852914D01*
X58717143Y-79852914D02*
X58621905Y-79900533D01*
X61430819Y-93805333D02*
X62145104Y-93805333D01*
X62145104Y-93805333D02*
X62287961Y-93852952D01*
X62287961Y-93852952D02*
X62383200Y-93948190D01*
X62383200Y-93948190D02*
X62430819Y-94091047D01*
X62430819Y-94091047D02*
X62430819Y-94186285D01*
X61430819Y-93424380D02*
X61430819Y-92757714D01*
X61430819Y-92757714D02*
X62430819Y-93186285D01*
X118574819Y-113283333D02*
X119289104Y-113283333D01*
X119289104Y-113283333D02*
X119431961Y-113330952D01*
X119431961Y-113330952D02*
X119527200Y-113426190D01*
X119527200Y-113426190D02*
X119574819Y-113569047D01*
X119574819Y-113569047D02*
X119574819Y-113664285D01*
X118574819Y-112378571D02*
X118574819Y-112569047D01*
X118574819Y-112569047D02*
X118622438Y-112664285D01*
X118622438Y-112664285D02*
X118670057Y-112711904D01*
X118670057Y-112711904D02*
X118812914Y-112807142D01*
X118812914Y-112807142D02*
X119003390Y-112854761D01*
X119003390Y-112854761D02*
X119384342Y-112854761D01*
X119384342Y-112854761D02*
X119479580Y-112807142D01*
X119479580Y-112807142D02*
X119527200Y-112759523D01*
X119527200Y-112759523D02*
X119574819Y-112664285D01*
X119574819Y-112664285D02*
X119574819Y-112473809D01*
X119574819Y-112473809D02*
X119527200Y-112378571D01*
X119527200Y-112378571D02*
X119479580Y-112330952D01*
X119479580Y-112330952D02*
X119384342Y-112283333D01*
X119384342Y-112283333D02*
X119146247Y-112283333D01*
X119146247Y-112283333D02*
X119051009Y-112330952D01*
X119051009Y-112330952D02*
X119003390Y-112378571D01*
X119003390Y-112378571D02*
X118955771Y-112473809D01*
X118955771Y-112473809D02*
X118955771Y-112664285D01*
X118955771Y-112664285D02*
X119003390Y-112759523D01*
X119003390Y-112759523D02*
X119051009Y-112807142D01*
X119051009Y-112807142D02*
X119146247Y-112854761D01*
X60238095Y-127604819D02*
X60238095Y-126604819D01*
X60238095Y-127081009D02*
X60809523Y-127081009D01*
X60809523Y-127604819D02*
X60809523Y-126604819D01*
X61190476Y-126604819D02*
X61809523Y-126604819D01*
X61809523Y-126604819D02*
X61476190Y-126985771D01*
X61476190Y-126985771D02*
X61619047Y-126985771D01*
X61619047Y-126985771D02*
X61714285Y-127033390D01*
X61714285Y-127033390D02*
X61761904Y-127081009D01*
X61761904Y-127081009D02*
X61809523Y-127176247D01*
X61809523Y-127176247D02*
X61809523Y-127414342D01*
X61809523Y-127414342D02*
X61761904Y-127509580D01*
X61761904Y-127509580D02*
X61714285Y-127557200D01*
X61714285Y-127557200D02*
X61619047Y-127604819D01*
X61619047Y-127604819D02*
X61333333Y-127604819D01*
X61333333Y-127604819D02*
X61238095Y-127557200D01*
X61238095Y-127557200D02*
X61190476Y-127509580D01*
X121181905Y-118564819D02*
X121181905Y-117564819D01*
X121181905Y-117564819D02*
X121420000Y-117564819D01*
X121420000Y-117564819D02*
X121562857Y-117612438D01*
X121562857Y-117612438D02*
X121658095Y-117707676D01*
X121658095Y-117707676D02*
X121705714Y-117802914D01*
X121705714Y-117802914D02*
X121753333Y-117993390D01*
X121753333Y-117993390D02*
X121753333Y-118136247D01*
X121753333Y-118136247D02*
X121705714Y-118326723D01*
X121705714Y-118326723D02*
X121658095Y-118421961D01*
X121658095Y-118421961D02*
X121562857Y-118517200D01*
X121562857Y-118517200D02*
X121420000Y-118564819D01*
X121420000Y-118564819D02*
X121181905Y-118564819D01*
X122658095Y-117564819D02*
X122181905Y-117564819D01*
X122181905Y-117564819D02*
X122134286Y-118041009D01*
X122134286Y-118041009D02*
X122181905Y-117993390D01*
X122181905Y-117993390D02*
X122277143Y-117945771D01*
X122277143Y-117945771D02*
X122515238Y-117945771D01*
X122515238Y-117945771D02*
X122610476Y-117993390D01*
X122610476Y-117993390D02*
X122658095Y-118041009D01*
X122658095Y-118041009D02*
X122705714Y-118136247D01*
X122705714Y-118136247D02*
X122705714Y-118374342D01*
X122705714Y-118374342D02*
X122658095Y-118469580D01*
X122658095Y-118469580D02*
X122610476Y-118517200D01*
X122610476Y-118517200D02*
X122515238Y-118564819D01*
X122515238Y-118564819D02*
X122277143Y-118564819D01*
X122277143Y-118564819D02*
X122181905Y-118517200D01*
X122181905Y-118517200D02*
X122134286Y-118469580D01*
X118574819Y-89153333D02*
X119289104Y-89153333D01*
X119289104Y-89153333D02*
X119431961Y-89200952D01*
X119431961Y-89200952D02*
X119527200Y-89296190D01*
X119527200Y-89296190D02*
X119574819Y-89439047D01*
X119574819Y-89439047D02*
X119574819Y-89534285D01*
X118908152Y-88248571D02*
X119574819Y-88248571D01*
X118527200Y-88486666D02*
X119241485Y-88724761D01*
X119241485Y-88724761D02*
X119241485Y-88105714D01*
X110309819Y-115736666D02*
X109833628Y-116069999D01*
X110309819Y-116308094D02*
X109309819Y-116308094D01*
X109309819Y-116308094D02*
X109309819Y-115927142D01*
X109309819Y-115927142D02*
X109357438Y-115831904D01*
X109357438Y-115831904D02*
X109405057Y-115784285D01*
X109405057Y-115784285D02*
X109500295Y-115736666D01*
X109500295Y-115736666D02*
X109643152Y-115736666D01*
X109643152Y-115736666D02*
X109738390Y-115784285D01*
X109738390Y-115784285D02*
X109786009Y-115831904D01*
X109786009Y-115831904D02*
X109833628Y-115927142D01*
X109833628Y-115927142D02*
X109833628Y-116308094D01*
X109309819Y-114879523D02*
X109309819Y-115069999D01*
X109309819Y-115069999D02*
X109357438Y-115165237D01*
X109357438Y-115165237D02*
X109405057Y-115212856D01*
X109405057Y-115212856D02*
X109547914Y-115308094D01*
X109547914Y-115308094D02*
X109738390Y-115355713D01*
X109738390Y-115355713D02*
X110119342Y-115355713D01*
X110119342Y-115355713D02*
X110214580Y-115308094D01*
X110214580Y-115308094D02*
X110262200Y-115260475D01*
X110262200Y-115260475D02*
X110309819Y-115165237D01*
X110309819Y-115165237D02*
X110309819Y-114974761D01*
X110309819Y-114974761D02*
X110262200Y-114879523D01*
X110262200Y-114879523D02*
X110214580Y-114831904D01*
X110214580Y-114831904D02*
X110119342Y-114784285D01*
X110119342Y-114784285D02*
X109881247Y-114784285D01*
X109881247Y-114784285D02*
X109786009Y-114831904D01*
X109786009Y-114831904D02*
X109738390Y-114879523D01*
X109738390Y-114879523D02*
X109690771Y-114974761D01*
X109690771Y-114974761D02*
X109690771Y-115165237D01*
X109690771Y-115165237D02*
X109738390Y-115260475D01*
X109738390Y-115260475D02*
X109786009Y-115308094D01*
X109786009Y-115308094D02*
X109881247Y-115355713D01*
X56594476Y-123914819D02*
X56594476Y-124629104D01*
X56594476Y-124629104D02*
X56546857Y-124771961D01*
X56546857Y-124771961D02*
X56451619Y-124867200D01*
X56451619Y-124867200D02*
X56308762Y-124914819D01*
X56308762Y-124914819D02*
X56213524Y-124914819D01*
X57594476Y-124914819D02*
X57023048Y-124914819D01*
X57308762Y-124914819D02*
X57308762Y-123914819D01*
X57308762Y-123914819D02*
X57213524Y-124057676D01*
X57213524Y-124057676D02*
X57118286Y-124152914D01*
X57118286Y-124152914D02*
X57023048Y-124200533D01*
X58213524Y-123914819D02*
X58308762Y-123914819D01*
X58308762Y-123914819D02*
X58404000Y-123962438D01*
X58404000Y-123962438D02*
X58451619Y-124010057D01*
X58451619Y-124010057D02*
X58499238Y-124105295D01*
X58499238Y-124105295D02*
X58546857Y-124295771D01*
X58546857Y-124295771D02*
X58546857Y-124533866D01*
X58546857Y-124533866D02*
X58499238Y-124724342D01*
X58499238Y-124724342D02*
X58451619Y-124819580D01*
X58451619Y-124819580D02*
X58404000Y-124867200D01*
X58404000Y-124867200D02*
X58308762Y-124914819D01*
X58308762Y-124914819D02*
X58213524Y-124914819D01*
X58213524Y-124914819D02*
X58118286Y-124867200D01*
X58118286Y-124867200D02*
X58070667Y-124819580D01*
X58070667Y-124819580D02*
X58023048Y-124724342D01*
X58023048Y-124724342D02*
X57975429Y-124533866D01*
X57975429Y-124533866D02*
X57975429Y-124295771D01*
X57975429Y-124295771D02*
X58023048Y-124105295D01*
X58023048Y-124105295D02*
X58070667Y-124010057D01*
X58070667Y-124010057D02*
X58118286Y-123962438D01*
X58118286Y-123962438D02*
X58213524Y-123914819D01*
X91259819Y-126724166D02*
X90783628Y-127057499D01*
X91259819Y-127295594D02*
X90259819Y-127295594D01*
X90259819Y-127295594D02*
X90259819Y-126914642D01*
X90259819Y-126914642D02*
X90307438Y-126819404D01*
X90307438Y-126819404D02*
X90355057Y-126771785D01*
X90355057Y-126771785D02*
X90450295Y-126724166D01*
X90450295Y-126724166D02*
X90593152Y-126724166D01*
X90593152Y-126724166D02*
X90688390Y-126771785D01*
X90688390Y-126771785D02*
X90736009Y-126819404D01*
X90736009Y-126819404D02*
X90783628Y-126914642D01*
X90783628Y-126914642D02*
X90783628Y-127295594D01*
X90259819Y-126390832D02*
X90259819Y-125724166D01*
X90259819Y-125724166D02*
X91259819Y-126152737D01*
X111335819Y-136025904D02*
X112145342Y-136025904D01*
X112145342Y-136025904D02*
X112240580Y-135978285D01*
X112240580Y-135978285D02*
X112288200Y-135930666D01*
X112288200Y-135930666D02*
X112335819Y-135835428D01*
X112335819Y-135835428D02*
X112335819Y-135644952D01*
X112335819Y-135644952D02*
X112288200Y-135549714D01*
X112288200Y-135549714D02*
X112240580Y-135502095D01*
X112240580Y-135502095D02*
X112145342Y-135454476D01*
X112145342Y-135454476D02*
X111335819Y-135454476D01*
X112335819Y-134454476D02*
X112335819Y-135025904D01*
X112335819Y-134740190D02*
X111335819Y-134740190D01*
X111335819Y-134740190D02*
X111478676Y-134835428D01*
X111478676Y-134835428D02*
X111573914Y-134930666D01*
X111573914Y-134930666D02*
X111621533Y-135025904D01*
X65680833Y-74834819D02*
X65347500Y-74358628D01*
X65109405Y-74834819D02*
X65109405Y-73834819D01*
X65109405Y-73834819D02*
X65490357Y-73834819D01*
X65490357Y-73834819D02*
X65585595Y-73882438D01*
X65585595Y-73882438D02*
X65633214Y-73930057D01*
X65633214Y-73930057D02*
X65680833Y-74025295D01*
X65680833Y-74025295D02*
X65680833Y-74168152D01*
X65680833Y-74168152D02*
X65633214Y-74263390D01*
X65633214Y-74263390D02*
X65585595Y-74311009D01*
X65585595Y-74311009D02*
X65490357Y-74358628D01*
X65490357Y-74358628D02*
X65109405Y-74358628D01*
X66585595Y-73834819D02*
X66109405Y-73834819D01*
X66109405Y-73834819D02*
X66061786Y-74311009D01*
X66061786Y-74311009D02*
X66109405Y-74263390D01*
X66109405Y-74263390D02*
X66204643Y-74215771D01*
X66204643Y-74215771D02*
X66442738Y-74215771D01*
X66442738Y-74215771D02*
X66537976Y-74263390D01*
X66537976Y-74263390D02*
X66585595Y-74311009D01*
X66585595Y-74311009D02*
X66633214Y-74406247D01*
X66633214Y-74406247D02*
X66633214Y-74644342D01*
X66633214Y-74644342D02*
X66585595Y-74739580D01*
X66585595Y-74739580D02*
X66537976Y-74787200D01*
X66537976Y-74787200D02*
X66442738Y-74834819D01*
X66442738Y-74834819D02*
X66204643Y-74834819D01*
X66204643Y-74834819D02*
X66109405Y-74787200D01*
X66109405Y-74787200D02*
X66061786Y-74739580D01*
X61430819Y-102441333D02*
X62145104Y-102441333D01*
X62145104Y-102441333D02*
X62287961Y-102488952D01*
X62287961Y-102488952D02*
X62383200Y-102584190D01*
X62383200Y-102584190D02*
X62430819Y-102727047D01*
X62430819Y-102727047D02*
X62430819Y-102822285D01*
X61859390Y-101822285D02*
X61811771Y-101917523D01*
X61811771Y-101917523D02*
X61764152Y-101965142D01*
X61764152Y-101965142D02*
X61668914Y-102012761D01*
X61668914Y-102012761D02*
X61621295Y-102012761D01*
X61621295Y-102012761D02*
X61526057Y-101965142D01*
X61526057Y-101965142D02*
X61478438Y-101917523D01*
X61478438Y-101917523D02*
X61430819Y-101822285D01*
X61430819Y-101822285D02*
X61430819Y-101631809D01*
X61430819Y-101631809D02*
X61478438Y-101536571D01*
X61478438Y-101536571D02*
X61526057Y-101488952D01*
X61526057Y-101488952D02*
X61621295Y-101441333D01*
X61621295Y-101441333D02*
X61668914Y-101441333D01*
X61668914Y-101441333D02*
X61764152Y-101488952D01*
X61764152Y-101488952D02*
X61811771Y-101536571D01*
X61811771Y-101536571D02*
X61859390Y-101631809D01*
X61859390Y-101631809D02*
X61859390Y-101822285D01*
X61859390Y-101822285D02*
X61907009Y-101917523D01*
X61907009Y-101917523D02*
X61954628Y-101965142D01*
X61954628Y-101965142D02*
X62049866Y-102012761D01*
X62049866Y-102012761D02*
X62240342Y-102012761D01*
X62240342Y-102012761D02*
X62335580Y-101965142D01*
X62335580Y-101965142D02*
X62383200Y-101917523D01*
X62383200Y-101917523D02*
X62430819Y-101822285D01*
X62430819Y-101822285D02*
X62430819Y-101631809D01*
X62430819Y-101631809D02*
X62383200Y-101536571D01*
X62383200Y-101536571D02*
X62335580Y-101488952D01*
X62335580Y-101488952D02*
X62240342Y-101441333D01*
X62240342Y-101441333D02*
X62049866Y-101441333D01*
X62049866Y-101441333D02*
X61954628Y-101488952D01*
X61954628Y-101488952D02*
X61907009Y-101536571D01*
X61907009Y-101536571D02*
X61859390Y-101631809D01*
X105229819Y-116308094D02*
X104229819Y-116308094D01*
X104229819Y-116308094D02*
X104229819Y-116069999D01*
X104229819Y-116069999D02*
X104277438Y-115927142D01*
X104277438Y-115927142D02*
X104372676Y-115831904D01*
X104372676Y-115831904D02*
X104467914Y-115784285D01*
X104467914Y-115784285D02*
X104658390Y-115736666D01*
X104658390Y-115736666D02*
X104801247Y-115736666D01*
X104801247Y-115736666D02*
X104991723Y-115784285D01*
X104991723Y-115784285D02*
X105086961Y-115831904D01*
X105086961Y-115831904D02*
X105182200Y-115927142D01*
X105182200Y-115927142D02*
X105229819Y-116069999D01*
X105229819Y-116069999D02*
X105229819Y-116308094D01*
X104325057Y-115355713D02*
X104277438Y-115308094D01*
X104277438Y-115308094D02*
X104229819Y-115212856D01*
X104229819Y-115212856D02*
X104229819Y-114974761D01*
X104229819Y-114974761D02*
X104277438Y-114879523D01*
X104277438Y-114879523D02*
X104325057Y-114831904D01*
X104325057Y-114831904D02*
X104420295Y-114784285D01*
X104420295Y-114784285D02*
X104515533Y-114784285D01*
X104515533Y-114784285D02*
X104658390Y-114831904D01*
X104658390Y-114831904D02*
X105229819Y-115403332D01*
X105229819Y-115403332D02*
X105229819Y-114784285D01*
X81581666Y-128359819D02*
X81581666Y-129074104D01*
X81581666Y-129074104D02*
X81534047Y-129216961D01*
X81534047Y-129216961D02*
X81438809Y-129312200D01*
X81438809Y-129312200D02*
X81295952Y-129359819D01*
X81295952Y-129359819D02*
X81200714Y-129359819D01*
X82010238Y-128455057D02*
X82057857Y-128407438D01*
X82057857Y-128407438D02*
X82153095Y-128359819D01*
X82153095Y-128359819D02*
X82391190Y-128359819D01*
X82391190Y-128359819D02*
X82486428Y-128407438D01*
X82486428Y-128407438D02*
X82534047Y-128455057D01*
X82534047Y-128455057D02*
X82581666Y-128550295D01*
X82581666Y-128550295D02*
X82581666Y-128645533D01*
X82581666Y-128645533D02*
X82534047Y-128788390D01*
X82534047Y-128788390D02*
X81962619Y-129359819D01*
X81962619Y-129359819D02*
X82581666Y-129359819D01*
X60091905Y-82454819D02*
X60091905Y-81454819D01*
X60091905Y-81454819D02*
X60330000Y-81454819D01*
X60330000Y-81454819D02*
X60472857Y-81502438D01*
X60472857Y-81502438D02*
X60568095Y-81597676D01*
X60568095Y-81597676D02*
X60615714Y-81692914D01*
X60615714Y-81692914D02*
X60663333Y-81883390D01*
X60663333Y-81883390D02*
X60663333Y-82026247D01*
X60663333Y-82026247D02*
X60615714Y-82216723D01*
X60615714Y-82216723D02*
X60568095Y-82311961D01*
X60568095Y-82311961D02*
X60472857Y-82407200D01*
X60472857Y-82407200D02*
X60330000Y-82454819D01*
X60330000Y-82454819D02*
X60091905Y-82454819D01*
X61615714Y-82454819D02*
X61044286Y-82454819D01*
X61330000Y-82454819D02*
X61330000Y-81454819D01*
X61330000Y-81454819D02*
X61234762Y-81597676D01*
X61234762Y-81597676D02*
X61139524Y-81692914D01*
X61139524Y-81692914D02*
X61044286Y-81740533D01*
X129003580Y-125896666D02*
X129051200Y-125944285D01*
X129051200Y-125944285D02*
X129098819Y-126087142D01*
X129098819Y-126087142D02*
X129098819Y-126182380D01*
X129098819Y-126182380D02*
X129051200Y-126325237D01*
X129051200Y-126325237D02*
X128955961Y-126420475D01*
X128955961Y-126420475D02*
X128860723Y-126468094D01*
X128860723Y-126468094D02*
X128670247Y-126515713D01*
X128670247Y-126515713D02*
X128527390Y-126515713D01*
X128527390Y-126515713D02*
X128336914Y-126468094D01*
X128336914Y-126468094D02*
X128241676Y-126420475D01*
X128241676Y-126420475D02*
X128146438Y-126325237D01*
X128146438Y-126325237D02*
X128098819Y-126182380D01*
X128098819Y-126182380D02*
X128098819Y-126087142D01*
X128098819Y-126087142D02*
X128146438Y-125944285D01*
X128146438Y-125944285D02*
X128194057Y-125896666D01*
X129098819Y-124944285D02*
X129098819Y-125515713D01*
X129098819Y-125229999D02*
X128098819Y-125229999D01*
X128098819Y-125229999D02*
X128241676Y-125325237D01*
X128241676Y-125325237D02*
X128336914Y-125420475D01*
X128336914Y-125420475D02*
X128384533Y-125515713D01*
X73564819Y-127200357D02*
X73088628Y-127533690D01*
X73564819Y-127771785D02*
X72564819Y-127771785D01*
X72564819Y-127771785D02*
X72564819Y-127390833D01*
X72564819Y-127390833D02*
X72612438Y-127295595D01*
X72612438Y-127295595D02*
X72660057Y-127247976D01*
X72660057Y-127247976D02*
X72755295Y-127200357D01*
X72755295Y-127200357D02*
X72898152Y-127200357D01*
X72898152Y-127200357D02*
X72993390Y-127247976D01*
X72993390Y-127247976D02*
X73041009Y-127295595D01*
X73041009Y-127295595D02*
X73088628Y-127390833D01*
X73088628Y-127390833D02*
X73088628Y-127771785D01*
X73564819Y-126247976D02*
X73564819Y-126819404D01*
X73564819Y-126533690D02*
X72564819Y-126533690D01*
X72564819Y-126533690D02*
X72707676Y-126628928D01*
X72707676Y-126628928D02*
X72802914Y-126724166D01*
X72802914Y-126724166D02*
X72850533Y-126819404D01*
X72564819Y-125628928D02*
X72564819Y-125533690D01*
X72564819Y-125533690D02*
X72612438Y-125438452D01*
X72612438Y-125438452D02*
X72660057Y-125390833D01*
X72660057Y-125390833D02*
X72755295Y-125343214D01*
X72755295Y-125343214D02*
X72945771Y-125295595D01*
X72945771Y-125295595D02*
X73183866Y-125295595D01*
X73183866Y-125295595D02*
X73374342Y-125343214D01*
X73374342Y-125343214D02*
X73469580Y-125390833D01*
X73469580Y-125390833D02*
X73517200Y-125438452D01*
X73517200Y-125438452D02*
X73564819Y-125533690D01*
X73564819Y-125533690D02*
X73564819Y-125628928D01*
X73564819Y-125628928D02*
X73517200Y-125724166D01*
X73517200Y-125724166D02*
X73469580Y-125771785D01*
X73469580Y-125771785D02*
X73374342Y-125819404D01*
X73374342Y-125819404D02*
X73183866Y-125867023D01*
X73183866Y-125867023D02*
X72945771Y-125867023D01*
X72945771Y-125867023D02*
X72755295Y-125819404D01*
X72755295Y-125819404D02*
X72660057Y-125771785D01*
X72660057Y-125771785D02*
X72612438Y-125724166D01*
X72612438Y-125724166D02*
X72564819Y-125628928D01*
X98238095Y-127604819D02*
X98238095Y-126604819D01*
X98238095Y-127081009D02*
X98809523Y-127081009D01*
X98809523Y-127604819D02*
X98809523Y-126604819D01*
X99238095Y-126700057D02*
X99285714Y-126652438D01*
X99285714Y-126652438D02*
X99380952Y-126604819D01*
X99380952Y-126604819D02*
X99619047Y-126604819D01*
X99619047Y-126604819D02*
X99714285Y-126652438D01*
X99714285Y-126652438D02*
X99761904Y-126700057D01*
X99761904Y-126700057D02*
X99809523Y-126795295D01*
X99809523Y-126795295D02*
X99809523Y-126890533D01*
X99809523Y-126890533D02*
X99761904Y-127033390D01*
X99761904Y-127033390D02*
X99190476Y-127604819D01*
X99190476Y-127604819D02*
X99809523Y-127604819D01*
X62063333Y-119834819D02*
X61730000Y-119358628D01*
X61491905Y-119834819D02*
X61491905Y-118834819D01*
X61491905Y-118834819D02*
X61872857Y-118834819D01*
X61872857Y-118834819D02*
X61968095Y-118882438D01*
X61968095Y-118882438D02*
X62015714Y-118930057D01*
X62015714Y-118930057D02*
X62063333Y-119025295D01*
X62063333Y-119025295D02*
X62063333Y-119168152D01*
X62063333Y-119168152D02*
X62015714Y-119263390D01*
X62015714Y-119263390D02*
X61968095Y-119311009D01*
X61968095Y-119311009D02*
X61872857Y-119358628D01*
X61872857Y-119358628D02*
X61491905Y-119358628D01*
X62444286Y-118930057D02*
X62491905Y-118882438D01*
X62491905Y-118882438D02*
X62587143Y-118834819D01*
X62587143Y-118834819D02*
X62825238Y-118834819D01*
X62825238Y-118834819D02*
X62920476Y-118882438D01*
X62920476Y-118882438D02*
X62968095Y-118930057D01*
X62968095Y-118930057D02*
X63015714Y-119025295D01*
X63015714Y-119025295D02*
X63015714Y-119120533D01*
X63015714Y-119120533D02*
X62968095Y-119263390D01*
X62968095Y-119263390D02*
X62396667Y-119834819D01*
X62396667Y-119834819D02*
X63015714Y-119834819D01*
X110954819Y-78993333D02*
X111669104Y-78993333D01*
X111669104Y-78993333D02*
X111811961Y-79040952D01*
X111811961Y-79040952D02*
X111907200Y-79136190D01*
X111907200Y-79136190D02*
X111954819Y-79279047D01*
X111954819Y-79279047D02*
X111954819Y-79374285D01*
X110954819Y-78612380D02*
X110954819Y-77993333D01*
X110954819Y-77993333D02*
X111335771Y-78326666D01*
X111335771Y-78326666D02*
X111335771Y-78183809D01*
X111335771Y-78183809D02*
X111383390Y-78088571D01*
X111383390Y-78088571D02*
X111431009Y-78040952D01*
X111431009Y-78040952D02*
X111526247Y-77993333D01*
X111526247Y-77993333D02*
X111764342Y-77993333D01*
X111764342Y-77993333D02*
X111859580Y-78040952D01*
X111859580Y-78040952D02*
X111907200Y-78088571D01*
X111907200Y-78088571D02*
X111954819Y-78183809D01*
X111954819Y-78183809D02*
X111954819Y-78469523D01*
X111954819Y-78469523D02*
X111907200Y-78564761D01*
X111907200Y-78564761D02*
X111859580Y-78612380D01*
X65680833Y-86094819D02*
X65347500Y-85618628D01*
X65109405Y-86094819D02*
X65109405Y-85094819D01*
X65109405Y-85094819D02*
X65490357Y-85094819D01*
X65490357Y-85094819D02*
X65585595Y-85142438D01*
X65585595Y-85142438D02*
X65633214Y-85190057D01*
X65633214Y-85190057D02*
X65680833Y-85285295D01*
X65680833Y-85285295D02*
X65680833Y-85428152D01*
X65680833Y-85428152D02*
X65633214Y-85523390D01*
X65633214Y-85523390D02*
X65585595Y-85571009D01*
X65585595Y-85571009D02*
X65490357Y-85618628D01*
X65490357Y-85618628D02*
X65109405Y-85618628D01*
X66537976Y-85428152D02*
X66537976Y-86094819D01*
X66299881Y-85047200D02*
X66061786Y-85761485D01*
X66061786Y-85761485D02*
X66680833Y-85761485D01*
X117834580Y-129706666D02*
X117882200Y-129754285D01*
X117882200Y-129754285D02*
X117929819Y-129897142D01*
X117929819Y-129897142D02*
X117929819Y-129992380D01*
X117929819Y-129992380D02*
X117882200Y-130135237D01*
X117882200Y-130135237D02*
X117786961Y-130230475D01*
X117786961Y-130230475D02*
X117691723Y-130278094D01*
X117691723Y-130278094D02*
X117501247Y-130325713D01*
X117501247Y-130325713D02*
X117358390Y-130325713D01*
X117358390Y-130325713D02*
X117167914Y-130278094D01*
X117167914Y-130278094D02*
X117072676Y-130230475D01*
X117072676Y-130230475D02*
X116977438Y-130135237D01*
X116977438Y-130135237D02*
X116929819Y-129992380D01*
X116929819Y-129992380D02*
X116929819Y-129897142D01*
X116929819Y-129897142D02*
X116977438Y-129754285D01*
X116977438Y-129754285D02*
X117025057Y-129706666D01*
X116929819Y-129373332D02*
X116929819Y-128754285D01*
X116929819Y-128754285D02*
X117310771Y-129087618D01*
X117310771Y-129087618D02*
X117310771Y-128944761D01*
X117310771Y-128944761D02*
X117358390Y-128849523D01*
X117358390Y-128849523D02*
X117406009Y-128801904D01*
X117406009Y-128801904D02*
X117501247Y-128754285D01*
X117501247Y-128754285D02*
X117739342Y-128754285D01*
X117739342Y-128754285D02*
X117834580Y-128801904D01*
X117834580Y-128801904D02*
X117882200Y-128849523D01*
X117882200Y-128849523D02*
X117929819Y-128944761D01*
X117929819Y-128944761D02*
X117929819Y-129230475D01*
X117929819Y-129230475D02*
X117882200Y-129325713D01*
X117882200Y-129325713D02*
X117834580Y-129373332D01*
X84994819Y-126724166D02*
X84518628Y-127057499D01*
X84994819Y-127295594D02*
X83994819Y-127295594D01*
X83994819Y-127295594D02*
X83994819Y-126914642D01*
X83994819Y-126914642D02*
X84042438Y-126819404D01*
X84042438Y-126819404D02*
X84090057Y-126771785D01*
X84090057Y-126771785D02*
X84185295Y-126724166D01*
X84185295Y-126724166D02*
X84328152Y-126724166D01*
X84328152Y-126724166D02*
X84423390Y-126771785D01*
X84423390Y-126771785D02*
X84471009Y-126819404D01*
X84471009Y-126819404D02*
X84518628Y-126914642D01*
X84518628Y-126914642D02*
X84518628Y-127295594D01*
X84423390Y-126152737D02*
X84375771Y-126247975D01*
X84375771Y-126247975D02*
X84328152Y-126295594D01*
X84328152Y-126295594D02*
X84232914Y-126343213D01*
X84232914Y-126343213D02*
X84185295Y-126343213D01*
X84185295Y-126343213D02*
X84090057Y-126295594D01*
X84090057Y-126295594D02*
X84042438Y-126247975D01*
X84042438Y-126247975D02*
X83994819Y-126152737D01*
X83994819Y-126152737D02*
X83994819Y-125962261D01*
X83994819Y-125962261D02*
X84042438Y-125867023D01*
X84042438Y-125867023D02*
X84090057Y-125819404D01*
X84090057Y-125819404D02*
X84185295Y-125771785D01*
X84185295Y-125771785D02*
X84232914Y-125771785D01*
X84232914Y-125771785D02*
X84328152Y-125819404D01*
X84328152Y-125819404D02*
X84375771Y-125867023D01*
X84375771Y-125867023D02*
X84423390Y-125962261D01*
X84423390Y-125962261D02*
X84423390Y-126152737D01*
X84423390Y-126152737D02*
X84471009Y-126247975D01*
X84471009Y-126247975D02*
X84518628Y-126295594D01*
X84518628Y-126295594D02*
X84613866Y-126343213D01*
X84613866Y-126343213D02*
X84804342Y-126343213D01*
X84804342Y-126343213D02*
X84899580Y-126295594D01*
X84899580Y-126295594D02*
X84947200Y-126247975D01*
X84947200Y-126247975D02*
X84994819Y-126152737D01*
X84994819Y-126152737D02*
X84994819Y-125962261D01*
X84994819Y-125962261D02*
X84947200Y-125867023D01*
X84947200Y-125867023D02*
X84899580Y-125819404D01*
X84899580Y-125819404D02*
X84804342Y-125771785D01*
X84804342Y-125771785D02*
X84613866Y-125771785D01*
X84613866Y-125771785D02*
X84518628Y-125819404D01*
X84518628Y-125819404D02*
X84471009Y-125867023D01*
X84471009Y-125867023D02*
X84423390Y-125962261D01*
D11*
X69510000Y-72290000D02*
X69510000Y-72590000D01*
X69510000Y-72290000D02*
X90510000Y-72290000D01*
X69510000Y-74690000D02*
X69510000Y-75090000D01*
X69510000Y-74957000D02*
X72517000Y-74957000D01*
X69510000Y-77290000D02*
X69510000Y-77690000D01*
X69510000Y-79790000D02*
X69510000Y-80190000D01*
X69510000Y-82390000D02*
X69510000Y-82790000D01*
X69510000Y-84890000D02*
X69510000Y-85290000D01*
X69510000Y-87390000D02*
X69510000Y-87790000D01*
X69510000Y-89990000D02*
X69510000Y-90390000D01*
X69510000Y-92490000D02*
X69510000Y-92890000D01*
X69510000Y-95090000D02*
X69510000Y-95490000D01*
X69510000Y-97590000D02*
X69510000Y-97990000D01*
X69510000Y-100090000D02*
X69510000Y-100490000D01*
X69510000Y-102690000D02*
X69510000Y-103090000D01*
X69510000Y-105190000D02*
X69510000Y-105590000D01*
X69510000Y-107790000D02*
X69510000Y-108190000D01*
X69510000Y-110290000D02*
X69510000Y-110690000D01*
X69510000Y-112890000D02*
X69510000Y-113290000D01*
X69510000Y-115390000D02*
X69510000Y-115790000D01*
X69510000Y-117890000D02*
X69510000Y-118290000D01*
X69510000Y-120490000D02*
X69510000Y-120890000D01*
X72517000Y-74957000D02*
X72517000Y-72290000D01*
X90510000Y-123290000D02*
X69510000Y-123290000D01*
X90510000Y-72290000D02*
X90510000Y-72590000D01*
X90510000Y-74690000D02*
X90510000Y-75090000D01*
X90510000Y-77290000D02*
X90510000Y-77690000D01*
X90510000Y-79790000D02*
X90510000Y-80190000D01*
X90510000Y-82390000D02*
X90510000Y-82790000D01*
X90510000Y-84890000D02*
X90510000Y-85290000D01*
X90510000Y-87390000D02*
X90510000Y-87790000D01*
X90510000Y-89990000D02*
X90510000Y-90390000D01*
X90510000Y-92490000D02*
X90510000Y-92890000D01*
X90510000Y-95090000D02*
X90510000Y-95490000D01*
X90510000Y-97590000D02*
X90510000Y-97990000D01*
X90510000Y-100090000D02*
X90510000Y-100490000D01*
X90510000Y-102690000D02*
X90510000Y-103090000D01*
X90510000Y-105190000D02*
X90510000Y-105590000D01*
X90510000Y-107790000D02*
X90510000Y-108190000D01*
X90510000Y-110290000D02*
X90510000Y-110690000D01*
X90510000Y-112890000D02*
X90510000Y-113290000D01*
X90510000Y-115390000D02*
X90510000Y-115790000D01*
X90510000Y-117890000D02*
X90510000Y-118290000D01*
X90510000Y-120490000D02*
X90510000Y-120890000D01*
X130530000Y-107200000D02*
X130530000Y-108700000D01*
X130530000Y-104340000D02*
X130530000Y-116560000D01*
X132030000Y-116560000D02*
X132030000Y-104340000D01*
X132030000Y-104340000D02*
X119810000Y-104340000D01*
X128730000Y-116560000D02*
X128730000Y-104340000D01*
X132030000Y-111950000D02*
X130530000Y-112200000D01*
X130530000Y-116560000D02*
X128730000Y-116560000D01*
X119610000Y-112950000D02*
X119010000Y-113250000D01*
X132030000Y-106950000D02*
X130530000Y-107200000D01*
X119810000Y-116560000D02*
X132030000Y-116560000D01*
X119010000Y-112650000D02*
X119610000Y-112950000D01*
X119810000Y-104340000D02*
X119810000Y-116560000D01*
X119010000Y-113250000D02*
X119010000Y-112650000D01*
X132030000Y-108950000D02*
X132030000Y-106950000D01*
X130530000Y-113700000D02*
X132030000Y-113950000D01*
X128730000Y-104340000D02*
X130530000Y-104340000D01*
X130530000Y-108700000D02*
X132030000Y-108950000D01*
X130530000Y-112200000D02*
X130530000Y-113700000D01*
X132030000Y-113950000D02*
X132030000Y-111950000D01*
X130530000Y-93865000D02*
X130530000Y-95365000D01*
X130530000Y-91005000D02*
X130530000Y-103225000D01*
X132030000Y-103225000D02*
X132030000Y-91005000D01*
X132030000Y-91005000D02*
X119810000Y-91005000D01*
X128730000Y-103225000D02*
X128730000Y-91005000D01*
X132030000Y-98615000D02*
X130530000Y-98865000D01*
X130530000Y-103225000D02*
X128730000Y-103225000D01*
X119610000Y-99615000D02*
X119010000Y-99915000D01*
X132030000Y-93615000D02*
X130530000Y-93865000D01*
X119810000Y-103225000D02*
X132030000Y-103225000D01*
X119010000Y-99315000D02*
X119610000Y-99615000D01*
X119810000Y-91005000D02*
X119810000Y-103225000D01*
X119010000Y-99915000D02*
X119010000Y-99315000D01*
X132030000Y-95615000D02*
X132030000Y-93615000D01*
X130530000Y-100365000D02*
X132030000Y-100615000D01*
X128730000Y-91005000D02*
X130530000Y-91005000D01*
X130530000Y-95365000D02*
X132030000Y-95615000D01*
X130530000Y-98865000D02*
X130530000Y-100365000D01*
X132030000Y-100615000D02*
X132030000Y-98615000D01*
X106405000Y-120299564D02*
X106405000Y-118845436D01*
X108225000Y-120299564D02*
X108225000Y-118845436D01*
X80030000Y-136225000D02*
X80030000Y-130255000D01*
X80030000Y-130255000D02*
X69910000Y-130255000D01*
X80020000Y-132515000D02*
X79270000Y-132515000D01*
X80020000Y-131015000D02*
X80020000Y-130265000D01*
X80020000Y-130265000D02*
X78220000Y-130265000D01*
X79270000Y-135465000D02*
X74970000Y-135465000D01*
X79270000Y-132515000D02*
X79270000Y-135465000D01*
X78220000Y-131015000D02*
X80020000Y-131015000D01*
X78220000Y-130265000D02*
X78220000Y-131015000D01*
X76720000Y-131015000D02*
X76720000Y-130265000D01*
X76720000Y-130265000D02*
X73220000Y-130265000D01*
X73220000Y-131015000D02*
X76720000Y-131015000D01*
X73220000Y-130265000D02*
X73220000Y-131015000D01*
X71720000Y-131015000D02*
X71720000Y-130265000D01*
X71720000Y-130265000D02*
X69920000Y-130265000D01*
X70870000Y-129965000D02*
X69620000Y-129965000D01*
X70670000Y-135465000D02*
X74970000Y-135465000D01*
X70670000Y-132515000D02*
X70670000Y-135465000D01*
X69920000Y-132515000D02*
X70670000Y-132515000D01*
X69920000Y-131015000D02*
X71720000Y-131015000D01*
X69920000Y-130265000D02*
X69920000Y-131015000D01*
X69910000Y-136225000D02*
X80030000Y-136225000D01*
X69910000Y-130255000D02*
X69910000Y-136225000D01*
X69620000Y-129965000D02*
X69620000Y-131215000D01*
X104440000Y-110350000D02*
X110410000Y-110350000D01*
X110410000Y-110350000D02*
X110410000Y-95230000D01*
X108150000Y-110340000D02*
X108150000Y-109590000D01*
X109650000Y-110340000D02*
X110400000Y-110340000D01*
X110400000Y-110340000D02*
X110400000Y-108540000D01*
X105200000Y-109590000D02*
X105200000Y-102790000D01*
X108150000Y-109590000D02*
X105200000Y-109590000D01*
X109650000Y-108540000D02*
X109650000Y-110340000D01*
X110400000Y-108540000D02*
X109650000Y-108540000D01*
X109650000Y-107040000D02*
X110400000Y-107040000D01*
X110400000Y-107040000D02*
X110400000Y-98540000D01*
X109650000Y-98540000D02*
X109650000Y-107040000D01*
X110400000Y-98540000D02*
X109650000Y-98540000D01*
X109650000Y-97040000D02*
X110400000Y-97040000D01*
X110400000Y-97040000D02*
X110400000Y-95240000D01*
X110700000Y-96190000D02*
X110700000Y-94940000D01*
X105200000Y-95990000D02*
X105200000Y-102790000D01*
X108150000Y-95990000D02*
X105200000Y-95990000D01*
X108150000Y-95240000D02*
X108150000Y-95990000D01*
X109650000Y-95240000D02*
X109650000Y-97040000D01*
X110400000Y-95240000D02*
X109650000Y-95240000D01*
X104440000Y-95230000D02*
X104440000Y-110350000D01*
X110410000Y-95230000D02*
X104440000Y-95230000D01*
X110700000Y-94940000D02*
X109450000Y-94940000D01*
X78380000Y-127284564D02*
X78380000Y-125830436D01*
X76560000Y-127284564D02*
X76560000Y-125830436D01*
X96790000Y-96460000D02*
G75*
G03*
X98790000Y-96460000I1000000J0D01*
G01*
X102930000Y-119500000D02*
X102930000Y-96400000D01*
X102930000Y-96400000D02*
X92650000Y-96400000D01*
X100440000Y-119440000D02*
X100440000Y-96460000D01*
X100440000Y-96460000D02*
X98790000Y-96460000D01*
X96790000Y-96460000D02*
X95140000Y-96460000D01*
X95140000Y-119440000D02*
X100440000Y-119440000D01*
X95140000Y-96460000D02*
X95140000Y-119440000D01*
X92650000Y-119500000D02*
X102930000Y-119500000D01*
X92650000Y-96400000D02*
X92650000Y-119500000D01*
X54400000Y-114904000D02*
X55650000Y-114904000D01*
X54690000Y-114614000D02*
X60660000Y-114614000D01*
X60660000Y-114614000D02*
X60660000Y-106994000D01*
X54700000Y-114604000D02*
X55450000Y-114604000D01*
X55450000Y-114604000D02*
X55450000Y-112804000D01*
X56950000Y-114604000D02*
X56950000Y-113854000D01*
X56950000Y-113854000D02*
X59900000Y-113854000D01*
X59900000Y-113854000D02*
X59900000Y-110804000D01*
X54400000Y-113654000D02*
X54400000Y-114904000D01*
X54700000Y-112804000D02*
X54700000Y-114604000D01*
X55450000Y-112804000D02*
X54700000Y-112804000D01*
X54700000Y-111304000D02*
X55450000Y-111304000D01*
X55450000Y-111304000D02*
X55450000Y-110304000D01*
X54700000Y-110304000D02*
X54700000Y-111304000D01*
X55450000Y-110304000D02*
X54700000Y-110304000D01*
X54700000Y-108804000D02*
X55450000Y-108804000D01*
X55450000Y-108804000D02*
X55450000Y-107004000D01*
X56950000Y-107754000D02*
X59900000Y-107754000D01*
X59900000Y-107754000D02*
X59900000Y-110804000D01*
X54700000Y-107004000D02*
X54700000Y-108804000D01*
X55450000Y-107004000D02*
X54700000Y-107004000D01*
X56950000Y-107004000D02*
X56950000Y-107754000D01*
X54690000Y-106994000D02*
X54690000Y-114614000D01*
X60660000Y-106994000D02*
X54690000Y-106994000D01*
X106405000Y-125018748D02*
X106405000Y-126441252D01*
X108225000Y-125018748D02*
X108225000Y-126441252D01*
X65120436Y-122830000D02*
X66574564Y-122830000D01*
X65120436Y-121010000D02*
X66574564Y-121010000D01*
X65120436Y-82190000D02*
X66574564Y-82190000D01*
X65120436Y-80370000D02*
X66574564Y-80370000D01*
X96790000Y-72330000D02*
G75*
G03*
X98790000Y-72330000I1000000J0D01*
G01*
X102930000Y-95370000D02*
X102930000Y-72270000D01*
X102930000Y-72270000D02*
X92650000Y-72270000D01*
X100440000Y-95310000D02*
X100440000Y-72330000D01*
X100440000Y-72330000D02*
X98790000Y-72330000D01*
X96790000Y-72330000D02*
X95140000Y-72330000D01*
X95140000Y-95310000D02*
X100440000Y-95310000D01*
X95140000Y-72330000D02*
X95140000Y-95310000D01*
X92650000Y-95370000D02*
X102930000Y-95370000D01*
X92650000Y-72270000D02*
X92650000Y-95370000D01*
X54360000Y-75160000D02*
X54360000Y-76660000D01*
X55610000Y-79160000D02*
X60110000Y-79160000D01*
X60110000Y-72660000D02*
X55610000Y-72660000D01*
X61360000Y-76660000D02*
X61360000Y-75160000D01*
X54400000Y-97632000D02*
X55650000Y-97632000D01*
X54690000Y-97342000D02*
X60660000Y-97342000D01*
X60660000Y-97342000D02*
X60660000Y-89722000D01*
X54700000Y-97332000D02*
X55450000Y-97332000D01*
X55450000Y-97332000D02*
X55450000Y-95532000D01*
X56950000Y-97332000D02*
X56950000Y-96582000D01*
X56950000Y-96582000D02*
X59900000Y-96582000D01*
X59900000Y-96582000D02*
X59900000Y-93532000D01*
X54400000Y-96382000D02*
X54400000Y-97632000D01*
X54700000Y-95532000D02*
X54700000Y-97332000D01*
X55450000Y-95532000D02*
X54700000Y-95532000D01*
X54700000Y-94032000D02*
X55450000Y-94032000D01*
X55450000Y-94032000D02*
X55450000Y-93032000D01*
X54700000Y-93032000D02*
X54700000Y-94032000D01*
X55450000Y-93032000D02*
X54700000Y-93032000D01*
X54700000Y-91532000D02*
X55450000Y-91532000D01*
X55450000Y-91532000D02*
X55450000Y-89732000D01*
X56950000Y-90482000D02*
X59900000Y-90482000D01*
X59900000Y-90482000D02*
X59900000Y-93532000D01*
X54700000Y-89732000D02*
X54700000Y-91532000D01*
X55450000Y-89732000D02*
X54700000Y-89732000D01*
X56950000Y-89732000D02*
X56950000Y-90482000D01*
X54690000Y-89722000D02*
X54690000Y-97342000D01*
X60660000Y-89722000D02*
X54690000Y-89722000D01*
X112060000Y-120510000D02*
X118030000Y-120510000D01*
X118030000Y-120510000D02*
X118030000Y-105390000D01*
X115770000Y-120500000D02*
X115770000Y-119750000D01*
X117270000Y-120500000D02*
X118020000Y-120500000D01*
X118020000Y-120500000D02*
X118020000Y-118700000D01*
X112820000Y-119750000D02*
X112820000Y-112950000D01*
X115770000Y-119750000D02*
X112820000Y-119750000D01*
X117270000Y-118700000D02*
X117270000Y-120500000D01*
X118020000Y-118700000D02*
X117270000Y-118700000D01*
X117270000Y-117200000D02*
X118020000Y-117200000D01*
X118020000Y-117200000D02*
X118020000Y-108700000D01*
X117270000Y-108700000D02*
X117270000Y-117200000D01*
X118020000Y-108700000D02*
X117270000Y-108700000D01*
X117270000Y-107200000D02*
X118020000Y-107200000D01*
X118020000Y-107200000D02*
X118020000Y-105400000D01*
X118320000Y-106350000D02*
X118320000Y-105100000D01*
X112820000Y-106150000D02*
X112820000Y-112950000D01*
X115770000Y-106150000D02*
X112820000Y-106150000D01*
X115770000Y-105400000D02*
X115770000Y-106150000D01*
X117270000Y-105400000D02*
X117270000Y-107200000D01*
X118020000Y-105400000D02*
X117270000Y-105400000D01*
X112060000Y-105390000D02*
X112060000Y-120510000D01*
X118030000Y-105390000D02*
X112060000Y-105390000D01*
X118320000Y-105100000D02*
X117070000Y-105100000D01*
X122990000Y-119110000D02*
X127000000Y-119110000D01*
X122990000Y-117110000D02*
X127000000Y-117110000D01*
X122990000Y-117110000D02*
X122990000Y-119110000D01*
X112060000Y-96380000D02*
X118030000Y-96380000D01*
X118030000Y-96380000D02*
X118030000Y-81260000D01*
X115770000Y-96370000D02*
X115770000Y-95620000D01*
X117270000Y-96370000D02*
X118020000Y-96370000D01*
X118020000Y-96370000D02*
X118020000Y-94570000D01*
X112820000Y-95620000D02*
X112820000Y-88820000D01*
X115770000Y-95620000D02*
X112820000Y-95620000D01*
X117270000Y-94570000D02*
X117270000Y-96370000D01*
X118020000Y-94570000D02*
X117270000Y-94570000D01*
X117270000Y-93070000D02*
X118020000Y-93070000D01*
X118020000Y-93070000D02*
X118020000Y-84570000D01*
X117270000Y-84570000D02*
X117270000Y-93070000D01*
X118020000Y-84570000D02*
X117270000Y-84570000D01*
X117270000Y-83070000D02*
X118020000Y-83070000D01*
X118020000Y-83070000D02*
X118020000Y-81270000D01*
X118320000Y-82220000D02*
X118320000Y-80970000D01*
X112820000Y-82020000D02*
X112820000Y-88820000D01*
X115770000Y-82020000D02*
X112820000Y-82020000D01*
X115770000Y-81270000D02*
X115770000Y-82020000D01*
X117270000Y-81270000D02*
X117270000Y-83070000D01*
X118020000Y-81270000D02*
X117270000Y-81270000D01*
X112060000Y-81260000D02*
X112060000Y-96380000D01*
X118030000Y-81260000D02*
X112060000Y-81260000D01*
X118320000Y-80970000D02*
X117070000Y-80970000D01*
X108945000Y-118845436D02*
X108945000Y-120299564D01*
X110765000Y-118845436D02*
X110765000Y-120299564D01*
X54400000Y-123500000D02*
X55650000Y-123500000D01*
X54690000Y-123210000D02*
X60660000Y-123210000D01*
X60660000Y-123210000D02*
X60660000Y-115590000D01*
X54700000Y-123200000D02*
X55450000Y-123200000D01*
X55450000Y-123200000D02*
X55450000Y-121400000D01*
X56950000Y-123200000D02*
X56950000Y-122450000D01*
X56950000Y-122450000D02*
X59900000Y-122450000D01*
X59900000Y-122450000D02*
X59900000Y-119400000D01*
X54400000Y-122250000D02*
X54400000Y-123500000D01*
X54700000Y-121400000D02*
X54700000Y-123200000D01*
X55450000Y-121400000D02*
X54700000Y-121400000D01*
X54700000Y-119900000D02*
X55450000Y-119900000D01*
X55450000Y-119900000D02*
X55450000Y-118900000D01*
X54700000Y-118900000D02*
X54700000Y-119900000D01*
X55450000Y-118900000D02*
X54700000Y-118900000D01*
X54700000Y-117400000D02*
X55450000Y-117400000D01*
X55450000Y-117400000D02*
X55450000Y-115600000D01*
X56950000Y-116350000D02*
X59900000Y-116350000D01*
X59900000Y-116350000D02*
X59900000Y-119400000D01*
X54700000Y-115600000D02*
X54700000Y-117400000D01*
X55450000Y-115600000D02*
X54700000Y-115600000D01*
X56950000Y-115600000D02*
X56950000Y-116350000D01*
X54690000Y-115590000D02*
X54690000Y-123210000D01*
X60660000Y-115590000D02*
X54690000Y-115590000D01*
X89810000Y-127284564D02*
X89810000Y-125830436D01*
X87990000Y-127284564D02*
X87990000Y-125830436D01*
X108685000Y-132610000D02*
X108685000Y-126190000D01*
X115585000Y-132610000D02*
X115585000Y-126190000D01*
X108685000Y-126190000D02*
X108955000Y-126190000D01*
X108955000Y-126190000D02*
X108955000Y-125090000D01*
X115315000Y-126190000D02*
X115315000Y-123360000D01*
X115585000Y-126190000D02*
X115315000Y-126190000D01*
X65120436Y-77110000D02*
X66574564Y-77110000D01*
X65120436Y-75290000D02*
X66574564Y-75290000D01*
X54400000Y-106268000D02*
X55650000Y-106268000D01*
X54690000Y-105978000D02*
X60660000Y-105978000D01*
X60660000Y-105978000D02*
X60660000Y-98358000D01*
X54700000Y-105968000D02*
X55450000Y-105968000D01*
X55450000Y-105968000D02*
X55450000Y-104168000D01*
X56950000Y-105968000D02*
X56950000Y-105218000D01*
X56950000Y-105218000D02*
X59900000Y-105218000D01*
X59900000Y-105218000D02*
X59900000Y-102168000D01*
X54400000Y-105018000D02*
X54400000Y-106268000D01*
X54700000Y-104168000D02*
X54700000Y-105968000D01*
X55450000Y-104168000D02*
X54700000Y-104168000D01*
X54700000Y-102668000D02*
X55450000Y-102668000D01*
X55450000Y-102668000D02*
X55450000Y-101668000D01*
X54700000Y-101668000D02*
X54700000Y-102668000D01*
X55450000Y-101668000D02*
X54700000Y-101668000D01*
X54700000Y-100168000D02*
X55450000Y-100168000D01*
X55450000Y-100168000D02*
X55450000Y-98368000D01*
X56950000Y-99118000D02*
X59900000Y-99118000D01*
X59900000Y-99118000D02*
X59900000Y-102168000D01*
X54700000Y-98368000D02*
X54700000Y-100168000D01*
X55450000Y-98368000D02*
X54700000Y-98368000D01*
X56950000Y-98368000D02*
X56950000Y-99118000D01*
X54690000Y-98358000D02*
X54690000Y-105978000D01*
X60660000Y-98358000D02*
X54690000Y-98358000D01*
X103640000Y-117910000D02*
X103640000Y-121795000D01*
X105910000Y-121795000D02*
X105910000Y-117910000D01*
X103640000Y-121795000D02*
X105910000Y-121795000D01*
X91460000Y-136225000D02*
X91460000Y-130255000D01*
X91460000Y-130255000D02*
X81340000Y-130255000D01*
X91450000Y-132515000D02*
X90700000Y-132515000D01*
X91450000Y-131015000D02*
X91450000Y-130265000D01*
X91450000Y-130265000D02*
X89650000Y-130265000D01*
X90700000Y-135465000D02*
X86400000Y-135465000D01*
X90700000Y-132515000D02*
X90700000Y-135465000D01*
X89650000Y-131015000D02*
X91450000Y-131015000D01*
X89650000Y-130265000D02*
X89650000Y-131015000D01*
X88150000Y-131015000D02*
X88150000Y-130265000D01*
X88150000Y-130265000D02*
X84650000Y-130265000D01*
X84650000Y-131015000D02*
X88150000Y-131015000D01*
X84650000Y-130265000D02*
X84650000Y-131015000D01*
X83150000Y-131015000D02*
X83150000Y-130265000D01*
X83150000Y-130265000D02*
X81350000Y-130265000D01*
X82300000Y-129965000D02*
X81050000Y-129965000D01*
X82100000Y-135465000D02*
X86400000Y-135465000D01*
X82100000Y-132515000D02*
X82100000Y-135465000D01*
X81350000Y-132515000D02*
X82100000Y-132515000D01*
X81350000Y-131015000D02*
X83150000Y-131015000D01*
X81350000Y-130265000D02*
X81350000Y-131015000D01*
X81340000Y-136225000D02*
X91460000Y-136225000D01*
X81340000Y-130255000D02*
X81340000Y-136225000D01*
X81050000Y-129965000D02*
X81050000Y-131215000D01*
X62430000Y-82685000D02*
X58545000Y-82685000D01*
X58545000Y-84955000D02*
X62430000Y-84955000D01*
X58545000Y-82685000D02*
X58545000Y-84955000D01*
X119184000Y-129990000D02*
X121934000Y-129990000D01*
X127704000Y-129990000D02*
X124954000Y-129990000D01*
X119184000Y-122534437D02*
X119184000Y-129990000D01*
X127704000Y-122534437D02*
X127704000Y-129990000D01*
X120248437Y-121470000D02*
X119184000Y-122534437D01*
X120248437Y-121470000D02*
X121934000Y-121470000D01*
X126639563Y-121470000D02*
X127704000Y-122534437D01*
X126639563Y-121470000D02*
X124954000Y-121470000D01*
X126454000Y-120730000D02*
X125454000Y-120730000D01*
X125954000Y-120230000D02*
X125954000Y-121230000D01*
X75840000Y-127284564D02*
X75840000Y-125830436D01*
X74020000Y-127284564D02*
X74020000Y-125830436D01*
X65120436Y-120290000D02*
X66574564Y-120290000D01*
X65120436Y-118470000D02*
X66574564Y-118470000D01*
X104440000Y-86220000D02*
X110410000Y-86220000D01*
X110410000Y-86220000D02*
X110410000Y-71100000D01*
X108150000Y-86210000D02*
X108150000Y-85460000D01*
X109650000Y-86210000D02*
X110400000Y-86210000D01*
X110400000Y-86210000D02*
X110400000Y-84410000D01*
X105200000Y-85460000D02*
X105200000Y-78660000D01*
X108150000Y-85460000D02*
X105200000Y-85460000D01*
X109650000Y-84410000D02*
X109650000Y-86210000D01*
X110400000Y-84410000D02*
X109650000Y-84410000D01*
X109650000Y-82910000D02*
X110400000Y-82910000D01*
X110400000Y-82910000D02*
X110400000Y-74410000D01*
X109650000Y-74410000D02*
X109650000Y-82910000D01*
X110400000Y-74410000D02*
X109650000Y-74410000D01*
X109650000Y-72910000D02*
X110400000Y-72910000D01*
X110400000Y-72910000D02*
X110400000Y-71110000D01*
X110700000Y-72060000D02*
X110700000Y-70810000D01*
X105200000Y-71860000D02*
X105200000Y-78660000D01*
X108150000Y-71860000D02*
X105200000Y-71860000D01*
X108150000Y-71110000D02*
X108150000Y-71860000D01*
X109650000Y-71110000D02*
X109650000Y-72910000D01*
X110400000Y-71110000D02*
X109650000Y-71110000D01*
X104440000Y-71100000D02*
X104440000Y-86220000D01*
X110410000Y-71100000D02*
X104440000Y-71100000D01*
X110700000Y-70810000D02*
X109450000Y-70810000D01*
X66574564Y-82910000D02*
X65120436Y-82910000D01*
X66574564Y-84730000D02*
X65120436Y-84730000D01*
X116565000Y-125018748D02*
X116565000Y-126441252D01*
X118385000Y-125018748D02*
X118385000Y-126441252D01*
X87270000Y-127284564D02*
X87270000Y-125830436D01*
X85450000Y-127284564D02*
X85450000Y-125830436D01*
%LPC*%
D12*
X71120000Y-73660000D03*
X71120000Y-76200000D03*
D13*
X71120000Y-78740000D03*
D12*
X71120000Y-81280000D03*
X71120000Y-83820000D03*
X71120000Y-86360000D03*
X71120000Y-88900000D03*
D13*
X71120000Y-91440000D03*
D12*
X71120000Y-93980000D03*
X71120000Y-96520000D03*
X71120000Y-99060000D03*
X71120000Y-101600000D03*
D13*
X71120000Y-104140000D03*
D12*
X71120000Y-106680000D03*
X71120000Y-109220000D03*
X71120000Y-111760000D03*
X71120000Y-114300000D03*
D13*
X71120000Y-116840000D03*
D12*
X71120000Y-119380000D03*
X71120000Y-121920000D03*
X88900000Y-121920000D03*
X88900000Y-119380000D03*
D13*
X88900000Y-116840000D03*
D12*
X88900000Y-114300000D03*
X88900000Y-111760000D03*
X88900000Y-109220000D03*
X88900000Y-106680000D03*
D13*
X88900000Y-104140000D03*
D12*
X88900000Y-101600000D03*
X88900000Y-99060000D03*
X88900000Y-96520000D03*
X88900000Y-93980000D03*
D13*
X88900000Y-91440000D03*
D12*
X88900000Y-88900000D03*
X88900000Y-86360000D03*
X88900000Y-83820000D03*
X88900000Y-81280000D03*
D13*
X88900000Y-78740000D03*
D12*
X88900000Y-76200000D03*
X88900000Y-73660000D03*
D14*
X121920000Y-107950000D03*
D15*
X121920000Y-112950000D03*
D14*
X121920000Y-94615000D03*
D15*
X121920000Y-99615000D03*
D16*
X107315000Y-118110000D03*
X107315000Y-121035000D03*
D17*
X77470000Y-132715000D03*
X74970000Y-132715000D03*
D18*
X72470000Y-132715000D03*
D19*
X107950000Y-107790000D03*
X107950000Y-105290000D03*
X107950000Y-102790000D03*
X107950000Y-100290000D03*
D20*
X107950000Y-97790000D03*
D16*
X77470000Y-125095000D03*
X77470000Y-128020000D03*
D21*
X125000000Y-76000000D03*
D22*
X101600000Y-97790000D03*
X101600000Y-100330000D03*
X101600000Y-102870000D03*
X101600000Y-105410000D03*
X101600000Y-107950000D03*
X101600000Y-110490000D03*
X101600000Y-113030000D03*
X101600000Y-115570000D03*
X101600000Y-118110000D03*
X93980000Y-118110000D03*
X93980000Y-115570000D03*
X93980000Y-113030000D03*
X93980000Y-110490000D03*
X93980000Y-107950000D03*
X93980000Y-105410000D03*
X93980000Y-102870000D03*
X93980000Y-100330000D03*
D23*
X93980000Y-97790000D03*
D24*
X57150000Y-112054000D03*
D25*
X57150000Y-109554000D03*
D26*
X107315000Y-127205000D03*
X107315000Y-124255000D03*
D27*
X67310000Y-121920000D03*
X64385000Y-121920000D03*
X67310000Y-81280000D03*
X64385000Y-81280000D03*
D22*
X101600000Y-73660000D03*
X101600000Y-76200000D03*
X101600000Y-78740000D03*
X101600000Y-81280000D03*
X101600000Y-83820000D03*
X101600000Y-86360000D03*
X101600000Y-88900000D03*
X101600000Y-91440000D03*
X101600000Y-93980000D03*
X93980000Y-93980000D03*
X93980000Y-91440000D03*
X93980000Y-88900000D03*
X93980000Y-86360000D03*
X93980000Y-83820000D03*
X93980000Y-81280000D03*
X93980000Y-78740000D03*
X93980000Y-76200000D03*
D23*
X93980000Y-73660000D03*
D28*
X54610000Y-73660000D03*
X61110000Y-73660000D03*
X54610000Y-78160000D03*
X61110000Y-78160000D03*
D24*
X57150000Y-94782000D03*
D25*
X57150000Y-92282000D03*
D19*
X115570000Y-117950000D03*
X115570000Y-115450000D03*
X115570000Y-112950000D03*
X115570000Y-110450000D03*
D20*
X115570000Y-107950000D03*
D21*
X61000000Y-131000000D03*
D29*
X127000000Y-118110000D03*
X123700000Y-118110000D03*
D19*
X115570000Y-93820000D03*
X115570000Y-91320000D03*
X115570000Y-88820000D03*
X115570000Y-86320000D03*
D20*
X115570000Y-83820000D03*
D30*
X109855000Y-121035000D03*
X109855000Y-118110000D03*
D24*
X57150000Y-120650000D03*
D25*
X57150000Y-118150000D03*
D16*
X88900000Y-125095000D03*
X88900000Y-128020000D03*
D31*
X109855000Y-124460000D03*
D32*
X112135000Y-130760000D03*
D31*
X114415000Y-124460000D03*
D27*
X67310000Y-76200000D03*
X64385000Y-76200000D03*
D24*
X57150000Y-103418000D03*
D25*
X57150000Y-100918000D03*
D33*
X104775000Y-118110000D03*
X104775000Y-120910000D03*
D17*
X88900000Y-132715000D03*
X86400000Y-132715000D03*
D18*
X83900000Y-132715000D03*
D34*
X62230000Y-83820000D03*
X59430000Y-83820000D03*
D35*
X123444000Y-128980000D03*
X123444000Y-122480000D03*
D16*
X74930000Y-125095000D03*
X74930000Y-128020000D03*
D21*
X99000000Y-131000000D03*
D27*
X67310000Y-119380000D03*
X64385000Y-119380000D03*
D19*
X107950000Y-83660000D03*
X107950000Y-81160000D03*
X107950000Y-78660000D03*
X107950000Y-76160000D03*
D20*
X107950000Y-73660000D03*
D36*
X64385000Y-83820000D03*
X67310000Y-83820000D03*
D26*
X117475000Y-127205000D03*
X117475000Y-124255000D03*
D16*
X86360000Y-125095000D03*
X86360000Y-128020000D03*
%LPD*%
M02*
