%TF.GenerationSoftware,KiCad,Pcbnew,7.0.5*%
%TF.CreationDate,2023-06-21T21:20:56+02:00*%
%TF.ProjectId,moduleDriver,6d6f6475-6c65-4447-9269-7665722e6b69,rev?*%
%TF.SameCoordinates,Original*%
%TF.FileFunction,Copper,L2,Bot*%
%TF.FilePolarity,Positive*%
%FSLAX46Y46*%
G04 Gerber Fmt 4.6, Leading zero omitted, Abs format (unit mm)*
G04 Created by KiCad (PCBNEW 7.0.5) date 2023-06-21 21:20:56*
%MOMM*%
%LPD*%
G01*
G04 APERTURE LIST*
G04 Aperture macros list*
%AMRoundRect*
0 Rectangle with rounded corners*
0 $1 Rounding radius*
0 $2 $3 $4 $5 $6 $7 $8 $9 X,Y pos of 4 corners*
0 Add a 4 corners polygon primitive as box body*
4,1,4,$2,$3,$4,$5,$6,$7,$8,$9,$2,$3,0*
0 Add four circle primitives for the rounded corners*
1,1,$1+$1,$2,$3*
1,1,$1+$1,$4,$5*
1,1,$1+$1,$6,$7*
1,1,$1+$1,$8,$9*
0 Add four rect primitives between the rounded corners*
20,1,$1+$1,$2,$3,$4,$5,0*
20,1,$1+$1,$4,$5,$6,$7,0*
20,1,$1+$1,$6,$7,$8,$9,0*
20,1,$1+$1,$8,$9,$2,$3,0*%
G04 Aperture macros list end*
%TA.AperFunction,ComponentPad*%
%ADD10O,1.700000X1.700000*%
%TD*%
%TA.AperFunction,ComponentPad*%
%ADD11R,1.700000X1.700000*%
%TD*%
%TA.AperFunction,ComponentPad*%
%ADD12O,3.600000X2.000000*%
%TD*%
%TA.AperFunction,ComponentPad*%
%ADD13RoundRect,0.250000X1.550000X-0.750000X1.550000X0.750000X-1.550000X0.750000X-1.550000X-0.750000X0*%
%TD*%
%TA.AperFunction,ComponentPad*%
%ADD14O,1.700000X1.950000*%
%TD*%
%TA.AperFunction,ComponentPad*%
%ADD15RoundRect,0.250000X-0.600000X-0.725000X0.600000X-0.725000X0.600000X0.725000X-0.600000X0.725000X0*%
%TD*%
%TA.AperFunction,ComponentPad*%
%ADD16O,1.950000X1.700000*%
%TD*%
%TA.AperFunction,ComponentPad*%
%ADD17RoundRect,0.250000X-0.725000X0.600000X-0.725000X-0.600000X0.725000X-0.600000X0.725000X0.600000X0*%
%TD*%
%TA.AperFunction,ComponentPad*%
%ADD18O,1.600000X1.600000*%
%TD*%
%TA.AperFunction,ComponentPad*%
%ADD19R,1.600000X1.600000*%
%TD*%
%TA.AperFunction,ComponentPad*%
%ADD20RoundRect,0.250000X0.750000X-0.600000X0.750000X0.600000X-0.750000X0.600000X-0.750000X-0.600000X0*%
%TD*%
%TA.AperFunction,ComponentPad*%
%ADD21O,2.000000X1.700000*%
%TD*%
%TA.AperFunction,ComponentPad*%
%ADD22C,2.000000*%
%TD*%
%TA.AperFunction,ViaPad*%
%ADD23C,1.000000*%
%TD*%
%TA.AperFunction,Conductor*%
%ADD24C,0.250000*%
%TD*%
G04 APERTURE END LIST*
D10*
X71120000Y-73660000D03*
X71120000Y-76200000D03*
D11*
X71120000Y-78740000D03*
D10*
X71120000Y-81280000D03*
X71120000Y-83820000D03*
X71120000Y-86360000D03*
X71120000Y-88900000D03*
D11*
X71120000Y-91440000D03*
D10*
X71120000Y-93980000D03*
X71120000Y-96520000D03*
X71120000Y-99060000D03*
X71120000Y-101600000D03*
D11*
X71120000Y-104140000D03*
D10*
X71120000Y-106680000D03*
X71120000Y-109220000D03*
X71120000Y-111760000D03*
X71120000Y-114300000D03*
D11*
X71120000Y-116840000D03*
D10*
X71120000Y-119380000D03*
X71120000Y-121920000D03*
X88900000Y-121920000D03*
X88900000Y-119380000D03*
D11*
X88900000Y-116840000D03*
D10*
X88900000Y-114300000D03*
X88900000Y-111760000D03*
X88900000Y-109220000D03*
X88900000Y-106680000D03*
D11*
X88900000Y-104140000D03*
D10*
X88900000Y-101600000D03*
X88900000Y-99060000D03*
X88900000Y-96520000D03*
X88900000Y-93980000D03*
D11*
X88900000Y-91440000D03*
D10*
X88900000Y-88900000D03*
X88900000Y-86360000D03*
X88900000Y-83820000D03*
X88900000Y-81280000D03*
D11*
X88900000Y-78740000D03*
D10*
X88900000Y-76200000D03*
X88900000Y-73660000D03*
D12*
X121920000Y-107950000D03*
D13*
X121920000Y-112950000D03*
D12*
X121920000Y-94615000D03*
D13*
X121920000Y-99615000D03*
D14*
X77470000Y-132715000D03*
X74970000Y-132715000D03*
D15*
X72470000Y-132715000D03*
D16*
X107950000Y-107790000D03*
X107950000Y-105290000D03*
X107950000Y-102790000D03*
X107950000Y-100290000D03*
D17*
X107950000Y-97790000D03*
D18*
X101600000Y-97790000D03*
X101600000Y-100330000D03*
X101600000Y-102870000D03*
X101600000Y-105410000D03*
X101600000Y-107950000D03*
X101600000Y-110490000D03*
X101600000Y-113030000D03*
X101600000Y-115570000D03*
X101600000Y-118110000D03*
X93980000Y-118110000D03*
X93980000Y-115570000D03*
X93980000Y-113030000D03*
X93980000Y-110490000D03*
X93980000Y-107950000D03*
X93980000Y-105410000D03*
X93980000Y-102870000D03*
X93980000Y-100330000D03*
D19*
X93980000Y-97790000D03*
D20*
X57150000Y-112054000D03*
D21*
X57150000Y-109554000D03*
D18*
X101600000Y-73660000D03*
X101600000Y-76200000D03*
X101600000Y-78740000D03*
X101600000Y-81280000D03*
X101600000Y-83820000D03*
X101600000Y-86360000D03*
X101600000Y-88900000D03*
X101600000Y-91440000D03*
X101600000Y-93980000D03*
X93980000Y-93980000D03*
X93980000Y-91440000D03*
X93980000Y-88900000D03*
X93980000Y-86360000D03*
X93980000Y-83820000D03*
X93980000Y-81280000D03*
X93980000Y-78740000D03*
X93980000Y-76200000D03*
D19*
X93980000Y-73660000D03*
D22*
X54610000Y-73660000D03*
X61110000Y-73660000D03*
X54610000Y-78160000D03*
X61110000Y-78160000D03*
D20*
X57150000Y-94782000D03*
D21*
X57150000Y-92282000D03*
D16*
X115570000Y-117950000D03*
X115570000Y-115450000D03*
X115570000Y-112950000D03*
X115570000Y-110450000D03*
D17*
X115570000Y-107950000D03*
D16*
X115570000Y-93820000D03*
X115570000Y-91320000D03*
X115570000Y-88820000D03*
X115570000Y-86320000D03*
D17*
X115570000Y-83820000D03*
D20*
X57150000Y-120650000D03*
D21*
X57150000Y-118150000D03*
D20*
X57150000Y-103418000D03*
D21*
X57150000Y-100918000D03*
D14*
X88900000Y-132715000D03*
X86400000Y-132715000D03*
D15*
X83900000Y-132715000D03*
D16*
X107950000Y-83660000D03*
X107950000Y-81160000D03*
X107950000Y-78660000D03*
X107950000Y-76160000D03*
D17*
X107950000Y-73660000D03*
D23*
X106045000Y-129540000D03*
X107315000Y-129540000D03*
X108585000Y-129540000D03*
X108585000Y-130810000D03*
X108585000Y-132080000D03*
X108585000Y-133350000D03*
X116205000Y-129540000D03*
X116205000Y-130810000D03*
X116205000Y-132080000D03*
X116205000Y-133350000D03*
X116205000Y-134620000D03*
X114935000Y-134620000D03*
X113665000Y-134620000D03*
X112395000Y-134620000D03*
X111125000Y-134620000D03*
X109855000Y-134620000D03*
X108585000Y-134620000D03*
X125095000Y-132080000D03*
X123825000Y-132080000D03*
X122555000Y-132080000D03*
X121285000Y-132080000D03*
X126365000Y-128270000D03*
X120015000Y-128270000D03*
X120015000Y-127000000D03*
X126365000Y-127000000D03*
X126365000Y-132080000D03*
X126365000Y-130810000D03*
X126365000Y-129540000D03*
X120015000Y-132080000D03*
X120015000Y-130810000D03*
X120015000Y-129540000D03*
X118745000Y-129540000D03*
X117475000Y-129540000D03*
X104775000Y-129540000D03*
X104775000Y-128270000D03*
X104775000Y-127000000D03*
D24*
X54610000Y-78160000D02*
X61110000Y-78160000D01*
X57150000Y-90170000D02*
X57150000Y-92282000D01*
X71120000Y-76200000D02*
X57150000Y-90170000D01*
X69945000Y-88123000D02*
X57150000Y-100918000D01*
X69945000Y-82455000D02*
X69945000Y-88123000D01*
X71120000Y-81280000D02*
X69945000Y-82455000D01*
X71120000Y-119380000D02*
X61294000Y-109554000D01*
X61294000Y-109554000D02*
X57150000Y-109554000D01*
X71120000Y-121920000D02*
X60920000Y-121920000D01*
X60920000Y-121920000D02*
X57150000Y-118150000D01*
X77375000Y-100235000D02*
X71120000Y-93980000D01*
X93980000Y-97790000D02*
X93980000Y-98181701D01*
X91926701Y-100235000D02*
X77375000Y-100235000D01*
X93980000Y-98181701D02*
X91926701Y-100235000D01*
X77375000Y-102775000D02*
X71120000Y-96520000D01*
X93980000Y-100330000D02*
X91535000Y-102775000D01*
X91535000Y-102775000D02*
X77375000Y-102775000D01*
X91535000Y-105315000D02*
X77375000Y-105315000D01*
X93980000Y-102870000D02*
X91535000Y-105315000D01*
X77375000Y-105315000D02*
X71120000Y-99060000D01*
X91535000Y-107855000D02*
X77375000Y-107855000D01*
X93980000Y-105410000D02*
X91535000Y-107855000D01*
X77375000Y-107855000D02*
X71120000Y-101600000D01*
X91535000Y-110395000D02*
X74835000Y-110395000D01*
X93980000Y-107950000D02*
X91535000Y-110395000D01*
X74835000Y-110395000D02*
X71120000Y-106680000D01*
X91535000Y-112935000D02*
X74835000Y-112935000D01*
X93980000Y-110490000D02*
X91535000Y-112935000D01*
X74835000Y-112935000D02*
X71120000Y-109220000D01*
X93980000Y-113030000D02*
X91535000Y-115475000D01*
X91535000Y-115475000D02*
X74835000Y-115475000D01*
X74835000Y-115475000D02*
X71120000Y-111760000D01*
X91535000Y-118015000D02*
X74835000Y-118015000D01*
X74835000Y-118015000D02*
X71120000Y-114300000D01*
X93980000Y-115570000D02*
X91535000Y-118015000D01*
X87630000Y-97790000D02*
X88900000Y-99060000D01*
X87630000Y-91048299D02*
X87630000Y-97790000D01*
X61110000Y-78160000D02*
X64245000Y-75025000D01*
X64245000Y-75025000D02*
X71606701Y-75025000D01*
X71606701Y-75025000D02*
X87630000Y-91048299D01*
%TA.AperFunction,Conductor*%
G36*
X130642539Y-70320185D02*
G01*
X130688294Y-70372989D01*
X130699500Y-70424500D01*
X130699500Y-136575500D01*
X130679815Y-136642539D01*
X130627011Y-136688294D01*
X130575500Y-136699500D01*
X102994000Y-136699500D01*
X102926961Y-136679815D01*
X102881206Y-136627011D01*
X102870000Y-136575500D01*
X102870000Y-117949999D01*
X114389417Y-117949999D01*
X114409699Y-118155932D01*
X114409700Y-118155934D01*
X114469768Y-118353954D01*
X114567315Y-118536450D01*
X114567317Y-118536452D01*
X114698589Y-118696410D01*
X114795209Y-118775702D01*
X114858550Y-118827685D01*
X115041046Y-118925232D01*
X115239066Y-118985300D01*
X115239065Y-118985300D01*
X115277647Y-118989100D01*
X115393392Y-119000500D01*
X115393395Y-119000500D01*
X115746605Y-119000500D01*
X115746608Y-119000500D01*
X115900934Y-118985300D01*
X116098954Y-118925232D01*
X116281450Y-118827685D01*
X116441410Y-118696410D01*
X116572685Y-118536450D01*
X116670232Y-118353954D01*
X116730300Y-118155934D01*
X116750583Y-117950000D01*
X116730300Y-117744066D01*
X116670232Y-117546046D01*
X116572685Y-117363550D01*
X116499268Y-117274090D01*
X116441410Y-117203589D01*
X116323677Y-117106969D01*
X116281450Y-117072315D01*
X116098954Y-116974768D01*
X115900934Y-116914700D01*
X115900932Y-116914699D01*
X115900934Y-116914699D01*
X115781805Y-116902966D01*
X115746608Y-116899500D01*
X115393392Y-116899500D01*
X115355298Y-116903251D01*
X115239067Y-116914699D01*
X115041043Y-116974769D01*
X114930898Y-117033643D01*
X114858550Y-117072315D01*
X114858548Y-117072316D01*
X114858547Y-117072317D01*
X114698589Y-117203589D01*
X114567317Y-117363547D01*
X114469769Y-117546043D01*
X114409699Y-117744067D01*
X114389417Y-117949999D01*
X102870000Y-117949999D01*
X102870000Y-115450000D01*
X114389417Y-115450000D01*
X114409699Y-115655932D01*
X114409700Y-115655934D01*
X114469768Y-115853954D01*
X114567315Y-116036450D01*
X114567317Y-116036452D01*
X114698589Y-116196410D01*
X114795209Y-116275702D01*
X114858550Y-116327685D01*
X115041046Y-116425232D01*
X115239066Y-116485300D01*
X115239065Y-116485300D01*
X115277647Y-116489100D01*
X115393392Y-116500500D01*
X115393395Y-116500500D01*
X115746605Y-116500500D01*
X115746608Y-116500500D01*
X115900934Y-116485300D01*
X116098954Y-116425232D01*
X116281450Y-116327685D01*
X116441410Y-116196410D01*
X116572685Y-116036450D01*
X116670232Y-115853954D01*
X116730300Y-115655934D01*
X116750583Y-115450000D01*
X116730300Y-115244066D01*
X116670232Y-115046046D01*
X116572685Y-114863550D01*
X116466441Y-114734090D01*
X116441410Y-114703589D01*
X116281452Y-114572317D01*
X116281453Y-114572317D01*
X116281450Y-114572315D01*
X116098954Y-114474768D01*
X115900934Y-114414700D01*
X115900932Y-114414699D01*
X115900934Y-114414699D01*
X115781805Y-114402966D01*
X115746608Y-114399500D01*
X115393392Y-114399500D01*
X115355298Y-114403251D01*
X115239067Y-114414699D01*
X115041043Y-114474769D01*
X114930898Y-114533643D01*
X114858550Y-114572315D01*
X114858548Y-114572316D01*
X114858547Y-114572317D01*
X114698589Y-114703589D01*
X114567317Y-114863547D01*
X114469769Y-115046043D01*
X114409699Y-115244067D01*
X114389417Y-115450000D01*
X102870000Y-115450000D01*
X102870000Y-112949999D01*
X114389417Y-112949999D01*
X114409699Y-113155932D01*
X114409700Y-113155934D01*
X114469768Y-113353954D01*
X114567315Y-113536450D01*
X114567317Y-113536452D01*
X114698589Y-113696410D01*
X114763857Y-113749973D01*
X114858550Y-113827685D01*
X115041046Y-113925232D01*
X115239066Y-113985300D01*
X115239065Y-113985300D01*
X115277647Y-113989100D01*
X115393392Y-114000500D01*
X115393395Y-114000500D01*
X115746605Y-114000500D01*
X115746608Y-114000500D01*
X115900934Y-113985300D01*
X116098954Y-113925232D01*
X116281450Y-113827685D01*
X116441410Y-113696410D01*
X116572685Y-113536450D01*
X116670232Y-113353954D01*
X116730300Y-113155934D01*
X116750583Y-112950000D01*
X116730300Y-112744066D01*
X116716933Y-112699999D01*
X119619999Y-112699999D01*
X119620000Y-112700000D01*
X121260671Y-112700000D01*
X121220000Y-112865005D01*
X121220000Y-113034995D01*
X121260671Y-113200000D01*
X119620001Y-113200000D01*
X119620001Y-113749986D01*
X119630494Y-113852697D01*
X119685641Y-114019119D01*
X119685643Y-114019124D01*
X119777684Y-114168345D01*
X119901654Y-114292315D01*
X120050875Y-114384356D01*
X120050880Y-114384358D01*
X120217302Y-114439505D01*
X120217309Y-114439506D01*
X120320019Y-114449999D01*
X121669999Y-114449999D01*
X121669999Y-113603836D01*
X121751249Y-113634651D01*
X121877660Y-113650000D01*
X121962340Y-113650000D01*
X122088751Y-113634651D01*
X122170000Y-113603837D01*
X122170000Y-114449999D01*
X123519972Y-114449999D01*
X123519986Y-114449998D01*
X123622697Y-114439505D01*
X123789119Y-114384358D01*
X123789124Y-114384356D01*
X123938345Y-114292315D01*
X124062315Y-114168345D01*
X124154356Y-114019124D01*
X124154358Y-114019119D01*
X124209505Y-113852697D01*
X124209506Y-113852690D01*
X124219999Y-113749986D01*
X124220000Y-113749973D01*
X124220000Y-113200000D01*
X122579329Y-113200000D01*
X122620000Y-113034995D01*
X122620000Y-112865005D01*
X122579329Y-112700000D01*
X124219999Y-112700000D01*
X124219999Y-112150028D01*
X124219998Y-112150013D01*
X124209505Y-112047302D01*
X124154358Y-111880880D01*
X124154356Y-111880875D01*
X124062315Y-111731654D01*
X123938345Y-111607684D01*
X123789124Y-111515643D01*
X123789119Y-111515641D01*
X123622697Y-111460494D01*
X123622690Y-111460493D01*
X123519986Y-111450000D01*
X122170000Y-111450000D01*
X122170000Y-112296162D01*
X122088751Y-112265349D01*
X121962340Y-112250000D01*
X121877660Y-112250000D01*
X121751249Y-112265349D01*
X121669999Y-112296163D01*
X121669999Y-111450000D01*
X120320028Y-111450000D01*
X120320012Y-111450001D01*
X120217302Y-111460494D01*
X120050880Y-111515641D01*
X120050875Y-111515643D01*
X119901654Y-111607684D01*
X119777684Y-111731654D01*
X119685643Y-111880875D01*
X119685641Y-111880880D01*
X119630494Y-112047302D01*
X119630493Y-112047309D01*
X119620000Y-112150013D01*
X119620000Y-112150026D01*
X119619999Y-112699999D01*
X116716933Y-112699999D01*
X116670232Y-112546046D01*
X116572685Y-112363550D01*
X116492094Y-112265349D01*
X116441410Y-112203589D01*
X116281452Y-112072317D01*
X116281453Y-112072317D01*
X116281450Y-112072315D01*
X116098954Y-111974768D01*
X115900934Y-111914700D01*
X115900932Y-111914699D01*
X115900934Y-111914699D01*
X115781805Y-111902966D01*
X115746608Y-111899500D01*
X115393392Y-111899500D01*
X115355298Y-111903251D01*
X115239067Y-111914699D01*
X115041043Y-111974769D01*
X114947707Y-112024659D01*
X114858550Y-112072315D01*
X114858548Y-112072316D01*
X114858547Y-112072317D01*
X114698589Y-112203589D01*
X114567317Y-112363547D01*
X114469769Y-112546043D01*
X114409699Y-112744067D01*
X114389417Y-112949999D01*
X102870000Y-112949999D01*
X102870000Y-110449999D01*
X114389417Y-110449999D01*
X114409699Y-110655932D01*
X114409700Y-110655934D01*
X114469768Y-110853954D01*
X114567315Y-111036450D01*
X114601969Y-111078677D01*
X114698589Y-111196410D01*
X114795209Y-111275702D01*
X114858550Y-111327685D01*
X115041046Y-111425232D01*
X115239066Y-111485300D01*
X115239065Y-111485300D01*
X115277647Y-111489100D01*
X115393392Y-111500500D01*
X115393395Y-111500500D01*
X115746605Y-111500500D01*
X115746608Y-111500500D01*
X115900934Y-111485300D01*
X116098954Y-111425232D01*
X116281450Y-111327685D01*
X116441410Y-111196410D01*
X116572685Y-111036450D01*
X116670232Y-110853954D01*
X116730300Y-110655934D01*
X116750583Y-110450000D01*
X116730300Y-110244066D01*
X116670232Y-110046046D01*
X116572685Y-109863550D01*
X116503393Y-109779117D01*
X116441410Y-109703589D01*
X116281452Y-109572317D01*
X116281453Y-109572317D01*
X116281450Y-109572315D01*
X116098954Y-109474768D01*
X115900934Y-109414700D01*
X115900932Y-109414699D01*
X115900934Y-109414699D01*
X115781805Y-109402966D01*
X115746608Y-109399500D01*
X115393392Y-109399500D01*
X115355298Y-109403251D01*
X115239067Y-109414699D01*
X115041043Y-109474769D01*
X114986402Y-109503976D01*
X114858550Y-109572315D01*
X114858548Y-109572316D01*
X114858547Y-109572317D01*
X114698589Y-109703589D01*
X114567317Y-109863547D01*
X114469769Y-110046043D01*
X114409699Y-110244067D01*
X114389417Y-110449999D01*
X102870000Y-110449999D01*
X102870000Y-107790000D01*
X106769417Y-107790000D01*
X106789699Y-107995932D01*
X106789700Y-107995934D01*
X106849768Y-108193954D01*
X106947315Y-108376450D01*
X106947317Y-108376452D01*
X107078589Y-108536410D01*
X107161273Y-108604266D01*
X107238550Y-108667685D01*
X107421046Y-108765232D01*
X107619066Y-108825300D01*
X107619065Y-108825300D01*
X107657647Y-108829100D01*
X107773392Y-108840500D01*
X107773395Y-108840500D01*
X108126605Y-108840500D01*
X108126608Y-108840500D01*
X108280934Y-108825300D01*
X108478954Y-108765232D01*
X108661450Y-108667685D01*
X108738723Y-108604269D01*
X114394500Y-108604269D01*
X114397353Y-108634699D01*
X114397353Y-108634701D01*
X114442206Y-108762880D01*
X114442207Y-108762882D01*
X114522850Y-108872150D01*
X114632118Y-108952793D01*
X114674845Y-108967744D01*
X114760299Y-108997646D01*
X114790730Y-109000500D01*
X114790734Y-109000500D01*
X116349270Y-109000500D01*
X116379699Y-108997646D01*
X116379701Y-108997646D01*
X116444258Y-108975056D01*
X116507882Y-108952793D01*
X116617150Y-108872150D01*
X116697793Y-108762882D01*
X116727998Y-108676562D01*
X116742646Y-108634701D01*
X116742646Y-108634699D01*
X116742646Y-108634698D01*
X116745500Y-108604266D01*
X116745500Y-108061240D01*
X119919499Y-108061240D01*
X119919500Y-108061243D01*
X119960382Y-108279940D01*
X120040752Y-108487398D01*
X120040754Y-108487404D01*
X120157874Y-108676560D01*
X120157876Y-108676562D01*
X120307761Y-108840979D01*
X120485308Y-108975056D01*
X120485316Y-108975061D01*
X120684461Y-109074224D01*
X120684465Y-109074225D01*
X120684472Y-109074229D01*
X120898464Y-109135115D01*
X121064497Y-109150500D01*
X121064501Y-109150500D01*
X122775499Y-109150500D01*
X122775503Y-109150500D01*
X122941536Y-109135115D01*
X123155528Y-109074229D01*
X123354689Y-108975058D01*
X123532236Y-108840981D01*
X123532675Y-108840500D01*
X123601292Y-108765230D01*
X123682124Y-108676562D01*
X123799247Y-108487401D01*
X123879618Y-108279940D01*
X123920500Y-108061243D01*
X123920500Y-107838757D01*
X123879618Y-107620060D01*
X123799247Y-107412599D01*
X123782806Y-107386046D01*
X123682125Y-107223439D01*
X123682123Y-107223437D01*
X123532238Y-107059020D01*
X123354691Y-106924943D01*
X123354683Y-106924938D01*
X123155538Y-106825775D01*
X123155523Y-106825769D01*
X122941537Y-106764885D01*
X122941535Y-106764884D01*
X122823653Y-106753961D01*
X122775503Y-106749500D01*
X121064497Y-106749500D01*
X121019601Y-106753660D01*
X120898464Y-106764884D01*
X120898462Y-106764885D01*
X120684476Y-106825769D01*
X120684461Y-106825775D01*
X120485316Y-106924938D01*
X120485308Y-106924943D01*
X120307761Y-107059020D01*
X120157876Y-107223437D01*
X120157874Y-107223439D01*
X120040754Y-107412595D01*
X120040752Y-107412601D01*
X119960382Y-107620061D01*
X119960382Y-107620062D01*
X119919499Y-107838759D01*
X119919499Y-108061240D01*
X116745500Y-108061240D01*
X116745500Y-107295734D01*
X116742646Y-107265301D01*
X116742646Y-107265300D01*
X116742646Y-107265298D01*
X116697793Y-107137119D01*
X116697792Y-107137117D01*
X116617150Y-107027850D01*
X116507882Y-106947207D01*
X116507880Y-106947206D01*
X116379700Y-106902353D01*
X116349270Y-106899500D01*
X116349266Y-106899500D01*
X114790734Y-106899500D01*
X114790730Y-106899500D01*
X114760300Y-106902353D01*
X114760298Y-106902353D01*
X114632119Y-106947206D01*
X114632117Y-106947207D01*
X114522850Y-107027850D01*
X114442207Y-107137117D01*
X114442206Y-107137119D01*
X114397353Y-107265298D01*
X114397353Y-107265300D01*
X114394500Y-107295730D01*
X114394500Y-108604269D01*
X108738723Y-108604269D01*
X108821410Y-108536410D01*
X108952685Y-108376450D01*
X109050232Y-108193954D01*
X109110300Y-107995934D01*
X109130583Y-107790000D01*
X109110300Y-107584066D01*
X109050232Y-107386046D01*
X108952685Y-107203550D01*
X108879268Y-107114090D01*
X108821410Y-107043589D01*
X108703677Y-106946969D01*
X108661450Y-106912315D01*
X108478954Y-106814768D01*
X108280934Y-106754700D01*
X108280932Y-106754699D01*
X108280934Y-106754699D01*
X108161805Y-106742966D01*
X108126608Y-106739500D01*
X107773392Y-106739500D01*
X107735298Y-106743251D01*
X107619067Y-106754699D01*
X107421043Y-106814769D01*
X107310898Y-106873643D01*
X107238550Y-106912315D01*
X107238548Y-106912316D01*
X107238547Y-106912317D01*
X107078589Y-107043589D01*
X106947317Y-107203547D01*
X106849769Y-107386043D01*
X106789699Y-107584067D01*
X106769417Y-107790000D01*
X102870000Y-107790000D01*
X102870000Y-105290000D01*
X106769417Y-105290000D01*
X106789699Y-105495932D01*
X106789700Y-105495934D01*
X106849768Y-105693954D01*
X106947315Y-105876450D01*
X106947317Y-105876452D01*
X107078589Y-106036410D01*
X107175209Y-106115702D01*
X107238550Y-106167685D01*
X107421046Y-106265232D01*
X107619066Y-106325300D01*
X107619065Y-106325300D01*
X107657647Y-106329100D01*
X107773392Y-106340500D01*
X107773395Y-106340500D01*
X108126605Y-106340500D01*
X108126608Y-106340500D01*
X108280934Y-106325300D01*
X108478954Y-106265232D01*
X108661450Y-106167685D01*
X108821410Y-106036410D01*
X108952685Y-105876450D01*
X109050232Y-105693954D01*
X109110300Y-105495934D01*
X109130583Y-105290000D01*
X109110300Y-105084066D01*
X109050232Y-104886046D01*
X108952685Y-104703550D01*
X108846441Y-104574090D01*
X108821410Y-104543589D01*
X108661452Y-104412317D01*
X108661453Y-104412317D01*
X108661450Y-104412315D01*
X108478954Y-104314768D01*
X108280934Y-104254700D01*
X108280932Y-104254699D01*
X108280934Y-104254699D01*
X108161805Y-104242966D01*
X108126608Y-104239500D01*
X107773392Y-104239500D01*
X107735298Y-104243251D01*
X107619067Y-104254699D01*
X107421043Y-104314769D01*
X107310898Y-104373643D01*
X107238550Y-104412315D01*
X107238548Y-104412316D01*
X107238547Y-104412317D01*
X107078589Y-104543589D01*
X106947317Y-104703547D01*
X106849769Y-104886043D01*
X106789699Y-105084067D01*
X106769417Y-105290000D01*
X102870000Y-105290000D01*
X102870000Y-102790000D01*
X106769417Y-102790000D01*
X106789699Y-102995932D01*
X106789700Y-102995934D01*
X106849768Y-103193954D01*
X106947315Y-103376450D01*
X106947317Y-103376452D01*
X107078589Y-103536410D01*
X107175209Y-103615702D01*
X107238550Y-103667685D01*
X107421046Y-103765232D01*
X107619066Y-103825300D01*
X107619065Y-103825300D01*
X107657647Y-103829100D01*
X107773392Y-103840500D01*
X107773395Y-103840500D01*
X108126605Y-103840500D01*
X108126608Y-103840500D01*
X108280934Y-103825300D01*
X108478954Y-103765232D01*
X108661450Y-103667685D01*
X108821410Y-103536410D01*
X108952685Y-103376450D01*
X109050232Y-103193954D01*
X109110300Y-102995934D01*
X109130583Y-102790000D01*
X109110300Y-102584066D01*
X109050232Y-102386046D01*
X108952685Y-102203550D01*
X108900702Y-102140209D01*
X108821410Y-102043589D01*
X108661452Y-101912317D01*
X108661453Y-101912317D01*
X108661450Y-101912315D01*
X108478954Y-101814768D01*
X108280934Y-101754700D01*
X108280932Y-101754699D01*
X108280934Y-101754699D01*
X108161805Y-101742966D01*
X108126608Y-101739500D01*
X107773392Y-101739500D01*
X107735298Y-101743251D01*
X107619067Y-101754699D01*
X107421043Y-101814769D01*
X107327707Y-101864659D01*
X107238550Y-101912315D01*
X107238548Y-101912316D01*
X107238547Y-101912317D01*
X107078589Y-102043589D01*
X106947317Y-102203547D01*
X106849769Y-102386043D01*
X106789699Y-102584067D01*
X106769417Y-102790000D01*
X102870000Y-102790000D01*
X102870000Y-100290000D01*
X106769417Y-100290000D01*
X106789699Y-100495932D01*
X106798860Y-100526132D01*
X106849768Y-100693954D01*
X106947315Y-100876450D01*
X106981969Y-100918677D01*
X107078589Y-101036410D01*
X107161564Y-101104505D01*
X107238550Y-101167685D01*
X107421046Y-101265232D01*
X107619066Y-101325300D01*
X107619065Y-101325300D01*
X107657647Y-101329100D01*
X107773392Y-101340500D01*
X107773395Y-101340500D01*
X108126605Y-101340500D01*
X108126608Y-101340500D01*
X108280934Y-101325300D01*
X108478954Y-101265232D01*
X108661450Y-101167685D01*
X108821410Y-101036410D01*
X108952685Y-100876450D01*
X109050232Y-100693954D01*
X109110300Y-100495934D01*
X109130583Y-100290000D01*
X109110300Y-100084066D01*
X109050232Y-99886046D01*
X108952685Y-99703550D01*
X108883393Y-99619117D01*
X108821410Y-99543589D01*
X108661452Y-99412317D01*
X108661453Y-99412317D01*
X108661450Y-99412315D01*
X108572931Y-99365000D01*
X119619999Y-99365000D01*
X121260671Y-99365000D01*
X121220000Y-99530005D01*
X121220000Y-99699995D01*
X121260671Y-99865000D01*
X119620001Y-99865000D01*
X119620001Y-100414986D01*
X119630494Y-100517697D01*
X119685641Y-100684119D01*
X119685643Y-100684124D01*
X119777684Y-100833345D01*
X119901654Y-100957315D01*
X120050875Y-101049356D01*
X120050880Y-101049358D01*
X120217302Y-101104505D01*
X120217309Y-101104506D01*
X120320019Y-101114999D01*
X121669999Y-101114999D01*
X121669999Y-100268836D01*
X121751249Y-100299651D01*
X121877660Y-100315000D01*
X121962340Y-100315000D01*
X122088751Y-100299651D01*
X122170000Y-100268837D01*
X122170000Y-101114999D01*
X123519972Y-101114999D01*
X123519986Y-101114998D01*
X123622697Y-101104505D01*
X123789119Y-101049358D01*
X123789124Y-101049356D01*
X123938345Y-100957315D01*
X124062315Y-100833345D01*
X124154356Y-100684124D01*
X124154358Y-100684119D01*
X124209505Y-100517697D01*
X124209506Y-100517690D01*
X124219999Y-100414986D01*
X124220000Y-100414973D01*
X124220000Y-99865000D01*
X122579329Y-99865000D01*
X122620000Y-99699995D01*
X122620000Y-99530005D01*
X122579329Y-99365000D01*
X124219999Y-99365000D01*
X124219999Y-98815028D01*
X124219998Y-98815013D01*
X124209505Y-98712302D01*
X124154358Y-98545880D01*
X124154356Y-98545875D01*
X124062315Y-98396654D01*
X123938345Y-98272684D01*
X123789124Y-98180643D01*
X123789119Y-98180641D01*
X123622697Y-98125494D01*
X123622690Y-98125493D01*
X123519986Y-98115000D01*
X122170000Y-98115000D01*
X122170000Y-98961162D01*
X122088751Y-98930349D01*
X121962340Y-98915000D01*
X121877660Y-98915000D01*
X121751249Y-98930349D01*
X121669999Y-98961163D01*
X121669999Y-98115000D01*
X120320028Y-98115000D01*
X120320012Y-98115001D01*
X120217302Y-98125494D01*
X120050880Y-98180641D01*
X120050875Y-98180643D01*
X119901654Y-98272684D01*
X119777684Y-98396654D01*
X119685643Y-98545875D01*
X119685641Y-98545880D01*
X119630494Y-98712302D01*
X119630493Y-98712309D01*
X119620000Y-98815013D01*
X119620000Y-98815026D01*
X119619999Y-99365000D01*
X108572931Y-99365000D01*
X108478954Y-99314768D01*
X108280934Y-99254700D01*
X108280932Y-99254699D01*
X108280934Y-99254699D01*
X108161805Y-99242966D01*
X108126608Y-99239500D01*
X107773392Y-99239500D01*
X107735298Y-99243251D01*
X107619067Y-99254699D01*
X107421043Y-99314769D01*
X107366402Y-99343976D01*
X107238550Y-99412315D01*
X107238548Y-99412316D01*
X107238547Y-99412317D01*
X107078589Y-99543589D01*
X106947317Y-99703547D01*
X106849769Y-99886043D01*
X106789699Y-100084067D01*
X106769417Y-100290000D01*
X102870000Y-100290000D01*
X102870000Y-98444269D01*
X106774500Y-98444269D01*
X106777353Y-98474699D01*
X106777353Y-98474701D01*
X106822206Y-98602880D01*
X106822207Y-98602882D01*
X106902850Y-98712150D01*
X107012118Y-98792793D01*
X107054845Y-98807744D01*
X107140299Y-98837646D01*
X107170730Y-98840500D01*
X107170734Y-98840500D01*
X108729270Y-98840500D01*
X108759699Y-98837646D01*
X108759701Y-98837646D01*
X108824381Y-98815013D01*
X108887882Y-98792793D01*
X108997150Y-98712150D01*
X109077793Y-98602882D01*
X109113484Y-98500883D01*
X109122646Y-98474701D01*
X109122646Y-98474699D01*
X109125500Y-98444269D01*
X109125500Y-97135730D01*
X109122646Y-97105300D01*
X109122646Y-97105298D01*
X109077793Y-96977119D01*
X109077792Y-96977117D01*
X108997150Y-96867850D01*
X108887882Y-96787207D01*
X108887880Y-96787206D01*
X108759700Y-96742353D01*
X108729270Y-96739500D01*
X108729266Y-96739500D01*
X107170734Y-96739500D01*
X107170730Y-96739500D01*
X107140300Y-96742353D01*
X107140298Y-96742353D01*
X107012119Y-96787206D01*
X107012117Y-96787207D01*
X106902850Y-96867850D01*
X106822207Y-96977117D01*
X106822206Y-96977119D01*
X106777353Y-97105298D01*
X106777353Y-97105300D01*
X106774500Y-97135730D01*
X106774500Y-98444269D01*
X102870000Y-98444269D01*
X102870000Y-93820000D01*
X114389417Y-93820000D01*
X114409699Y-94025932D01*
X114409700Y-94025934D01*
X114469768Y-94223954D01*
X114567315Y-94406450D01*
X114567317Y-94406452D01*
X114698589Y-94566410D01*
X114795209Y-94645702D01*
X114858550Y-94697685D01*
X115041046Y-94795232D01*
X115239066Y-94855300D01*
X115239065Y-94855300D01*
X115277647Y-94859100D01*
X115393392Y-94870500D01*
X115393395Y-94870500D01*
X115746605Y-94870500D01*
X115746608Y-94870500D01*
X115900934Y-94855300D01*
X116098954Y-94795232D01*
X116228028Y-94726240D01*
X119919499Y-94726240D01*
X119919500Y-94726243D01*
X119960382Y-94944940D01*
X120040752Y-95152398D01*
X120040754Y-95152404D01*
X120157874Y-95341560D01*
X120157876Y-95341562D01*
X120307761Y-95505979D01*
X120485308Y-95640056D01*
X120485316Y-95640061D01*
X120684461Y-95739224D01*
X120684465Y-95739225D01*
X120684472Y-95739229D01*
X120898464Y-95800115D01*
X121064497Y-95815500D01*
X121064501Y-95815500D01*
X122775499Y-95815500D01*
X122775503Y-95815500D01*
X122941536Y-95800115D01*
X123155528Y-95739229D01*
X123354689Y-95640058D01*
X123532236Y-95505981D01*
X123682124Y-95341562D01*
X123799247Y-95152401D01*
X123879618Y-94944940D01*
X123920500Y-94726243D01*
X123920500Y-94503757D01*
X123879618Y-94285060D01*
X123799247Y-94077599D01*
X123767256Y-94025932D01*
X123682125Y-93888439D01*
X123682123Y-93888437D01*
X123532238Y-93724020D01*
X123354691Y-93589943D01*
X123354683Y-93589938D01*
X123155538Y-93490775D01*
X123155523Y-93490769D01*
X122941537Y-93429885D01*
X122941535Y-93429884D01*
X122823653Y-93418961D01*
X122775503Y-93414500D01*
X121064497Y-93414500D01*
X121019601Y-93418660D01*
X120898464Y-93429884D01*
X120898462Y-93429885D01*
X120684476Y-93490769D01*
X120684461Y-93490775D01*
X120485316Y-93589938D01*
X120485308Y-93589943D01*
X120307761Y-93724020D01*
X120157876Y-93888437D01*
X120157874Y-93888439D01*
X120040754Y-94077595D01*
X120040753Y-94077599D01*
X119960382Y-94285060D01*
X119945097Y-94366825D01*
X119919499Y-94503759D01*
X119919499Y-94726240D01*
X116228028Y-94726240D01*
X116281450Y-94697685D01*
X116441410Y-94566410D01*
X116572685Y-94406450D01*
X116670232Y-94223954D01*
X116730300Y-94025934D01*
X116750583Y-93820000D01*
X116730300Y-93614066D01*
X116670232Y-93416046D01*
X116572685Y-93233550D01*
X116499268Y-93144090D01*
X116441410Y-93073589D01*
X116323677Y-92976969D01*
X116281450Y-92942315D01*
X116098954Y-92844768D01*
X115900934Y-92784700D01*
X115900932Y-92784699D01*
X115900934Y-92784699D01*
X115781805Y-92772966D01*
X115746608Y-92769500D01*
X115393392Y-92769500D01*
X115355298Y-92773251D01*
X115239067Y-92784699D01*
X115041043Y-92844769D01*
X114930898Y-92903643D01*
X114858550Y-92942315D01*
X114858548Y-92942316D01*
X114858547Y-92942317D01*
X114698589Y-93073589D01*
X114567317Y-93233547D01*
X114469769Y-93416043D01*
X114409699Y-93614067D01*
X114389417Y-93820000D01*
X102870000Y-93820000D01*
X102870000Y-91319999D01*
X114389417Y-91319999D01*
X114409699Y-91525932D01*
X114409700Y-91525934D01*
X114469768Y-91723954D01*
X114567315Y-91906450D01*
X114567317Y-91906452D01*
X114698589Y-92066410D01*
X114795209Y-92145702D01*
X114858550Y-92197685D01*
X115041046Y-92295232D01*
X115239066Y-92355300D01*
X115239065Y-92355300D01*
X115277647Y-92359100D01*
X115393392Y-92370500D01*
X115393395Y-92370500D01*
X115746605Y-92370500D01*
X115746608Y-92370500D01*
X115900934Y-92355300D01*
X116098954Y-92295232D01*
X116281450Y-92197685D01*
X116441410Y-92066410D01*
X116572685Y-91906450D01*
X116670232Y-91723954D01*
X116730300Y-91525934D01*
X116750583Y-91320000D01*
X116730300Y-91114066D01*
X116670232Y-90916046D01*
X116572685Y-90733550D01*
X116466441Y-90604090D01*
X116441410Y-90573589D01*
X116281452Y-90442317D01*
X116281453Y-90442317D01*
X116281450Y-90442315D01*
X116098954Y-90344768D01*
X115900934Y-90284700D01*
X115900932Y-90284699D01*
X115900934Y-90284699D01*
X115781805Y-90272966D01*
X115746608Y-90269500D01*
X115393392Y-90269500D01*
X115355298Y-90273251D01*
X115239067Y-90284699D01*
X115041043Y-90344769D01*
X114930898Y-90403643D01*
X114858550Y-90442315D01*
X114858548Y-90442316D01*
X114858547Y-90442317D01*
X114698589Y-90573589D01*
X114567317Y-90733547D01*
X114469769Y-90916043D01*
X114409699Y-91114067D01*
X114389417Y-91319999D01*
X102870000Y-91319999D01*
X102870000Y-88820000D01*
X114389417Y-88820000D01*
X114409699Y-89025932D01*
X114409700Y-89025934D01*
X114469768Y-89223954D01*
X114567315Y-89406450D01*
X114567317Y-89406452D01*
X114698589Y-89566410D01*
X114795209Y-89645702D01*
X114858550Y-89697685D01*
X115041046Y-89795232D01*
X115239066Y-89855300D01*
X115239065Y-89855300D01*
X115277647Y-89859100D01*
X115393392Y-89870500D01*
X115393395Y-89870500D01*
X115746605Y-89870500D01*
X115746608Y-89870500D01*
X115900934Y-89855300D01*
X116098954Y-89795232D01*
X116281450Y-89697685D01*
X116441410Y-89566410D01*
X116572685Y-89406450D01*
X116670232Y-89223954D01*
X116730300Y-89025934D01*
X116750583Y-88820000D01*
X116730300Y-88614066D01*
X116670232Y-88416046D01*
X116572685Y-88233550D01*
X116520702Y-88170209D01*
X116441410Y-88073589D01*
X116281452Y-87942317D01*
X116281453Y-87942317D01*
X116281450Y-87942315D01*
X116098954Y-87844768D01*
X115900934Y-87784700D01*
X115900932Y-87784699D01*
X115900934Y-87784699D01*
X115781805Y-87772966D01*
X115746608Y-87769500D01*
X115393392Y-87769500D01*
X115355298Y-87773251D01*
X115239067Y-87784699D01*
X115041043Y-87844769D01*
X114947707Y-87894659D01*
X114858550Y-87942315D01*
X114858548Y-87942316D01*
X114858547Y-87942317D01*
X114698589Y-88073589D01*
X114567317Y-88233547D01*
X114469769Y-88416043D01*
X114409699Y-88614067D01*
X114389417Y-88820000D01*
X102870000Y-88820000D01*
X102870000Y-86320000D01*
X114389417Y-86320000D01*
X114409699Y-86525932D01*
X114409700Y-86525934D01*
X114469768Y-86723954D01*
X114567315Y-86906450D01*
X114601969Y-86948677D01*
X114698589Y-87066410D01*
X114795209Y-87145702D01*
X114858550Y-87197685D01*
X115041046Y-87295232D01*
X115239066Y-87355300D01*
X115239065Y-87355300D01*
X115277647Y-87359100D01*
X115393392Y-87370500D01*
X115393395Y-87370500D01*
X115746605Y-87370500D01*
X115746608Y-87370500D01*
X115900934Y-87355300D01*
X116098954Y-87295232D01*
X116281450Y-87197685D01*
X116441410Y-87066410D01*
X116572685Y-86906450D01*
X116670232Y-86723954D01*
X116730300Y-86525934D01*
X116750583Y-86320000D01*
X116730300Y-86114066D01*
X116670232Y-85916046D01*
X116572685Y-85733550D01*
X116503393Y-85649117D01*
X116441410Y-85573589D01*
X116281452Y-85442317D01*
X116281453Y-85442317D01*
X116281450Y-85442315D01*
X116098954Y-85344768D01*
X115900934Y-85284700D01*
X115900932Y-85284699D01*
X115900934Y-85284699D01*
X115781805Y-85272966D01*
X115746608Y-85269500D01*
X115393392Y-85269500D01*
X115355298Y-85273251D01*
X115239067Y-85284699D01*
X115041043Y-85344769D01*
X114986402Y-85373976D01*
X114858550Y-85442315D01*
X114858548Y-85442316D01*
X114858547Y-85442317D01*
X114698589Y-85573589D01*
X114567317Y-85733547D01*
X114469769Y-85916043D01*
X114409699Y-86114067D01*
X114389417Y-86320000D01*
X102870000Y-86320000D01*
X102870000Y-83660000D01*
X106769417Y-83660000D01*
X106789699Y-83865932D01*
X106789700Y-83865934D01*
X106849768Y-84063954D01*
X106947315Y-84246450D01*
X106947317Y-84246452D01*
X107078589Y-84406410D01*
X107161273Y-84474266D01*
X107238550Y-84537685D01*
X107421046Y-84635232D01*
X107619066Y-84695300D01*
X107619065Y-84695300D01*
X107657647Y-84699100D01*
X107773392Y-84710500D01*
X107773395Y-84710500D01*
X108126605Y-84710500D01*
X108126608Y-84710500D01*
X108280934Y-84695300D01*
X108478954Y-84635232D01*
X108661450Y-84537685D01*
X108738723Y-84474269D01*
X114394500Y-84474269D01*
X114397353Y-84504699D01*
X114397353Y-84504701D01*
X114442206Y-84632880D01*
X114442207Y-84632882D01*
X114522850Y-84742150D01*
X114632118Y-84822793D01*
X114674845Y-84837744D01*
X114760299Y-84867646D01*
X114790730Y-84870500D01*
X114790734Y-84870500D01*
X116349270Y-84870500D01*
X116379699Y-84867646D01*
X116379701Y-84867646D01*
X116443790Y-84845219D01*
X116507882Y-84822793D01*
X116617150Y-84742150D01*
X116697793Y-84632882D01*
X116733484Y-84530883D01*
X116742646Y-84504701D01*
X116742646Y-84504699D01*
X116742646Y-84504698D01*
X116745500Y-84474266D01*
X116745500Y-83165734D01*
X116742646Y-83135301D01*
X116742646Y-83135300D01*
X116742646Y-83135298D01*
X116697793Y-83007119D01*
X116697792Y-83007117D01*
X116617150Y-82897850D01*
X116507882Y-82817207D01*
X116507880Y-82817206D01*
X116379700Y-82772353D01*
X116349270Y-82769500D01*
X116349266Y-82769500D01*
X114790734Y-82769500D01*
X114790730Y-82769500D01*
X114760300Y-82772353D01*
X114760298Y-82772353D01*
X114632119Y-82817206D01*
X114632117Y-82817207D01*
X114522850Y-82897850D01*
X114442207Y-83007117D01*
X114442206Y-83007119D01*
X114397353Y-83135298D01*
X114397353Y-83135300D01*
X114394500Y-83165730D01*
X114394500Y-84474269D01*
X108738723Y-84474269D01*
X108821410Y-84406410D01*
X108952685Y-84246450D01*
X109050232Y-84063954D01*
X109110300Y-83865934D01*
X109130583Y-83660000D01*
X109110300Y-83454066D01*
X109050232Y-83256046D01*
X108952685Y-83073550D01*
X108879268Y-82984090D01*
X108821410Y-82913589D01*
X108703677Y-82816969D01*
X108661450Y-82782315D01*
X108478954Y-82684768D01*
X108280934Y-82624700D01*
X108280932Y-82624699D01*
X108280934Y-82624699D01*
X108161805Y-82612966D01*
X108126608Y-82609500D01*
X107773392Y-82609500D01*
X107735298Y-82613251D01*
X107619067Y-82624699D01*
X107421043Y-82684769D01*
X107310898Y-82743643D01*
X107238550Y-82782315D01*
X107238548Y-82782316D01*
X107238547Y-82782317D01*
X107078589Y-82913589D01*
X106947317Y-83073547D01*
X106849769Y-83256043D01*
X106789699Y-83454067D01*
X106769417Y-83660000D01*
X102870000Y-83660000D01*
X102870000Y-81159999D01*
X106769417Y-81159999D01*
X106789699Y-81365932D01*
X106789700Y-81365934D01*
X106849768Y-81563954D01*
X106947315Y-81746450D01*
X106947317Y-81746452D01*
X107078589Y-81906410D01*
X107175209Y-81985702D01*
X107238550Y-82037685D01*
X107421046Y-82135232D01*
X107619066Y-82195300D01*
X107619065Y-82195300D01*
X107657647Y-82199100D01*
X107773392Y-82210500D01*
X107773395Y-82210500D01*
X108126605Y-82210500D01*
X108126608Y-82210500D01*
X108280934Y-82195300D01*
X108478954Y-82135232D01*
X108661450Y-82037685D01*
X108821410Y-81906410D01*
X108952685Y-81746450D01*
X109050232Y-81563954D01*
X109110300Y-81365934D01*
X109130583Y-81160000D01*
X109110300Y-80954066D01*
X109050232Y-80756046D01*
X108952685Y-80573550D01*
X108846441Y-80444090D01*
X108821410Y-80413589D01*
X108661452Y-80282317D01*
X108661453Y-80282317D01*
X108661450Y-80282315D01*
X108478954Y-80184768D01*
X108280934Y-80124700D01*
X108280932Y-80124699D01*
X108280934Y-80124699D01*
X108161805Y-80112966D01*
X108126608Y-80109500D01*
X107773392Y-80109500D01*
X107735298Y-80113251D01*
X107619067Y-80124699D01*
X107421043Y-80184769D01*
X107310898Y-80243643D01*
X107238550Y-80282315D01*
X107238548Y-80282316D01*
X107238547Y-80282317D01*
X107078589Y-80413589D01*
X106947317Y-80573547D01*
X106849769Y-80756043D01*
X106789699Y-80954067D01*
X106769417Y-81159999D01*
X102870000Y-81159999D01*
X102870000Y-78660000D01*
X106769417Y-78660000D01*
X106789699Y-78865932D01*
X106789700Y-78865934D01*
X106849768Y-79063954D01*
X106947315Y-79246450D01*
X106947317Y-79246452D01*
X107078589Y-79406410D01*
X107175209Y-79485702D01*
X107238550Y-79537685D01*
X107421046Y-79635232D01*
X107619066Y-79695300D01*
X107619065Y-79695300D01*
X107657647Y-79699100D01*
X107773392Y-79710500D01*
X107773395Y-79710500D01*
X108126605Y-79710500D01*
X108126608Y-79710500D01*
X108280934Y-79695300D01*
X108478954Y-79635232D01*
X108661450Y-79537685D01*
X108821410Y-79406410D01*
X108952685Y-79246450D01*
X109050232Y-79063954D01*
X109110300Y-78865934D01*
X109130583Y-78660000D01*
X109110300Y-78454066D01*
X109050232Y-78256046D01*
X108952685Y-78073550D01*
X108900702Y-78010209D01*
X108821410Y-77913589D01*
X108661452Y-77782317D01*
X108661453Y-77782317D01*
X108661450Y-77782315D01*
X108478954Y-77684768D01*
X108280934Y-77624700D01*
X108280932Y-77624699D01*
X108280934Y-77624699D01*
X108161805Y-77612966D01*
X108126608Y-77609500D01*
X107773392Y-77609500D01*
X107735298Y-77613251D01*
X107619067Y-77624699D01*
X107421043Y-77684769D01*
X107327707Y-77734659D01*
X107238550Y-77782315D01*
X107238548Y-77782316D01*
X107238547Y-77782317D01*
X107078589Y-77913589D01*
X106947317Y-78073547D01*
X106849769Y-78256043D01*
X106789699Y-78454067D01*
X106769417Y-78660000D01*
X102870000Y-78660000D01*
X102870000Y-76160000D01*
X106769417Y-76160000D01*
X106789699Y-76365932D01*
X106789700Y-76365934D01*
X106849768Y-76563954D01*
X106947315Y-76746450D01*
X106981969Y-76788677D01*
X107078589Y-76906410D01*
X107175209Y-76985702D01*
X107238550Y-77037685D01*
X107421046Y-77135232D01*
X107619066Y-77195300D01*
X107619065Y-77195300D01*
X107657647Y-77199100D01*
X107773392Y-77210500D01*
X107773395Y-77210500D01*
X108126605Y-77210500D01*
X108126608Y-77210500D01*
X108280934Y-77195300D01*
X108478954Y-77135232D01*
X108661450Y-77037685D01*
X108821410Y-76906410D01*
X108952685Y-76746450D01*
X109050232Y-76563954D01*
X109110300Y-76365934D01*
X109130583Y-76160000D01*
X109121679Y-76069594D01*
X123095686Y-76069594D01*
X123126114Y-76346125D01*
X123196478Y-76615272D01*
X123257359Y-76758538D01*
X123305284Y-76871314D01*
X123406817Y-77037682D01*
X123450205Y-77108776D01*
X123450212Y-77108786D01*
X123628161Y-77322616D01*
X123628167Y-77322621D01*
X123793918Y-77471133D01*
X123835357Y-77508263D01*
X124067373Y-77661763D01*
X124319267Y-77779846D01*
X124319274Y-77779848D01*
X124319276Y-77779849D01*
X124585657Y-77859992D01*
X124585664Y-77859993D01*
X124585669Y-77859995D01*
X124860901Y-77900500D01*
X124860906Y-77900500D01*
X125069461Y-77900500D01*
X125069463Y-77900500D01*
X125069467Y-77900499D01*
X125069481Y-77900499D01*
X125116953Y-77897024D01*
X125277455Y-77885277D01*
X125548997Y-77824788D01*
X125808838Y-77725408D01*
X126051440Y-77589253D01*
X126271632Y-77419226D01*
X126464722Y-77218951D01*
X126626593Y-76992696D01*
X126702580Y-76844900D01*
X126753790Y-76745298D01*
X126753794Y-76745288D01*
X126753797Y-76745283D01*
X126843621Y-76481986D01*
X126894152Y-76208416D01*
X126904313Y-75930404D01*
X126873886Y-75653876D01*
X126803520Y-75384724D01*
X126694716Y-75128686D01*
X126549792Y-74891219D01*
X126458112Y-74781053D01*
X126371838Y-74677383D01*
X126371832Y-74677378D01*
X126164643Y-74491737D01*
X125932629Y-74338238D01*
X125932627Y-74338237D01*
X125680733Y-74220154D01*
X125680728Y-74220152D01*
X125680723Y-74220150D01*
X125414342Y-74140007D01*
X125414328Y-74140004D01*
X125295565Y-74122526D01*
X125139099Y-74099500D01*
X124930537Y-74099500D01*
X124930518Y-74099500D01*
X124722545Y-74114723D01*
X124722535Y-74114724D01*
X124451007Y-74175210D01*
X124450997Y-74175213D01*
X124191161Y-74274592D01*
X123948561Y-74410746D01*
X123948556Y-74410749D01*
X123728369Y-74580772D01*
X123728359Y-74580781D01*
X123535281Y-74781045D01*
X123535274Y-74781053D01*
X123373412Y-75007295D01*
X123373405Y-75007307D01*
X123246209Y-75254701D01*
X123246205Y-75254711D01*
X123156379Y-75518012D01*
X123156378Y-75518018D01*
X123105848Y-75791584D01*
X123105847Y-75791591D01*
X123095686Y-76069594D01*
X109121679Y-76069594D01*
X109110300Y-75954066D01*
X109050232Y-75756046D01*
X108952685Y-75573550D01*
X108883393Y-75489117D01*
X108821410Y-75413589D01*
X108661452Y-75282317D01*
X108661453Y-75282317D01*
X108661450Y-75282315D01*
X108478954Y-75184768D01*
X108280934Y-75124700D01*
X108280932Y-75124699D01*
X108280934Y-75124699D01*
X108161805Y-75112966D01*
X108126608Y-75109500D01*
X107773392Y-75109500D01*
X107735298Y-75113251D01*
X107619067Y-75124699D01*
X107421043Y-75184769D01*
X107366402Y-75213976D01*
X107238550Y-75282315D01*
X107238548Y-75282316D01*
X107238547Y-75282317D01*
X107078589Y-75413589D01*
X106947317Y-75573547D01*
X106849769Y-75756043D01*
X106789699Y-75954067D01*
X106769417Y-76160000D01*
X102870000Y-76160000D01*
X102870000Y-74314269D01*
X106774500Y-74314269D01*
X106777353Y-74344699D01*
X106777353Y-74344701D01*
X106822206Y-74472880D01*
X106822207Y-74472882D01*
X106902850Y-74582150D01*
X107012118Y-74662793D01*
X107053800Y-74677378D01*
X107140299Y-74707646D01*
X107170730Y-74710500D01*
X107170734Y-74710500D01*
X108729270Y-74710500D01*
X108759699Y-74707646D01*
X108759701Y-74707646D01*
X108823790Y-74685219D01*
X108887882Y-74662793D01*
X108997150Y-74582150D01*
X109077793Y-74472882D01*
X109113484Y-74370883D01*
X109122646Y-74344701D01*
X109122646Y-74344699D01*
X109125500Y-74314269D01*
X109125500Y-73005730D01*
X109122646Y-72975300D01*
X109122646Y-72975298D01*
X109077793Y-72847119D01*
X109077792Y-72847117D01*
X108997150Y-72737850D01*
X108887882Y-72657207D01*
X108887880Y-72657206D01*
X108759700Y-72612353D01*
X108729270Y-72609500D01*
X108729266Y-72609500D01*
X107170734Y-72609500D01*
X107170730Y-72609500D01*
X107140300Y-72612353D01*
X107140298Y-72612353D01*
X107012119Y-72657206D01*
X107012117Y-72657207D01*
X106902850Y-72737850D01*
X106822207Y-72847117D01*
X106822206Y-72847119D01*
X106777353Y-72975298D01*
X106777353Y-72975300D01*
X106774500Y-73005730D01*
X106774500Y-74314269D01*
X102870000Y-74314269D01*
X102870000Y-70424500D01*
X102889685Y-70357461D01*
X102942489Y-70311706D01*
X102994000Y-70300500D01*
X130575500Y-70300500D01*
X130642539Y-70320185D01*
G37*
%TD.AperFunction*%
M02*
